<svg width="94" height="98" viewBox="0 0 94 98" fill="none" xmlns="http://www.w3.org/2000/svg">
<path d="M94 49C94 76.062 72.9574 98 47 98C21.0426 98 0 76.062 0 49C0 21.938 21.0426 0 47 0C72.9574 0 94 21.938 94 49ZM13.16 49C13.16 68.4846 28.3107 84.28 47 84.28C65.6893 84.28 80.84 68.4846 80.84 49C80.84 29.5154 65.6893 13.72 47 13.72C28.3107 13.72 13.16 29.5154 13.16 49Z" fill="#A3A3A3"/>
<path d="M22.1472 7.41092C13.7229 12.8827 7.17645 20.9944 3.44599 30.5835C-0.284457 40.1726 -1.00735 50.7467 1.38093 60.7905C3.76921 70.8343 9.14604 79.8319 16.7408 86.494C24.3356 93.156 33.7584 97.1404 43.6587 97.876L44.5942 84.1908C37.466 83.6611 30.6816 80.7923 25.2134 75.9957C19.7452 71.199 15.8738 64.7207 14.1543 57.4892C12.4347 50.2577 12.9552 42.6442 15.6411 35.7401C18.327 28.8359 23.0405 22.9955 29.106 19.0559L22.1472 7.41092Z" fill="#0434D0"/>
<path d="M80.234 14.3518C72.6515 6.4466 62.7041 1.48233 52.0427 0.282849C41.3813 -0.91663 30.6471 1.72081 21.6214 7.75745L28.7274 19.3054C35.2259 14.959 42.9546 13.06 50.6308 13.9236C58.3069 14.7873 65.4691 18.3615 70.9285 24.0533L80.234 14.3518Z" fill="#74D9CF"/>
<path d="M27.3516 93.5128C38.2045 98.7197 50.552 99.4224 61.884 95.4781C73.216 91.5337 82.682 83.2384 88.3576 72.2784C94.0332 61.3184 95.4924 48.5163 92.4386 36.4748C89.3848 24.4333 82.0472 14.0562 71.9174 7.45293L64.9405 19.0861C72.2339 23.8404 77.517 31.312 79.7158 39.9819C81.9145 48.6518 80.8639 57.8692 76.7775 65.7604C72.691 73.6516 65.8755 79.6243 57.7165 82.4642C49.5574 85.3042 40.6672 84.7982 32.8532 81.0492L27.3516 93.5128Z" fill="#74D9CF"/>
</svg>
