<svg width="240" height="258" viewBox="0 0 240 258" fill="none" xmlns="http://www.w3.org/2000/svg">
<path d="M193 73C193 113.317 160.317 146 120 146C79.6832 146 47 113.317 47 73C47 32.6832 79.6832 0 120 0C160.317 0 193 32.6832 193 73ZM67.44 73C67.44 102.028 90.9719 125.56 120 125.56C149.028 125.56 172.56 102.028 172.56 73C172.56 43.9719 149.028 20.44 120 20.44C90.9719 20.44 67.44 43.9719 67.44 73Z" fill="#A3A3A3"/>
<path d="M81.3989 11.0407C68.3144 19.1925 58.1464 31.2773 52.3523 45.5631C46.5582 59.8489 45.4354 75.6023 49.1448 90.5654C52.8543 105.529 61.2056 118.933 73.0017 128.858C84.7978 138.783 99.4332 144.719 114.81 145.815L116.263 125.427C105.192 124.638 94.6544 120.364 86.1612 113.218C77.668 106.072 71.6551 96.4206 68.9843 85.6471C66.3135 74.8736 67.1219 63.5312 71.2937 53.2454C75.4654 42.9597 82.7863 34.2586 92.2072 28.3893L81.3989 11.0407Z" fill="#525256"/>
<path d="M171.619 21.3812C159.842 9.60411 144.391 2.20836 127.832 0.421387C111.273 -1.36559 94.6008 2.56366 80.5822 11.557L91.6192 28.7611C101.713 22.2858 113.717 19.4568 125.639 20.7434C137.562 22.03 148.686 27.355 157.166 35.8345L171.619 21.3812Z" fill="#74D9CF"/>
<path d="M89.4823 139.315C106.339 147.072 125.517 148.119 143.118 142.243C160.718 136.367 175.421 124.008 184.236 107.68C193.052 91.3518 195.318 72.2795 190.575 54.3401C185.832 36.4007 174.435 20.9408 158.701 11.1033L147.865 28.4344C159.193 35.5174 167.399 46.6485 170.814 59.5649C174.229 72.4812 172.597 86.2133 166.25 97.9696C159.903 109.726 149.317 118.624 136.645 122.855C123.972 127.086 110.164 126.332 98.0272 120.747L89.4823 139.315Z" fill="#006AFF"/>
<circle cx="8" cy="182" r="8" fill="#006AFF"/>
<path d="M32.056 188V177.288H28.112V176.16H37.296V177.288H33.352V188H32.056ZM40.7605 188.152C40.0138 188.152 39.3632 187.997 38.8085 187.688C38.2538 187.373 37.8245 186.888 37.5205 186.232C37.2165 185.571 37.0645 184.715 37.0645 183.664C37.0645 182.624 37.2138 181.773 37.5125 181.112C37.8165 180.451 38.2458 179.965 38.8005 179.656C39.3552 179.341 40.0085 179.184 40.7605 179.184C41.5125 179.184 42.1658 179.341 42.7205 179.656C43.2752 179.965 43.7018 180.451 44.0005 181.112C44.3045 181.768 44.4565 182.619 44.4565 183.664C44.4565 184.704 44.3018 185.555 43.9925 186.216C43.6885 186.877 43.2592 187.365 42.7045 187.68C42.1552 187.995 41.5072 188.152 40.7605 188.152ZM40.7605 187.112C41.2512 187.112 41.6752 187.005 42.0325 186.792C42.3898 186.579 42.6645 186.224 42.8565 185.728C43.0538 185.227 43.1525 184.547 43.1525 183.688C43.1525 182.813 43.0538 182.125 42.8565 181.624C42.6645 181.117 42.3872 180.76 42.0245 180.552C41.6672 180.339 41.2458 180.232 40.7605 180.232C40.2698 180.232 39.8458 180.339 39.4885 180.552C39.1312 180.76 38.8538 181.115 38.6565 181.616C38.4645 182.112 38.3685 182.789 38.3685 183.648C38.3685 184.517 38.4645 185.205 38.6565 185.712C38.8538 186.213 39.1312 186.573 39.4885 186.792C39.8458 187.005 40.2698 187.112 40.7605 187.112ZM49.5044 188.152C48.619 188.152 47.931 187.925 47.4404 187.472C46.9497 187.013 46.7044 186.283 46.7044 185.28V179.32L46.9124 176.16H47.9844V185.072C47.9844 185.803 48.1337 186.315 48.4324 186.608C48.7364 186.901 49.187 187.048 49.7844 187.048C49.9444 187.048 50.1097 187.037 50.2804 187.016C50.451 186.989 50.6377 186.955 50.8404 186.912V187.992C50.627 188.045 50.4084 188.085 50.1844 188.112C49.9604 188.139 49.7337 188.152 49.5044 188.152ZM45.0724 180.376V179.32H50.7124V180.376H45.0724ZM54.3288 188.144C53.5128 188.144 52.8701 187.933 52.4008 187.512C51.9368 187.091 51.7048 186.512 51.7048 185.776C51.7048 185.019 51.9528 184.429 52.4488 184.008C52.9501 183.581 53.7528 183.315 54.8568 183.208L57.1848 182.96L57.3048 183.808L54.9368 184.064C54.2488 184.133 53.7528 184.301 53.4488 184.568C53.1501 184.829 53.0008 185.192 53.0008 185.656C53.0008 186.141 53.1394 186.512 53.4168 186.768C53.6941 187.024 54.1074 187.152 54.6568 187.152C55.0354 187.152 55.4168 187.072 55.8008 186.912C56.1848 186.747 56.5288 186.472 56.8328 186.088V182.256C56.8328 181.723 56.7501 181.312 56.5848 181.024C56.4194 180.731 56.1714 180.525 55.8408 180.408C55.5101 180.291 55.0941 180.232 54.5928 180.232C54.2674 180.232 53.8968 180.261 53.4808 180.32C53.0701 180.379 52.6594 180.477 52.2488 180.616V179.568C52.6221 179.445 53.0328 179.352 53.4808 179.288C53.9341 179.219 54.3608 179.184 54.7608 179.184C55.4968 179.184 56.1101 179.28 56.6008 179.472C57.0968 179.664 57.4674 179.989 57.7128 180.448C57.9634 180.901 58.0888 181.523 58.0888 182.312V188H57.0168L56.9208 187.032H56.8408C56.5581 187.389 56.1954 187.664 55.7528 187.856C55.3154 188.048 54.8408 188.144 54.3288 188.144ZM60.4111 188V175.072H61.6911V188H60.4111ZM71.4045 188.152C70.5832 188.152 69.8872 187.997 69.3165 187.688C68.7458 187.373 68.3112 186.888 68.0125 186.232C67.7138 185.571 67.5645 184.715 67.5645 183.664C67.5645 182.613 67.7245 181.76 68.0445 181.104C68.3698 180.443 68.8418 179.957 69.4605 179.648C70.0792 179.339 70.8365 179.184 71.7325 179.184C72.0365 179.184 72.3405 179.203 72.6445 179.24C72.9485 179.277 73.2392 179.333 73.5165 179.408V180.496C73.2338 180.421 72.9538 180.365 72.6765 180.328C72.4045 180.291 72.1352 180.272 71.8685 180.272C71.2018 180.272 70.6472 180.381 70.2045 180.6C69.7618 180.819 69.4312 181.173 69.2125 181.664C68.9992 182.155 68.8925 182.811 68.8925 183.632C68.8925 184.475 68.9938 185.147 69.1965 185.648C69.3992 186.149 69.7005 186.512 70.1005 186.736C70.5058 186.955 71.0018 187.064 71.5885 187.064C71.8712 187.064 72.1672 187.037 72.4765 186.984C72.7858 186.925 73.1325 186.835 73.5165 186.712V187.792C73.1752 187.915 72.8258 188.005 72.4685 188.064C72.1165 188.123 71.7618 188.152 71.4045 188.152ZM78.1824 188.152C77.4357 188.152 76.785 187.997 76.2304 187.688C75.6757 187.373 75.2464 186.888 74.9424 186.232C74.6384 185.571 74.4864 184.715 74.4864 183.664C74.4864 182.624 74.6357 181.773 74.9344 181.112C75.2384 180.451 75.6677 179.965 76.2224 179.656C76.777 179.341 77.4304 179.184 78.1824 179.184C78.9344 179.184 79.5877 179.341 80.1424 179.656C80.697 179.965 81.1237 180.451 81.4224 181.112C81.7264 181.768 81.8784 182.619 81.8784 183.664C81.8784 184.704 81.7237 185.555 81.4144 186.216C81.1104 186.877 80.681 187.365 80.1264 187.68C79.577 187.995 78.929 188.152 78.1824 188.152ZM78.1824 187.112C78.673 187.112 79.097 187.005 79.4544 186.792C79.8117 186.579 80.0864 186.224 80.2784 185.728C80.4757 185.227 80.5744 184.547 80.5744 183.688C80.5744 182.813 80.4757 182.125 80.2784 181.624C80.0864 181.117 79.809 180.76 79.4464 180.552C79.089 180.339 78.6677 180.232 78.1824 180.232C77.6917 180.232 77.2677 180.339 76.9104 180.552C76.553 180.76 76.2757 181.115 76.0784 181.616C75.8864 182.112 75.7904 182.789 75.7904 183.648C75.7904 184.517 75.8864 185.205 76.0784 185.712C76.2757 186.213 76.553 186.573 76.9104 186.792C77.2677 187.005 77.6917 187.112 78.1824 187.112ZM83.833 188V179.32H84.913L85.001 180.304H85.089C85.4197 179.931 85.7983 179.651 86.225 179.464C86.657 179.277 87.1157 179.184 87.601 179.184C88.081 179.184 88.5103 179.283 88.889 179.48C89.2677 179.677 89.5663 180 89.785 180.448C90.0037 180.891 90.113 181.485 90.113 182.232V188H88.849V182.312C88.849 181.565 88.7023 181.048 88.409 180.76C88.1157 180.472 87.729 180.328 87.249 180.328C87.009 180.328 86.7583 180.368 86.497 180.448C86.241 180.528 85.993 180.656 85.753 180.832C85.513 181.003 85.2997 181.232 85.113 181.52V188H83.833ZM93.793 188V182.312C93.793 181.565 93.6383 181.048 93.329 180.76C93.025 180.472 92.633 180.328 92.153 180.328C91.9077 180.328 91.6463 180.371 91.369 180.456C91.097 180.536 90.8303 180.677 90.569 180.88C90.313 181.077 90.089 181.349 89.897 181.696L89.577 180.664C89.9983 180.115 90.465 179.731 90.977 179.512C91.489 179.293 91.9823 179.184 92.457 179.184C92.9583 179.184 93.4063 179.285 93.801 179.488C94.1957 179.685 94.505 180.008 94.729 180.456C94.9583 180.904 95.073 181.504 95.073 182.256V188H93.793ZM97.3955 191.52V179.32H98.4835L98.5795 180.272H98.6595C98.9208 179.952 99.2542 179.691 99.6595 179.488C100.07 179.285 100.534 179.184 101.052 179.184C101.676 179.184 102.246 179.323 102.764 179.6C103.281 179.877 103.694 180.333 104.004 180.968C104.313 181.597 104.468 182.44 104.468 183.496C104.468 184.541 104.302 185.408 103.972 186.096C103.641 186.784 103.15 187.299 102.5 187.64C101.849 187.981 101.046 188.152 100.092 188.152C99.8462 188.152 99.6008 188.139 99.3555 188.112C99.1102 188.091 98.8835 188.067 98.6755 188.04V191.52H97.3955ZM100.108 187.104C101.121 187.104 101.884 186.832 102.396 186.288C102.908 185.744 103.164 184.851 103.164 183.608C103.164 182.744 103.06 182.072 102.852 181.592C102.644 181.112 102.358 180.776 101.996 180.584C101.633 180.387 101.222 180.288 100.764 180.288C100.374 180.288 99.9928 180.373 99.6195 180.544C99.2462 180.709 98.9315 180.981 98.6755 181.36V186.952C98.8675 186.995 99.0915 187.032 99.3475 187.064C99.6088 187.091 99.8622 187.104 100.108 187.104ZM106.427 188V175.072H107.707V188H106.427ZM113.786 188.152C112.885 188.152 112.127 188 111.514 187.696C110.906 187.387 110.447 186.904 110.138 186.248C109.829 185.587 109.674 184.723 109.674 183.656C109.674 182.637 109.815 181.797 110.098 181.136C110.386 180.475 110.791 179.984 111.314 179.664C111.842 179.344 112.466 179.184 113.186 179.184C113.895 179.184 114.498 179.347 114.994 179.672C115.495 179.992 115.877 180.485 116.138 181.152C116.399 181.813 116.53 182.659 116.53 183.688V184.08H110.37V183.208H115.586L115.306 183.4C115.306 182.589 115.221 181.944 115.05 181.464C114.885 180.984 114.642 180.64 114.322 180.432C114.007 180.219 113.623 180.112 113.17 180.112C112.722 180.112 112.333 180.216 112.002 180.424C111.671 180.632 111.415 180.976 111.234 181.456C111.058 181.936 110.97 182.584 110.97 183.4V183.848C110.97 184.648 111.077 185.288 111.29 185.768C111.509 186.243 111.837 186.587 112.274 186.8C112.711 187.008 113.266 187.112 113.938 187.112C114.269 187.112 114.61 187.083 114.962 187.024C115.319 186.96 115.698 186.872 116.098 186.76V187.808C115.682 187.925 115.285 188.011 114.906 188.064C114.533 188.123 114.159 188.152 113.786 188.152ZM121.629 188.152C120.744 188.152 120.056 187.925 119.565 187.472C119.075 187.013 118.829 186.283 118.829 185.28V179.32L119.037 176.16H120.109V185.072C120.109 185.803 120.259 186.315 120.557 186.608C120.861 186.901 121.312 187.048 121.909 187.048C122.069 187.048 122.235 187.037 122.405 187.016C122.576 186.989 122.763 186.955 122.965 186.912V187.992C122.752 188.045 122.533 188.085 122.309 188.112C122.085 188.139 121.859 188.152 121.629 188.152ZM117.197 180.376V179.32H122.837V180.376H117.197ZM127.448 188.152C126.701 188.152 126.051 187.997 125.496 187.688C124.941 187.373 124.512 186.888 124.208 186.232C123.904 185.571 123.752 184.715 123.752 183.664C123.752 182.624 123.901 181.773 124.2 181.112C124.504 180.451 124.933 179.965 125.488 179.656C126.043 179.341 126.696 179.184 127.448 179.184C128.2 179.184 128.853 179.341 129.408 179.656C129.963 179.965 130.389 180.451 130.688 181.112C130.992 181.768 131.144 182.619 131.144 183.664C131.144 184.704 130.989 185.555 130.68 186.216C130.376 186.877 129.947 187.365 129.392 187.68C128.843 187.995 128.195 188.152 127.448 188.152ZM127.448 187.112C127.939 187.112 128.363 187.005 128.72 186.792C129.077 186.579 129.352 186.224 129.544 185.728C129.741 185.227 129.84 184.547 129.84 183.688C129.84 182.813 129.741 182.125 129.544 181.624C129.352 181.117 129.075 180.76 128.712 180.552C128.355 180.339 127.933 180.232 127.448 180.232C126.957 180.232 126.533 180.339 126.176 180.552C125.819 180.76 125.541 181.115 125.344 181.616C125.152 182.112 125.056 182.789 125.056 183.648C125.056 184.517 125.152 185.205 125.344 185.712C125.541 186.213 125.819 186.573 126.176 186.792C126.533 187.005 126.957 187.112 127.448 187.112ZM135.171 188.152C134.733 188.152 134.315 188.123 133.915 188.064C133.52 188.005 133.136 187.917 132.763 187.8V186.776C133.189 186.904 133.597 186.997 133.987 187.056C134.376 187.109 134.771 187.136 135.171 187.136C135.923 187.136 136.467 187.008 136.803 186.752C137.144 186.496 137.315 186.136 137.315 185.672C137.315 185.277 137.213 184.976 137.011 184.768C136.808 184.555 136.464 184.397 135.979 184.296L134.803 184.056C134.013 183.885 133.448 183.605 133.107 183.216C132.771 182.821 132.603 182.315 132.603 181.696C132.603 180.965 132.883 180.365 133.443 179.896C134.008 179.421 134.875 179.184 136.043 179.184C136.416 179.184 136.771 179.205 137.107 179.248C137.448 179.291 137.776 179.355 138.091 179.44V180.472C137.739 180.376 137.4 180.307 137.075 180.264C136.755 180.221 136.419 180.2 136.067 180.2C135.517 180.2 135.077 180.267 134.747 180.4C134.421 180.528 134.187 180.704 134.043 180.928C133.899 181.147 133.827 181.392 133.827 181.664C133.827 182.005 133.923 182.288 134.115 182.512C134.307 182.736 134.643 182.901 135.123 183.008L136.299 183.248C137.099 183.413 137.672 183.685 138.019 184.064C138.371 184.443 138.547 184.957 138.547 185.608C138.547 186.392 138.259 187.013 137.683 187.472C137.112 187.925 136.275 188.152 135.171 188.152Z" fill="#1A1919"/>
<path d="M191.488 188.152C190.987 188.152 190.491 188.109 190 188.024C189.509 187.944 189.051 187.832 188.624 187.688V186.632C189.072 186.776 189.541 186.891 190.032 186.976C190.523 187.056 191 187.096 191.464 187.096C192.477 187.096 193.232 186.893 193.728 186.488C194.229 186.083 194.48 185.48 194.48 184.68C194.48 184.163 194.355 183.733 194.104 183.392C193.859 183.045 193.451 182.776 192.88 182.584C192.309 182.392 191.533 182.269 190.552 182.216L189.064 182.128L189.464 176.16H195.24V177.216H190.08L190.664 176.688L190.328 181.656L189.504 181.096L190.992 181.176C192.107 181.245 193.013 181.416 193.712 181.688C194.411 181.96 194.92 182.341 195.24 182.832C195.565 183.323 195.728 183.931 195.728 184.656C195.728 185.792 195.368 186.659 194.648 187.256C193.933 187.853 192.88 188.152 191.488 188.152ZM196.837 185.16V184.44L201.429 176.16H202.733L198.141 184.448L197.957 184.104H205.573V185.16H196.837ZM202.701 188V184.104L202.861 180.16H203.901V188H202.701ZM210.13 188L215.33 176.16H216.45L211.258 188H210.13ZM209.458 183.4C208.925 183.4 208.453 183.275 208.042 183.024C207.637 182.773 207.317 182.379 207.082 181.84C206.853 181.296 206.738 180.584 206.738 179.704C206.738 178.829 206.853 178.12 207.082 177.576C207.312 177.032 207.629 176.635 208.034 176.384C208.445 176.133 208.92 176.008 209.458 176.008C209.997 176.008 210.472 176.133 210.882 176.384C211.293 176.635 211.613 177.032 211.842 177.576C212.072 178.12 212.186 178.829 212.186 179.704C212.186 180.584 212.069 181.296 211.834 181.84C211.605 182.379 211.285 182.773 210.874 183.024C210.464 183.275 209.992 183.4 209.458 183.4ZM209.458 182.496C209.784 182.496 210.069 182.411 210.314 182.24C210.565 182.069 210.76 181.781 210.898 181.376C211.037 180.971 211.106 180.419 211.106 179.72C211.106 179.016 211.037 178.461 210.898 178.056C210.76 177.645 210.565 177.355 210.314 177.184C210.069 177.008 209.784 176.92 209.458 176.92C209.133 176.92 208.848 177.005 208.602 177.176C208.357 177.347 208.165 177.635 208.026 178.04C207.888 178.445 207.818 178.997 207.818 179.696C207.818 180.395 207.888 180.949 208.026 181.36C208.165 181.765 208.357 182.056 208.602 182.232C208.848 182.408 209.133 182.496 209.458 182.496ZM217.122 188.144C216.589 188.144 216.117 188.019 215.706 187.768C215.296 187.517 214.976 187.123 214.746 186.584C214.517 186.04 214.402 185.328 214.402 184.448C214.402 183.568 214.517 182.859 214.746 182.32C214.976 181.776 215.293 181.379 215.698 181.128C216.109 180.877 216.584 180.752 217.122 180.752C217.661 180.752 218.133 180.877 218.538 181.128C218.949 181.379 219.269 181.776 219.498 182.32C219.728 182.859 219.842 183.568 219.842 184.448C219.842 185.328 219.728 186.04 219.498 186.584C219.269 187.123 218.949 187.517 218.538 187.768C218.128 188.019 217.656 188.144 217.122 188.144ZM217.122 187.24C217.448 187.24 217.733 187.155 217.978 186.984C218.224 186.813 218.416 186.525 218.554 186.12C218.698 185.715 218.77 185.163 218.77 184.464C218.77 183.76 218.698 183.203 218.554 182.792C218.416 182.381 218.224 182.091 217.978 181.92C217.733 181.749 217.448 181.664 217.122 181.664C216.797 181.664 216.512 181.749 216.266 181.92C216.021 182.091 215.826 182.379 215.682 182.784C215.544 183.189 215.474 183.741 215.474 184.44C215.474 185.139 215.544 185.693 215.682 186.104C215.826 186.509 216.021 186.8 216.266 186.976C216.512 187.152 216.797 187.24 217.122 187.24Z" fill="#1A1919"/>
<path d="M231.842 187V179.896L229.192 182.555L228.028 181.402L232.682 176.759L237.325 181.402L236.182 182.555L233.522 179.896V187H231.842Z" fill="#52C93F"/>
<circle cx="8" cy="214" r="8" fill="#74D9CF"/>
<path d="M32.056 220V209.288H28.112V208.16H37.296V209.288H33.352V220H32.056ZM40.7605 220.152C40.0138 220.152 39.3632 219.997 38.8085 219.688C38.2538 219.373 37.8245 218.888 37.5205 218.232C37.2165 217.571 37.0645 216.715 37.0645 215.664C37.0645 214.624 37.2138 213.773 37.5125 213.112C37.8165 212.451 38.2458 211.965 38.8005 211.656C39.3552 211.341 40.0085 211.184 40.7605 211.184C41.5125 211.184 42.1658 211.341 42.7205 211.656C43.2752 211.965 43.7018 212.451 44.0005 213.112C44.3045 213.768 44.4565 214.619 44.4565 215.664C44.4565 216.704 44.3018 217.555 43.9925 218.216C43.6885 218.877 43.2592 219.365 42.7045 219.68C42.1552 219.995 41.5072 220.152 40.7605 220.152ZM40.7605 219.112C41.2512 219.112 41.6752 219.005 42.0325 218.792C42.3898 218.579 42.6645 218.224 42.8565 217.728C43.0538 217.227 43.1525 216.547 43.1525 215.688C43.1525 214.813 43.0538 214.125 42.8565 213.624C42.6645 213.117 42.3872 212.76 42.0245 212.552C41.6672 212.339 41.2458 212.232 40.7605 212.232C40.2698 212.232 39.8458 212.339 39.4885 212.552C39.1312 212.76 38.8538 213.115 38.6565 213.616C38.4645 214.112 38.3685 214.789 38.3685 215.648C38.3685 216.517 38.4645 217.205 38.6565 217.712C38.8538 218.213 39.1312 218.573 39.4885 218.792C39.8458 219.005 40.2698 219.112 40.7605 219.112ZM49.5044 220.152C48.619 220.152 47.931 219.925 47.4404 219.472C46.9497 219.013 46.7044 218.283 46.7044 217.28V211.32L46.9124 208.16H47.9844V217.072C47.9844 217.803 48.1337 218.315 48.4324 218.608C48.7364 218.901 49.187 219.048 49.7844 219.048C49.9444 219.048 50.1097 219.037 50.2804 219.016C50.451 218.989 50.6377 218.955 50.8404 218.912V219.992C50.627 220.045 50.4084 220.085 50.1844 220.112C49.9604 220.139 49.7337 220.152 49.5044 220.152ZM45.0724 212.376V211.32H50.7124V212.376H45.0724ZM54.3288 220.144C53.5128 220.144 52.8701 219.933 52.4008 219.512C51.9368 219.091 51.7048 218.512 51.7048 217.776C51.7048 217.019 51.9528 216.429 52.4488 216.008C52.9501 215.581 53.7528 215.315 54.8568 215.208L57.1848 214.96L57.3048 215.808L54.9368 216.064C54.2488 216.133 53.7528 216.301 53.4488 216.568C53.1501 216.829 53.0008 217.192 53.0008 217.656C53.0008 218.141 53.1394 218.512 53.4168 218.768C53.6941 219.024 54.1074 219.152 54.6568 219.152C55.0354 219.152 55.4168 219.072 55.8008 218.912C56.1848 218.747 56.5288 218.472 56.8328 218.088V214.256C56.8328 213.723 56.7501 213.312 56.5848 213.024C56.4194 212.731 56.1714 212.525 55.8408 212.408C55.5101 212.291 55.0941 212.232 54.5928 212.232C54.2674 212.232 53.8968 212.261 53.4808 212.32C53.0701 212.379 52.6594 212.477 52.2488 212.616V211.568C52.6221 211.445 53.0328 211.352 53.4808 211.288C53.9341 211.219 54.3608 211.184 54.7608 211.184C55.4968 211.184 56.1101 211.28 56.6008 211.472C57.0968 211.664 57.4674 211.989 57.7128 212.448C57.9634 212.901 58.0888 213.523 58.0888 214.312V220H57.0168L56.9208 219.032H56.8408C56.5581 219.389 56.1954 219.664 55.7528 219.856C55.3154 220.048 54.8408 220.144 54.3288 220.144ZM60.4111 220V207.072H61.6911V220H60.4111ZM71.4045 220.152C70.5832 220.152 69.8872 219.997 69.3165 219.688C68.7458 219.373 68.3112 218.888 68.0125 218.232C67.7138 217.571 67.5645 216.715 67.5645 215.664C67.5645 214.613 67.7245 213.76 68.0445 213.104C68.3698 212.443 68.8418 211.957 69.4605 211.648C70.0792 211.339 70.8365 211.184 71.7325 211.184C72.0365 211.184 72.3405 211.203 72.6445 211.24C72.9485 211.277 73.2392 211.333 73.5165 211.408V212.496C73.2338 212.421 72.9538 212.365 72.6765 212.328C72.4045 212.291 72.1352 212.272 71.8685 212.272C71.2018 212.272 70.6472 212.381 70.2045 212.6C69.7618 212.819 69.4312 213.173 69.2125 213.664C68.9992 214.155 68.8925 214.811 68.8925 215.632C68.8925 216.475 68.9938 217.147 69.1965 217.648C69.3992 218.149 69.7005 218.512 70.1005 218.736C70.5058 218.955 71.0018 219.064 71.5885 219.064C71.8712 219.064 72.1672 219.037 72.4765 218.984C72.7858 218.925 73.1325 218.835 73.5165 218.712V219.792C73.1752 219.915 72.8258 220.005 72.4685 220.064C72.1165 220.123 71.7618 220.152 71.4045 220.152ZM77.1881 220.144C76.3721 220.144 75.7295 219.933 75.2601 219.512C74.7961 219.091 74.5641 218.512 74.5641 217.776C74.5641 217.019 74.8121 216.429 75.3081 216.008C75.8095 215.581 76.6121 215.315 77.7161 215.208L80.0441 214.96L80.1641 215.808L77.7961 216.064C77.1081 216.133 76.6121 216.301 76.3081 216.568C76.0095 216.829 75.8601 217.192 75.8601 217.656C75.8601 218.141 75.9988 218.512 76.2761 218.768C76.5535 219.024 76.9668 219.152 77.5161 219.152C77.8948 219.152 78.2761 219.072 78.6601 218.912C79.0441 218.747 79.3881 218.472 79.6921 218.088V214.256C79.6921 213.723 79.6095 213.312 79.4441 213.024C79.2788 212.731 79.0308 212.525 78.7001 212.408C78.3695 212.291 77.9535 212.232 77.4521 212.232C77.1268 212.232 76.7561 212.261 76.3401 212.32C75.9295 212.379 75.5188 212.477 75.1081 212.616V211.568C75.4815 211.445 75.8921 211.352 76.3401 211.288C76.7935 211.219 77.2201 211.184 77.6201 211.184C78.3561 211.184 78.9695 211.28 79.4601 211.472C79.9561 211.664 80.3268 211.989 80.5721 212.448C80.8228 212.901 80.9481 213.523 80.9481 214.312V220H79.8761L79.7801 219.032H79.7001C79.4175 219.389 79.0548 219.664 78.6121 219.856C78.1748 220.048 77.7001 220.144 77.1881 220.144ZM83.2705 220V211.32H84.3505L84.4385 212.296H84.5265C84.8785 211.939 85.2892 211.664 85.7585 211.472C86.2278 211.28 86.7265 211.184 87.2545 211.184C87.7985 211.184 88.2785 211.285 88.6945 211.488C89.1158 211.685 89.4438 212.011 89.6785 212.464C89.9185 212.912 90.0385 213.512 90.0385 214.264V220H88.7665V214.32C88.7665 213.573 88.6012 213.056 88.2705 212.768C87.9452 212.475 87.5025 212.328 86.9425 212.328C86.6865 212.328 86.4145 212.365 86.1265 212.44C85.8385 212.515 85.5558 212.637 85.2785 212.808C85.0065 212.979 84.7638 213.205 84.5505 213.488V220H83.2705ZM95.7483 220.152C94.9269 220.152 94.2309 219.997 93.6603 219.688C93.0896 219.373 92.6549 218.888 92.3563 218.232C92.0576 217.571 91.9083 216.715 91.9083 215.664C91.9083 214.613 92.0683 213.76 92.3883 213.104C92.7136 212.443 93.1856 211.957 93.8043 211.648C94.4229 211.339 95.1803 211.184 96.0763 211.184C96.3803 211.184 96.6843 211.203 96.9883 211.24C97.2923 211.277 97.5829 211.333 97.8603 211.408V212.496C97.5776 212.421 97.2976 212.365 97.0203 212.328C96.7483 212.291 96.4789 212.272 96.2123 212.272C95.5456 212.272 94.9909 212.381 94.5483 212.6C94.1056 212.819 93.7749 213.173 93.5563 213.664C93.3429 214.155 93.2363 214.811 93.2363 215.632C93.2363 216.475 93.3376 217.147 93.5403 217.648C93.7429 218.149 94.0443 218.512 94.4443 218.736C94.8496 218.955 95.3456 219.064 95.9323 219.064C96.2149 219.064 96.5109 219.037 96.8203 218.984C97.1296 218.925 97.4763 218.835 97.8603 218.712V219.792C97.5189 219.915 97.1696 220.005 96.8123 220.064C96.4603 220.123 96.1056 220.152 95.7483 220.152ZM102.942 220.152C102.041 220.152 101.283 220 100.67 219.696C100.062 219.387 99.6035 218.904 99.2941 218.248C98.9848 217.587 98.8301 216.723 98.8301 215.656C98.8301 214.637 98.9715 213.797 99.2541 213.136C99.5421 212.475 99.9475 211.984 100.47 211.664C100.998 211.344 101.622 211.184 102.342 211.184C103.051 211.184 103.654 211.347 104.15 211.672C104.651 211.992 105.033 212.485 105.294 213.152C105.555 213.813 105.686 214.659 105.686 215.688V216.08H99.5261V215.208H104.742L104.462 215.4C104.462 214.589 104.377 213.944 104.206 213.464C104.041 212.984 103.798 212.64 103.478 212.432C103.163 212.219 102.779 212.112 102.326 212.112C101.878 212.112 101.489 212.216 101.158 212.424C100.827 212.632 100.571 212.976 100.39 213.456C100.214 213.936 100.126 214.584 100.126 215.4V215.848C100.126 216.648 100.233 217.288 100.446 217.768C100.665 218.243 100.993 218.587 101.43 218.8C101.867 219.008 102.422 219.112 103.094 219.112C103.425 219.112 103.766 219.083 104.118 219.024C104.475 218.96 104.854 218.872 105.254 218.76V219.808C104.838 219.925 104.441 220.011 104.062 220.064C103.689 220.123 103.315 220.152 102.942 220.152ZM107.521 220V207.072H108.801V220H107.521ZM113.376 220.144C112.56 220.144 111.917 219.933 111.448 219.512C110.984 219.091 110.752 218.512 110.752 217.776C110.752 217.019 111 216.429 111.496 216.008C111.997 215.581 112.8 215.315 113.904 215.208L116.232 214.96L116.352 215.808L113.984 216.064C113.296 216.133 112.8 216.301 112.496 216.568C112.197 216.829 112.048 217.192 112.048 217.656C112.048 218.141 112.186 218.512 112.464 218.768C112.741 219.024 113.154 219.152 113.704 219.152C114.082 219.152 114.464 219.072 114.848 218.912C115.232 218.747 115.576 218.472 115.88 218.088V214.256C115.88 213.723 115.797 213.312 115.632 213.024C115.466 212.731 115.218 212.525 114.888 212.408C114.557 212.291 114.141 212.232 113.64 212.232C113.314 212.232 112.944 212.261 112.528 212.32C112.117 212.379 111.706 212.477 111.296 212.616V211.568C111.669 211.445 112.08 211.352 112.528 211.288C112.981 211.219 113.408 211.184 113.808 211.184C114.544 211.184 115.157 211.28 115.648 211.472C116.144 211.664 116.514 211.989 116.76 212.448C117.01 212.901 117.136 213.523 117.136 214.312V220H116.064L115.968 219.032H115.888C115.605 219.389 115.242 219.664 114.8 219.856C114.362 220.048 113.888 220.144 113.376 220.144ZM122.418 220.152C121.789 220.152 121.215 220.011 120.698 219.728C120.181 219.44 119.767 218.981 119.458 218.352C119.154 217.723 119.002 216.885 119.002 215.84C119.002 214.795 119.167 213.928 119.498 213.24C119.834 212.552 120.327 212.037 120.978 211.696C121.629 211.355 122.429 211.184 123.378 211.184C123.623 211.184 123.869 211.195 124.114 211.216C124.359 211.237 124.586 211.264 124.794 211.296V207.072H126.074V220H124.986L124.898 219.064H124.81C124.554 219.379 124.221 219.64 123.81 219.848C123.405 220.051 122.941 220.152 122.418 220.152ZM122.706 219.048C123.095 219.048 123.477 218.963 123.85 218.792C124.223 218.621 124.538 218.349 124.794 217.976V212.384C124.602 212.336 124.378 212.299 124.122 212.272C123.866 212.245 123.613 212.232 123.362 212.232C122.354 212.232 121.591 212.504 121.074 213.048C120.562 213.592 120.306 214.485 120.306 215.728C120.306 216.581 120.407 217.251 120.61 217.736C120.818 218.216 121.101 218.555 121.458 218.752C121.821 218.949 122.237 219.048 122.706 219.048ZM131.729 220.152C130.983 220.152 130.332 219.997 129.777 219.688C129.223 219.373 128.793 218.888 128.489 218.232C128.185 217.571 128.033 216.715 128.033 215.664C128.033 214.624 128.183 213.773 128.481 213.112C128.785 212.451 129.215 211.965 129.769 211.656C130.324 211.341 130.977 211.184 131.729 211.184C132.481 211.184 133.135 211.341 133.689 211.656C134.244 211.965 134.671 212.451 134.969 213.112C135.273 213.768 135.425 214.619 135.425 215.664C135.425 216.704 135.271 217.555 134.961 218.216C134.657 218.877 134.228 219.365 133.673 219.68C133.124 219.995 132.476 220.152 131.729 220.152ZM131.729 219.112C132.22 219.112 132.644 219.005 133.001 218.792C133.359 218.579 133.633 218.224 133.825 217.728C134.023 217.227 134.121 216.547 134.121 215.688C134.121 214.813 134.023 214.125 133.825 213.624C133.633 213.117 133.356 212.76 132.993 212.552C132.636 212.339 132.215 212.232 131.729 212.232C131.239 212.232 130.815 212.339 130.457 212.552C130.1 212.76 129.823 213.115 129.625 213.616C129.433 214.112 129.337 214.789 129.337 215.648C129.337 216.517 129.433 217.205 129.625 217.712C129.823 218.213 130.1 218.573 130.457 218.792C130.815 219.005 131.239 219.112 131.729 219.112ZM139.452 220.152C139.015 220.152 138.596 220.123 138.196 220.064C137.801 220.005 137.417 219.917 137.044 219.8V218.776C137.471 218.904 137.879 218.997 138.268 219.056C138.657 219.109 139.052 219.136 139.452 219.136C140.204 219.136 140.748 219.008 141.084 218.752C141.425 218.496 141.596 218.136 141.596 217.672C141.596 217.277 141.495 216.976 141.292 216.768C141.089 216.555 140.745 216.397 140.26 216.296L139.084 216.056C138.295 215.885 137.729 215.605 137.388 215.216C137.052 214.821 136.884 214.315 136.884 213.696C136.884 212.965 137.164 212.365 137.724 211.896C138.289 211.421 139.156 211.184 140.324 211.184C140.697 211.184 141.052 211.205 141.388 211.248C141.729 211.291 142.057 211.355 142.372 211.44V212.472C142.02 212.376 141.681 212.307 141.356 212.264C141.036 212.221 140.7 212.2 140.348 212.2C139.799 212.2 139.359 212.267 139.028 212.4C138.703 212.528 138.468 212.704 138.324 212.928C138.18 213.147 138.108 213.392 138.108 213.664C138.108 214.005 138.204 214.288 138.396 214.512C138.588 214.736 138.924 214.901 139.404 215.008L140.58 215.248C141.38 215.413 141.953 215.685 142.3 216.064C142.652 216.443 142.828 216.957 142.828 217.608C142.828 218.392 142.54 219.013 141.964 219.472C141.393 219.925 140.556 220.152 139.452 220.152Z" fill="#1A1919"/>
<path d="M188.48 220V219.288L191.872 214.776C192.256 214.264 192.563 213.808 192.792 213.408C193.027 213.003 193.195 212.629 193.296 212.288C193.397 211.947 193.448 211.608 193.448 211.272C193.448 210.504 193.237 209.952 192.816 209.616C192.395 209.28 191.76 209.112 190.912 209.112C190.448 209.112 190 209.152 189.568 209.232C189.141 209.312 188.733 209.429 188.344 209.584V208.464C188.573 208.373 188.832 208.293 189.12 208.224C189.413 208.155 189.723 208.101 190.048 208.064C190.373 208.027 190.696 208.008 191.016 208.008C192.211 208.008 193.131 208.261 193.776 208.768C194.421 209.269 194.744 210.069 194.744 211.168C194.744 211.589 194.685 212.005 194.568 212.416C194.456 212.821 194.269 213.256 194.008 213.72C193.747 214.179 193.392 214.699 192.944 215.28L189.936 219.248L189.832 218.888H195.384V220H188.48ZM200.789 220.152C199.962 220.152 199.242 219.952 198.629 219.552C198.021 219.152 197.549 218.507 197.213 217.616C196.882 216.725 196.717 215.547 196.717 214.08C196.717 212.613 196.882 211.435 197.213 210.544C197.544 209.653 198.013 209.008 198.621 208.608C199.229 208.208 199.952 208.008 200.789 208.008C201.632 208.008 202.357 208.208 202.965 208.608C203.573 209.008 204.042 209.653 204.373 210.544C204.704 211.435 204.869 212.613 204.869 214.08C204.869 215.547 204.701 216.725 204.365 217.616C204.034 218.507 203.562 219.152 202.949 219.552C202.341 219.952 201.621 220.152 200.789 220.152ZM200.797 219.032C201.357 219.032 201.845 218.885 202.261 218.592C202.677 218.299 202.997 217.795 203.221 217.08C203.45 216.36 203.565 215.368 203.565 214.104C203.565 212.824 203.45 211.824 203.221 211.104C202.997 210.379 202.677 209.869 202.261 209.576C201.845 209.277 201.357 209.128 200.797 209.128C200.232 209.128 199.741 209.275 199.325 209.568C198.909 209.861 198.586 210.368 198.357 211.088C198.133 211.803 198.021 212.792 198.021 214.056C198.021 215.336 198.133 216.339 198.357 217.064C198.586 217.784 198.909 218.293 199.325 218.592C199.741 218.885 200.232 219.032 200.797 219.032ZM210.005 220L215.205 208.16H216.325L211.133 220H210.005ZM209.333 215.4C208.8 215.4 208.328 215.275 207.917 215.024C207.512 214.773 207.192 214.379 206.957 213.84C206.728 213.296 206.613 212.584 206.613 211.704C206.613 210.829 206.728 210.12 206.957 209.576C207.187 209.032 207.504 208.635 207.909 208.384C208.32 208.133 208.795 208.008 209.333 208.008C209.872 208.008 210.347 208.133 210.757 208.384C211.168 208.635 211.488 209.032 211.717 209.576C211.947 210.12 212.061 210.829 212.061 211.704C212.061 212.584 211.944 213.296 211.709 213.84C211.48 214.379 211.16 214.773 210.749 215.024C210.339 215.275 209.867 215.4 209.333 215.4ZM209.333 214.496C209.659 214.496 209.944 214.411 210.189 214.24C210.44 214.069 210.635 213.781 210.773 213.376C210.912 212.971 210.981 212.419 210.981 211.72C210.981 211.016 210.912 210.461 210.773 210.056C210.635 209.645 210.44 209.355 210.189 209.184C209.944 209.008 209.659 208.92 209.333 208.92C209.008 208.92 208.723 209.005 208.477 209.176C208.232 209.347 208.04 209.635 207.901 210.04C207.763 210.445 207.693 210.997 207.693 211.696C207.693 212.395 207.763 212.949 207.901 213.36C208.04 213.765 208.232 214.056 208.477 214.232C208.723 214.408 209.008 214.496 209.333 214.496ZM216.997 220.144C216.464 220.144 215.992 220.019 215.581 219.768C215.171 219.517 214.851 219.123 214.621 218.584C214.392 218.04 214.277 217.328 214.277 216.448C214.277 215.568 214.392 214.859 214.621 214.32C214.851 213.776 215.168 213.379 215.573 213.128C215.984 212.877 216.459 212.752 216.997 212.752C217.536 212.752 218.008 212.877 218.413 213.128C218.824 213.379 219.144 213.776 219.373 214.32C219.603 214.859 219.717 215.568 219.717 216.448C219.717 217.328 219.603 218.04 219.373 218.584C219.144 219.123 218.824 219.517 218.413 219.768C218.003 220.019 217.531 220.144 216.997 220.144ZM216.997 219.24C217.323 219.24 217.608 219.155 217.853 218.984C218.099 218.813 218.291 218.525 218.429 218.12C218.573 217.715 218.645 217.163 218.645 216.464C218.645 215.76 218.573 215.203 218.429 214.792C218.291 214.381 218.099 214.091 217.853 213.92C217.608 213.749 217.323 213.664 216.997 213.664C216.672 213.664 216.387 213.749 216.141 213.92C215.896 214.091 215.701 214.379 215.557 214.784C215.419 215.189 215.349 215.741 215.349 216.44C215.349 217.139 215.419 217.693 215.557 218.104C215.701 218.509 215.896 218.8 216.141 218.976C216.387 219.152 216.672 219.24 216.997 219.24Z" fill="#1A1919"/>
<path d="M231.842 219V211.896L229.192 214.555L228.028 213.402L232.682 208.759L237.325 213.402L236.182 214.555L233.522 211.896V219H231.842Z" fill="#52C93F"/>
<circle cx="8" cy="246" r="8" fill="#525256"/>
<path d="M32.056 252V241.288H28.112V240.16H37.296V241.288H33.352V252H32.056ZM40.7605 252.152C40.0138 252.152 39.3632 251.997 38.8085 251.688C38.2538 251.373 37.8245 250.888 37.5205 250.232C37.2165 249.571 37.0645 248.715 37.0645 247.664C37.0645 246.624 37.2138 245.773 37.5125 245.112C37.8165 244.451 38.2458 243.965 38.8005 243.656C39.3552 243.341 40.0085 243.184 40.7605 243.184C41.5125 243.184 42.1658 243.341 42.7205 243.656C43.2752 243.965 43.7018 244.451 44.0005 245.112C44.3045 245.768 44.4565 246.619 44.4565 247.664C44.4565 248.704 44.3018 249.555 43.9925 250.216C43.6885 250.877 43.2592 251.365 42.7045 251.68C42.1552 251.995 41.5072 252.152 40.7605 252.152ZM40.7605 251.112C41.2512 251.112 41.6752 251.005 42.0325 250.792C42.3898 250.579 42.6645 250.224 42.8565 249.728C43.0538 249.227 43.1525 248.547 43.1525 247.688C43.1525 246.813 43.0538 246.125 42.8565 245.624C42.6645 245.117 42.3872 244.76 42.0245 244.552C41.6672 244.339 41.2458 244.232 40.7605 244.232C40.2698 244.232 39.8458 244.339 39.4885 244.552C39.1312 244.76 38.8538 245.115 38.6565 245.616C38.4645 246.112 38.3685 246.789 38.3685 247.648C38.3685 248.517 38.4645 249.205 38.6565 249.712C38.8538 250.213 39.1312 250.573 39.4885 250.792C39.8458 251.005 40.2698 251.112 40.7605 251.112ZM49.5044 252.152C48.619 252.152 47.931 251.925 47.4404 251.472C46.9497 251.013 46.7044 250.283 46.7044 249.28V243.32L46.9124 240.16H47.9844V249.072C47.9844 249.803 48.1337 250.315 48.4324 250.608C48.7364 250.901 49.187 251.048 49.7844 251.048C49.9444 251.048 50.1097 251.037 50.2804 251.016C50.451 250.989 50.6377 250.955 50.8404 250.912V251.992C50.627 252.045 50.4084 252.085 50.1844 252.112C49.9604 252.139 49.7337 252.152 49.5044 252.152ZM45.0724 244.376V243.32H50.7124V244.376H45.0724ZM54.3288 252.144C53.5128 252.144 52.8701 251.933 52.4008 251.512C51.9368 251.091 51.7048 250.512 51.7048 249.776C51.7048 249.019 51.9528 248.429 52.4488 248.008C52.9501 247.581 53.7528 247.315 54.8568 247.208L57.1848 246.96L57.3048 247.808L54.9368 248.064C54.2488 248.133 53.7528 248.301 53.4488 248.568C53.1501 248.829 53.0008 249.192 53.0008 249.656C53.0008 250.141 53.1394 250.512 53.4168 250.768C53.6941 251.024 54.1074 251.152 54.6568 251.152C55.0354 251.152 55.4168 251.072 55.8008 250.912C56.1848 250.747 56.5288 250.472 56.8328 250.088V246.256C56.8328 245.723 56.7501 245.312 56.5848 245.024C56.4194 244.731 56.1714 244.525 55.8408 244.408C55.5101 244.291 55.0941 244.232 54.5928 244.232C54.2674 244.232 53.8968 244.261 53.4808 244.32C53.0701 244.379 52.6594 244.477 52.2488 244.616V243.568C52.6221 243.445 53.0328 243.352 53.4808 243.288C53.9341 243.219 54.3608 243.184 54.7608 243.184C55.4968 243.184 56.1101 243.28 56.6008 243.472C57.0968 243.664 57.4674 243.989 57.7128 244.448C57.9634 244.901 58.0888 245.523 58.0888 246.312V252H57.0168L56.9208 251.032H56.8408C56.5581 251.389 56.1954 251.664 55.7528 251.856C55.3154 252.048 54.8408 252.144 54.3288 252.144ZM60.4111 252V239.072H61.6911V252H60.4111ZM68.0205 255.52V243.32H69.1085L69.2045 244.272H69.2845C69.5458 243.952 69.8792 243.691 70.2845 243.488C70.6952 243.285 71.1592 243.184 71.6765 243.184C72.3005 243.184 72.8712 243.323 73.3885 243.6C73.9058 243.877 74.3192 244.333 74.6285 244.968C74.9378 245.597 75.0925 246.44 75.0925 247.496C75.0925 248.541 74.9272 249.408 74.5965 250.096C74.2658 250.784 73.7752 251.299 73.1245 251.64C72.4738 251.981 71.6712 252.152 70.7165 252.152C70.4712 252.152 70.2258 252.139 69.9805 252.112C69.7352 252.091 69.5085 252.067 69.3005 252.04V255.52H68.0205ZM70.7325 251.104C71.7458 251.104 72.5085 250.832 73.0205 250.288C73.5325 249.744 73.7885 248.851 73.7885 247.608C73.7885 246.744 73.6845 246.072 73.4765 245.592C73.2685 245.112 72.9832 244.776 72.6205 244.584C72.2578 244.387 71.8472 244.288 71.3885 244.288C70.9992 244.288 70.6178 244.373 70.2445 244.544C69.8712 244.709 69.5565 244.981 69.3005 245.36V250.952C69.4925 250.995 69.7165 251.032 69.9725 251.064C70.2338 251.091 70.4872 251.104 70.7325 251.104ZM80.7546 252.152C79.8533 252.152 79.096 252 78.4826 251.696C77.8746 251.387 77.416 250.904 77.1066 250.248C76.7973 249.587 76.6426 248.723 76.6426 247.656C76.6426 246.637 76.784 245.797 77.0666 245.136C77.3546 244.475 77.76 243.984 78.2826 243.664C78.8106 243.344 79.4346 243.184 80.1546 243.184C80.864 243.184 81.4666 243.347 81.9626 243.672C82.464 243.992 82.8453 244.485 83.1066 245.152C83.368 245.813 83.4986 246.659 83.4986 247.688V248.08H77.3386V247.208H82.5546L82.2746 247.4C82.2746 246.589 82.1893 245.944 82.0186 245.464C81.8533 244.984 81.6106 244.64 81.2906 244.432C80.976 244.219 80.592 244.112 80.1386 244.112C79.6906 244.112 79.3013 244.216 78.9706 244.424C78.64 244.632 78.384 244.976 78.2026 245.456C78.0266 245.936 77.9386 246.584 77.9386 247.4V247.848C77.9386 248.648 78.0453 249.288 78.2586 249.768C78.4773 250.243 78.8053 250.587 79.2426 250.8C79.68 251.008 80.2346 251.112 80.9066 251.112C81.2373 251.112 81.5786 251.083 81.9306 251.024C82.288 250.96 82.6666 250.872 83.0666 250.76V251.808C82.6506 251.925 82.2533 252.011 81.8746 252.064C81.5013 252.123 81.128 252.152 80.7546 252.152ZM85.333 252V243.32H86.413L86.501 244.296H86.589C86.941 243.939 87.3517 243.664 87.821 243.472C88.2903 243.28 88.789 243.184 89.317 243.184C89.861 243.184 90.341 243.285 90.757 243.488C91.1783 243.685 91.5063 244.011 91.741 244.464C91.981 244.912 92.101 245.512 92.101 246.264V252H90.829V246.32C90.829 245.573 90.6637 245.056 90.333 244.768C90.0077 244.475 89.565 244.328 89.005 244.328C88.749 244.328 88.477 244.365 88.189 244.44C87.901 244.515 87.6183 244.637 87.341 244.808C87.069 244.979 86.8263 245.205 86.613 245.488V252H85.333ZM97.3868 252.152C96.7574 252.152 96.1841 252.011 95.6668 251.728C95.1494 251.44 94.7361 250.981 94.4268 250.352C94.1228 249.723 93.9708 248.885 93.9708 247.84C93.9708 246.795 94.1361 245.928 94.4668 245.24C94.8028 244.552 95.2961 244.037 95.9468 243.696C96.5974 243.355 97.3974 243.184 98.3468 243.184C98.5921 243.184 98.8374 243.195 99.0828 243.216C99.3281 243.237 99.5548 243.264 99.7628 243.296V239.072H101.043V252H99.9548L99.8668 251.064H99.7788C99.5228 251.379 99.1894 251.64 98.7788 251.848C98.3734 252.051 97.9094 252.152 97.3868 252.152ZM97.6748 251.048C98.0641 251.048 98.4454 250.963 98.8188 250.792C99.1921 250.621 99.5068 250.349 99.7628 249.976V244.384C99.5708 244.336 99.3468 244.299 99.0908 244.272C98.8348 244.245 98.5814 244.232 98.3308 244.232C97.3228 244.232 96.5601 244.504 96.0428 245.048C95.5308 245.592 95.2747 246.485 95.2747 247.728C95.2747 248.581 95.3761 249.251 95.5788 249.736C95.7868 250.216 96.0694 250.555 96.4268 250.752C96.7894 250.949 97.2054 251.048 97.6748 251.048ZM107.114 252.152C106.213 252.152 105.455 252 104.842 251.696C104.234 251.387 103.775 250.904 103.466 250.248C103.157 249.587 103.002 248.723 103.002 247.656C103.002 246.637 103.143 245.797 103.426 245.136C103.714 244.475 104.119 243.984 104.642 243.664C105.17 243.344 105.794 243.184 106.514 243.184C107.223 243.184 107.826 243.347 108.322 243.672C108.823 243.992 109.205 244.485 109.466 245.152C109.727 245.813 109.858 246.659 109.858 247.688V248.08H103.698V247.208H108.914L108.634 247.4C108.634 246.589 108.549 245.944 108.378 245.464C108.213 244.984 107.97 244.64 107.65 244.432C107.335 244.219 106.951 244.112 106.498 244.112C106.05 244.112 105.661 244.216 105.33 244.424C104.999 244.632 104.743 244.976 104.562 245.456C104.386 245.936 104.298 246.584 104.298 247.4V247.848C104.298 248.648 104.405 249.288 104.618 249.768C104.837 250.243 105.165 250.587 105.602 250.8C106.039 251.008 106.594 251.112 107.266 251.112C107.597 251.112 107.938 251.083 108.29 251.024C108.647 250.96 109.026 250.872 109.426 250.76V251.808C109.01 251.925 108.613 252.011 108.234 252.064C107.861 252.123 107.487 252.152 107.114 252.152ZM111.692 252V243.32H112.772L112.86 244.296H112.948C113.3 243.939 113.711 243.664 114.18 243.472C114.65 243.28 115.148 243.184 115.676 243.184C116.22 243.184 116.7 243.285 117.116 243.488C117.538 243.685 117.866 244.011 118.1 244.464C118.34 244.912 118.46 245.512 118.46 246.264V252H117.188V246.32C117.188 245.573 117.023 245.056 116.692 244.768C116.367 244.475 115.924 244.328 115.364 244.328C115.108 244.328 114.836 244.365 114.548 244.44C114.26 244.515 113.978 244.637 113.7 244.808C113.428 244.979 113.186 245.205 112.972 245.488V252H111.692ZM124.098 252.152C123.213 252.152 122.525 251.925 122.034 251.472C121.543 251.013 121.298 250.283 121.298 249.28V243.32L121.506 240.16H122.578V249.072C122.578 249.803 122.727 250.315 123.026 250.608C123.33 250.901 123.781 251.048 124.378 251.048C124.538 251.048 124.703 251.037 124.874 251.016C125.045 250.989 125.231 250.955 125.434 250.912V251.992C125.221 252.045 125.002 252.085 124.778 252.112C124.554 252.139 124.327 252.152 124.098 252.152ZM119.666 244.376V243.32H125.306V244.376H119.666ZM130.333 252.152C129.431 252.152 128.674 252 128.061 251.696C127.453 251.387 126.994 250.904 126.685 250.248C126.375 249.587 126.221 248.723 126.221 247.656C126.221 246.637 126.362 245.797 126.645 245.136C126.933 244.475 127.338 243.984 127.861 243.664C128.389 243.344 129.013 243.184 129.733 243.184C130.442 243.184 131.045 243.347 131.541 243.672C132.042 243.992 132.423 244.485 132.685 245.152C132.946 245.813 133.077 246.659 133.077 247.688V248.08H126.917V247.208H132.133L131.853 247.4C131.853 246.589 131.767 245.944 131.597 245.464C131.431 244.984 131.189 244.64 130.869 244.432C130.554 244.219 130.17 244.112 129.717 244.112C129.269 244.112 128.879 244.216 128.549 244.424C128.218 244.632 127.962 244.976 127.781 245.456C127.605 245.936 127.517 246.584 127.517 247.4V247.848C127.517 248.648 127.623 249.288 127.837 249.768C128.055 250.243 128.383 250.587 128.821 250.8C129.258 251.008 129.813 251.112 130.485 251.112C130.815 251.112 131.157 251.083 131.509 251.024C131.866 250.96 132.245 250.872 132.645 250.76V251.808C132.229 251.925 131.831 252.011 131.453 252.064C131.079 252.123 130.706 252.152 130.333 252.152ZM136.983 252.152C136.546 252.152 136.127 252.123 135.727 252.064C135.332 252.005 134.948 251.917 134.575 251.8V250.776C135.002 250.904 135.41 250.997 135.799 251.056C136.188 251.109 136.583 251.136 136.983 251.136C137.735 251.136 138.279 251.008 138.615 250.752C138.956 250.496 139.127 250.136 139.127 249.672C139.127 249.277 139.026 248.976 138.823 248.768C138.62 248.555 138.276 248.397 137.791 248.296L136.615 248.056C135.826 247.885 135.26 247.605 134.919 247.216C134.583 246.821 134.415 246.315 134.415 245.696C134.415 244.965 134.695 244.365 135.255 243.896C135.82 243.421 136.687 243.184 137.855 243.184C138.228 243.184 138.583 243.205 138.919 243.248C139.26 243.291 139.588 243.355 139.903 243.44V244.472C139.551 244.376 139.212 244.307 138.887 244.264C138.567 244.221 138.231 244.2 137.879 244.2C137.33 244.2 136.89 244.267 136.559 244.4C136.234 244.528 135.999 244.704 135.855 244.928C135.711 245.147 135.639 245.392 135.639 245.664C135.639 246.005 135.735 246.288 135.927 246.512C136.119 246.736 136.455 246.901 136.935 247.008L138.111 247.248C138.911 247.413 139.484 247.685 139.831 248.064C140.183 248.443 140.359 248.957 140.359 249.608C140.359 250.392 140.071 251.013 139.495 251.472C138.924 251.925 138.087 252.152 136.983 252.152Z" fill="#1A1919"/>
<path d="M188.48 252V251.288L191.872 246.776C192.256 246.264 192.563 245.808 192.792 245.408C193.027 245.003 193.195 244.629 193.296 244.288C193.397 243.947 193.448 243.608 193.448 243.272C193.448 242.504 193.237 241.952 192.816 241.616C192.395 241.28 191.76 241.112 190.912 241.112C190.448 241.112 190 241.152 189.568 241.232C189.141 241.312 188.733 241.429 188.344 241.584V240.464C188.573 240.373 188.832 240.293 189.12 240.224C189.413 240.155 189.723 240.101 190.048 240.064C190.373 240.027 190.696 240.008 191.016 240.008C192.211 240.008 193.131 240.261 193.776 240.768C194.421 241.269 194.744 242.069 194.744 243.168C194.744 243.589 194.685 244.005 194.568 244.416C194.456 244.821 194.269 245.256 194.008 245.72C193.747 246.179 193.392 246.699 192.944 247.28L189.936 251.248L189.832 250.888H195.384V252H188.48ZM200.925 252.152C200.312 252.152 199.752 252.051 199.245 251.848C198.744 251.64 198.309 251.312 197.941 250.864C197.578 250.416 197.298 249.829 197.101 249.104C196.904 248.379 196.805 247.499 196.805 246.464C196.805 244.976 196.997 243.757 197.381 242.808C197.77 241.853 198.338 241.149 199.085 240.696C199.832 240.237 200.741 240.008 201.813 240.008C202.197 240.008 202.573 240.035 202.941 240.088C203.314 240.141 203.658 240.232 203.973 240.36V241.432C203.653 241.309 203.309 241.219 202.941 241.16C202.573 241.101 202.213 241.072 201.861 241.072C201.029 241.072 200.333 241.248 199.773 241.6C199.213 241.947 198.792 242.493 198.509 243.24C198.226 243.987 198.085 244.957 198.085 246.152V246.608C198.085 247.472 198.152 248.195 198.285 248.776C198.418 249.357 198.61 249.821 198.861 250.168C199.112 250.509 199.413 250.755 199.765 250.904C200.117 251.053 200.506 251.128 200.933 251.128C201.386 251.128 201.792 251.043 202.149 250.872C202.506 250.701 202.786 250.437 202.989 250.08C203.197 249.717 203.301 249.253 203.301 248.688C203.301 248.112 203.192 247.643 202.973 247.28C202.76 246.912 202.453 246.643 202.053 246.472C201.658 246.301 201.194 246.216 200.661 246.216C200.336 246.216 199.997 246.256 199.645 246.336C199.298 246.416 198.965 246.544 198.645 246.72C198.325 246.891 198.05 247.117 197.821 247.4V246.312C198.157 245.96 198.6 245.685 199.149 245.488C199.704 245.291 200.277 245.192 200.869 245.192C201.584 245.192 202.216 245.317 202.765 245.568C203.314 245.819 203.744 246.2 204.053 246.712C204.368 247.219 204.525 247.864 204.525 248.648C204.525 249.411 204.37 250.053 204.061 250.576C203.757 251.099 203.333 251.493 202.789 251.76C202.25 252.021 201.629 252.152 200.925 252.152ZM209.224 252L214.424 240.16H215.544L210.352 252H209.224ZM208.552 247.4C208.019 247.4 207.547 247.275 207.136 247.024C206.731 246.773 206.411 246.379 206.176 245.84C205.947 245.296 205.832 244.584 205.832 243.704C205.832 242.829 205.947 242.12 206.176 241.576C206.405 241.032 206.723 240.635 207.128 240.384C207.539 240.133 208.013 240.008 208.552 240.008C209.091 240.008 209.565 240.133 209.976 240.384C210.387 240.635 210.707 241.032 210.936 241.576C211.165 242.12 211.28 242.829 211.28 243.704C211.28 244.584 211.163 245.296 210.928 245.84C210.699 246.379 210.379 246.773 209.968 247.024C209.557 247.275 209.085 247.4 208.552 247.4ZM208.552 246.496C208.877 246.496 209.163 246.411 209.408 246.24C209.659 246.069 209.853 245.781 209.992 245.376C210.131 244.971 210.2 244.419 210.2 243.72C210.2 243.016 210.131 242.461 209.992 242.056C209.853 241.645 209.659 241.355 209.408 241.184C209.163 241.008 208.877 240.92 208.552 240.92C208.227 240.92 207.941 241.005 207.696 241.176C207.451 241.347 207.259 241.635 207.12 242.04C206.981 242.445 206.912 242.997 206.912 243.696C206.912 244.395 206.981 244.949 207.12 245.36C207.259 245.765 207.451 246.056 207.696 246.232C207.941 246.408 208.227 246.496 208.552 246.496ZM216.216 252.144C215.683 252.144 215.211 252.019 214.8 251.768C214.389 251.517 214.069 251.123 213.84 250.584C213.611 250.04 213.496 249.328 213.496 248.448C213.496 247.568 213.611 246.859 213.84 246.32C214.069 245.776 214.387 245.379 214.792 245.128C215.203 244.877 215.677 244.752 216.216 244.752C216.755 244.752 217.227 244.877 217.632 245.128C218.043 245.379 218.363 245.776 218.592 246.32C218.821 246.859 218.936 247.568 218.936 248.448C218.936 249.328 218.821 250.04 218.592 250.584C218.363 251.123 218.043 251.517 217.632 251.768C217.221 252.019 216.749 252.144 216.216 252.144ZM216.216 251.24C216.541 251.24 216.827 251.155 217.072 250.984C217.317 250.813 217.509 250.525 217.648 250.12C217.792 249.715 217.864 249.163 217.864 248.464C217.864 247.76 217.792 247.203 217.648 246.792C217.509 246.381 217.317 246.091 217.072 245.92C216.827 245.749 216.541 245.664 216.216 245.664C215.891 245.664 215.605 245.749 215.36 245.92C215.115 246.091 214.92 246.379 214.776 246.784C214.637 247.189 214.568 247.741 214.568 248.44C214.568 249.139 214.637 249.693 214.776 250.104C214.92 250.509 215.115 250.8 215.36 250.976C215.605 251.152 215.891 251.24 216.216 251.24Z" fill="#1A1919"/>
<path d="M233.522 240.818V247.923L236.172 245.263L237.335 246.416L232.682 251.06L228.038 246.416L229.182 245.263L231.842 247.923V240.818H233.522Z" fill="#FF2727"/>
</svg>
