<svg width="743" height="184" viewBox="0 0 743 184" fill="none" xmlns="http://www.w3.org/2000/svg">
<path d="M9.014 13V4.264C9.242 4.22 9.478 4.18 9.722 4.144C9.97 4.108 10.232 4.08 10.508 4.06C10.784 4.036 11.076 4.024 11.384 4.024C12.552 4.024 13.422 4.238 13.994 4.666C14.566 5.09 14.852 5.754 14.852 6.658C14.852 7.25 14.712 7.744 14.432 8.14C14.156 8.536 13.748 8.834 13.208 9.034C12.668 9.234 12 9.334 11.204 9.334C10.96 9.334 10.744 9.33 10.556 9.322C10.368 9.31 10.174 9.296 9.974 9.28V13H9.014ZM14.426 13L11.294 8.824H12.38L15.536 13H14.426ZM11.21 8.554C12.162 8.554 12.852 8.4 13.28 8.092C13.708 7.784 13.922 7.31 13.922 6.67C13.922 6.226 13.836 5.868 13.664 5.596C13.492 5.32 13.222 5.12 12.854 4.996C12.49 4.868 12.018 4.804 11.438 4.804C11.138 4.804 10.876 4.816 10.652 4.84C10.428 4.86 10.202 4.89 9.974 4.93V8.494C10.13 8.51 10.27 8.522 10.394 8.53C10.518 8.538 10.644 8.544 10.772 8.548C10.9 8.552 11.046 8.554 11.21 8.554ZM18.3946 13.114C18.0506 13.114 17.6886 13.084 17.3086 13.024C16.9286 12.964 16.5666 12.876 16.2226 12.76V11.926C16.4706 12.006 16.7206 12.074 16.9726 12.13C17.2286 12.182 17.4766 12.222 17.7166 12.25C17.9566 12.274 18.1846 12.286 18.4006 12.286C18.8966 12.286 19.3066 12.224 19.6306 12.1C19.9546 11.976 20.1946 11.794 20.3506 11.554C20.5066 11.31 20.5846 11.01 20.5846 10.654C20.5846 10.202 20.4506 9.858 20.1826 9.622C19.9186 9.382 19.4666 9.178 18.8266 9.01L18.3466 8.884C17.5906 8.692 17.0246 8.402 16.6486 8.014C16.2726 7.622 16.0846 7.106 16.0846 6.466C16.0846 5.702 16.3506 5.102 16.8826 4.666C17.4146 4.226 18.2106 4.006 19.2706 4.006C19.6026 4.006 19.9346 4.03 20.2666 4.078C20.6026 4.122 20.9086 4.186 21.1846 4.27V5.11C20.8806 5.014 20.5686 4.944 20.2486 4.9C19.9286 4.856 19.6126 4.834 19.3006 4.834C18.7846 4.834 18.3606 4.896 18.0286 5.02C17.7006 5.144 17.4586 5.324 17.3026 5.56C17.1466 5.796 17.0686 6.08 17.0686 6.412C17.0686 6.848 17.1906 7.186 17.4346 7.426C17.6786 7.666 18.1006 7.866 18.7006 8.026L19.1866 8.146C19.7306 8.286 20.1786 8.466 20.5306 8.686C20.8826 8.902 21.1446 9.168 21.3166 9.484C21.4886 9.796 21.5746 10.166 21.5746 10.594C21.5746 11.13 21.4506 11.586 21.2026 11.962C20.9546 12.334 20.5926 12.62 20.1166 12.82C19.6446 13.016 19.0706 13.114 18.3946 13.114ZM18.3826 14.44V12.874L19.2826 12.832V14.44H18.3826ZM18.3826 4.21V2.68H19.2826V4.21H18.3826ZM24.4696 13.114C24.0976 13.114 23.7296 13.084 23.3656 13.024C23.0016 12.968 22.6556 12.884 22.3276 12.772V11.98C22.6716 12.092 23.0256 12.178 23.3896 12.238C23.7576 12.298 24.1096 12.328 24.4456 12.328C25.2056 12.328 25.7736 12.178 26.1496 11.878C26.5296 11.574 26.7196 11.134 26.7196 10.558C26.7196 10.018 26.5416 9.598 26.1856 9.298C25.8336 8.994 25.2716 8.842 24.4996 8.842H23.4376V8.05H24.0196C24.8156 8.05 25.4136 7.9 25.8136 7.6C26.2176 7.3 26.4196 6.874 26.4196 6.322C26.4196 5.826 26.2556 5.448 25.9276 5.188C25.6036 4.924 25.1216 4.792 24.4816 4.792C24.1536 4.792 23.8256 4.82 23.4976 4.876C23.1696 4.928 22.8496 5.012 22.5376 5.128V4.336C22.7216 4.268 22.9256 4.21 23.1496 4.162C23.3736 4.11 23.6056 4.072 23.8456 4.048C24.0856 4.02 24.3236 4.006 24.5596 4.006C25.4756 4.006 26.1716 4.204 26.6476 4.6C27.1276 4.992 27.3676 5.546 27.3676 6.262C27.3676 6.834 27.1936 7.314 26.8456 7.702C26.5016 8.086 26.0256 8.34 25.4176 8.464L25.4236 8.332C26.1476 8.424 26.7016 8.666 27.0856 9.058C27.4696 9.446 27.6616 9.96 27.6616 10.6C27.6616 11.128 27.5416 11.58 27.3016 11.956C27.0616 12.328 26.7056 12.614 26.2336 12.814C25.7616 13.014 25.1736 13.114 24.4696 13.114ZM31.8885 13.114C31.2685 13.114 30.7285 12.964 30.2685 12.664C29.8125 12.364 29.4585 11.88 29.2065 11.212C28.9585 10.544 28.8345 9.66 28.8345 8.56C28.8345 7.46 28.9585 6.576 29.2065 5.908C29.4545 5.24 29.8065 4.756 30.2625 4.456C30.7185 4.156 31.2605 4.006 31.8885 4.006C32.5205 4.006 33.0645 4.156 33.5205 4.456C33.9765 4.756 34.3285 5.24 34.5765 5.908C34.8245 6.576 34.9485 7.46 34.9485 8.56C34.9485 9.66 34.8225 10.544 34.5705 11.212C34.3225 11.88 33.9685 12.364 33.5085 12.664C33.0525 12.964 32.5125 13.114 31.8885 13.114ZM31.8945 12.274C32.3145 12.274 32.6805 12.164 32.9925 11.944C33.3045 11.724 33.5445 11.346 33.7125 10.81C33.8845 10.27 33.9705 9.526 33.9705 8.578C33.9705 7.618 33.8845 6.868 33.7125 6.328C33.5445 5.784 33.3045 5.402 32.9925 5.182C32.6805 4.958 32.3145 4.846 31.8945 4.846C31.4705 4.846 31.1025 4.956 30.7905 5.176C30.4785 5.396 30.2365 5.776 30.0645 6.316C29.8965 6.852 29.8125 7.594 29.8125 8.542C29.8125 9.502 29.8965 10.254 30.0645 10.798C30.2365 11.338 30.4785 11.72 30.7905 11.944C31.1025 12.164 31.4705 12.274 31.8945 12.274ZM39.3768 13.114C38.7568 13.114 38.2168 12.964 37.7568 12.664C37.3008 12.364 36.9468 11.88 36.6948 11.212C36.4468 10.544 36.3228 9.66 36.3228 8.56C36.3228 7.46 36.4468 6.576 36.6948 5.908C36.9428 5.24 37.2948 4.756 37.7508 4.456C38.2068 4.156 38.7488 4.006 39.3768 4.006C40.0088 4.006 40.5528 4.156 41.0088 4.456C41.4648 4.756 41.8168 5.24 42.0648 5.908C42.3128 6.576 42.4368 7.46 42.4368 8.56C42.4368 9.66 42.3108 10.544 42.0588 11.212C41.8108 11.88 41.4568 12.364 40.9968 12.664C40.5408 12.964 40.0008 13.114 39.3768 13.114ZM39.3828 12.274C39.8028 12.274 40.1688 12.164 40.4808 11.944C40.7928 11.724 41.0328 11.346 41.2008 10.81C41.3728 10.27 41.4588 9.526 41.4588 8.578C41.4588 7.618 41.3728 6.868 41.2008 6.328C41.0328 5.784 40.7928 5.402 40.4808 5.182C40.1688 4.958 39.8028 4.846 39.3828 4.846C38.9588 4.846 38.5908 4.956 38.2788 5.176C37.9668 5.396 37.7248 5.776 37.5528 6.316C37.3848 6.852 37.3008 7.594 37.3008 8.542C37.3008 9.502 37.3848 10.254 37.5528 10.798C37.7248 11.338 37.9668 11.72 38.2788 11.944C38.5908 12.164 38.9588 12.274 39.3828 12.274ZM48.3951 13L45.7791 9.664L48.2151 6.49H49.2831L46.7811 9.784V9.52L49.4811 13H48.3951ZM44.8671 10.066V9.262H46.1931V10.066H44.8671ZM44.0271 13V3.304H44.9871V13H44.0271Z" fill="#525256"/>
<path d="M9.014 59V50.264C9.242 50.22 9.478 50.18 9.722 50.144C9.97 50.108 10.232 50.08 10.508 50.06C10.784 50.036 11.076 50.024 11.384 50.024C12.552 50.024 13.422 50.238 13.994 50.666C14.566 51.09 14.852 51.754 14.852 52.658C14.852 53.25 14.712 53.744 14.432 54.14C14.156 54.536 13.748 54.834 13.208 55.034C12.668 55.234 12 55.334 11.204 55.334C10.96 55.334 10.744 55.33 10.556 55.322C10.368 55.31 10.174 55.296 9.974 55.28V59H9.014ZM14.426 59L11.294 54.824H12.38L15.536 59H14.426ZM11.21 54.554C12.162 54.554 12.852 54.4 13.28 54.092C13.708 53.784 13.922 53.31 13.922 52.67C13.922 52.226 13.836 51.868 13.664 51.596C13.492 51.32 13.222 51.12 12.854 50.996C12.49 50.868 12.018 50.804 11.438 50.804C11.138 50.804 10.876 50.816 10.652 50.84C10.428 50.86 10.202 50.89 9.974 50.93V54.494C10.13 54.51 10.27 54.522 10.394 54.53C10.518 54.538 10.644 54.544 10.772 54.548C10.9 54.552 11.046 54.554 11.21 54.554ZM18.3946 59.114C18.0506 59.114 17.6886 59.084 17.3086 59.024C16.9286 58.964 16.5666 58.876 16.2226 58.76V57.926C16.4706 58.006 16.7206 58.074 16.9726 58.13C17.2286 58.182 17.4766 58.222 17.7166 58.25C17.9566 58.274 18.1846 58.286 18.4006 58.286C18.8966 58.286 19.3066 58.224 19.6306 58.1C19.9546 57.976 20.1946 57.794 20.3506 57.554C20.5066 57.31 20.5846 57.01 20.5846 56.654C20.5846 56.202 20.4506 55.858 20.1826 55.622C19.9186 55.382 19.4666 55.178 18.8266 55.01L18.3466 54.884C17.5906 54.692 17.0246 54.402 16.6486 54.014C16.2726 53.622 16.0846 53.106 16.0846 52.466C16.0846 51.702 16.3506 51.102 16.8826 50.666C17.4146 50.226 18.2106 50.006 19.2706 50.006C19.6026 50.006 19.9346 50.03 20.2666 50.078C20.6026 50.122 20.9086 50.186 21.1846 50.27V51.11C20.8806 51.014 20.5686 50.944 20.2486 50.9C19.9286 50.856 19.6126 50.834 19.3006 50.834C18.7846 50.834 18.3606 50.896 18.0286 51.02C17.7006 51.144 17.4586 51.324 17.3026 51.56C17.1466 51.796 17.0686 52.08 17.0686 52.412C17.0686 52.848 17.1906 53.186 17.4346 53.426C17.6786 53.666 18.1006 53.866 18.7006 54.026L19.1866 54.146C19.7306 54.286 20.1786 54.466 20.5306 54.686C20.8826 54.902 21.1446 55.168 21.3166 55.484C21.4886 55.796 21.5746 56.166 21.5746 56.594C21.5746 57.13 21.4506 57.586 21.2026 57.962C20.9546 58.334 20.5926 58.62 20.1166 58.82C19.6446 59.016 19.0706 59.114 18.3946 59.114ZM18.3826 60.44V58.874L19.2826 58.832V60.44H18.3826ZM18.3826 50.21V48.68H19.2826V50.21H18.3826ZM22.3756 59V58.466L24.9196 55.082C25.2076 54.698 25.4376 54.356 25.6096 54.056C25.7856 53.752 25.9116 53.472 25.9876 53.216C26.0636 52.96 26.1016 52.706 26.1016 52.454C26.1016 51.878 25.9436 51.464 25.6276 51.212C25.3116 50.96 24.8356 50.834 24.1996 50.834C23.8516 50.834 23.5156 50.864 23.1916 50.924C22.8716 50.984 22.5656 51.072 22.2736 51.188V50.348C22.4456 50.28 22.6396 50.22 22.8556 50.168C23.0756 50.116 23.3076 50.076 23.5516 50.048C23.7956 50.02 24.0376 50.006 24.2776 50.006C25.1736 50.006 25.8636 50.196 26.3476 50.576C26.8316 50.952 27.0736 51.552 27.0736 52.376C27.0736 52.692 27.0296 53.004 26.9416 53.312C26.8576 53.616 26.7176 53.942 26.5216 54.29C26.3256 54.634 26.0596 55.024 25.7236 55.46L23.4676 58.436L23.3896 58.166H27.5536V59H22.3756ZM31.6073 59.114C30.9873 59.114 30.4473 58.964 29.9873 58.664C29.5313 58.364 29.1773 57.88 28.9253 57.212C28.6773 56.544 28.5533 55.66 28.5533 54.56C28.5533 53.46 28.6773 52.576 28.9253 51.908C29.1733 51.24 29.5253 50.756 29.9813 50.456C30.4373 50.156 30.9793 50.006 31.6073 50.006C32.2393 50.006 32.7833 50.156 33.2393 50.456C33.6953 50.756 34.0473 51.24 34.2953 51.908C34.5433 52.576 34.6673 53.46 34.6673 54.56C34.6673 55.66 34.5413 56.544 34.2893 57.212C34.0413 57.88 33.6873 58.364 33.2273 58.664C32.7713 58.964 32.2313 59.114 31.6073 59.114ZM31.6133 58.274C32.0333 58.274 32.3993 58.164 32.7113 57.944C33.0233 57.724 33.2633 57.346 33.4313 56.81C33.6033 56.27 33.6893 55.526 33.6893 54.578C33.6893 53.618 33.6033 52.868 33.4313 52.328C33.2633 51.784 33.0233 51.402 32.7113 51.182C32.3993 50.958 32.0333 50.846 31.6133 50.846C31.1893 50.846 30.8213 50.956 30.5093 51.176C30.1973 51.396 29.9553 51.776 29.7833 52.316C29.6153 52.852 29.5313 53.594 29.5313 54.542C29.5313 55.502 29.6153 56.254 29.7833 56.798C29.9553 57.338 30.1973 57.72 30.5093 57.944C30.8213 58.164 31.1893 58.274 31.6133 58.274ZM39.0956 59.114C38.4756 59.114 37.9356 58.964 37.4756 58.664C37.0196 58.364 36.6656 57.88 36.4136 57.212C36.1656 56.544 36.0416 55.66 36.0416 54.56C36.0416 53.46 36.1656 52.576 36.4136 51.908C36.6616 51.24 37.0136 50.756 37.4696 50.456C37.9256 50.156 38.4676 50.006 39.0956 50.006C39.7276 50.006 40.2716 50.156 40.7276 50.456C41.1836 50.756 41.5356 51.24 41.7836 51.908C42.0316 52.576 42.1556 53.46 42.1556 54.56C42.1556 55.66 42.0296 56.544 41.7776 57.212C41.5296 57.88 41.1756 58.364 40.7156 58.664C40.2596 58.964 39.7196 59.114 39.0956 59.114ZM39.1016 58.274C39.5216 58.274 39.8876 58.164 40.1996 57.944C40.5116 57.724 40.7516 57.346 40.9196 56.81C41.0916 56.27 41.1776 55.526 41.1776 54.578C41.1776 53.618 41.0916 52.868 40.9196 52.328C40.7516 51.784 40.5116 51.402 40.1996 51.182C39.8876 50.958 39.5216 50.846 39.1016 50.846C38.6776 50.846 38.3096 50.956 37.9976 51.176C37.6856 51.396 37.4436 51.776 37.2716 52.316C37.1036 52.852 37.0196 53.594 37.0196 54.542C37.0196 55.502 37.1036 56.254 37.2716 56.798C37.4436 57.338 37.6856 57.72 37.9976 57.944C38.3096 58.164 38.6776 58.274 39.1016 58.274ZM48.1138 59L45.4978 55.664L47.9338 52.49H49.0018L46.4998 55.784V55.52L49.1998 59H48.1138ZM44.5858 56.066V55.262H45.9118V56.066H44.5858ZM43.7458 59V49.304H44.7058V59H43.7458Z" fill="#525256"/>
<path d="M9.014 105V96.264C9.242 96.22 9.478 96.18 9.722 96.144C9.97 96.108 10.232 96.08 10.508 96.06C10.784 96.036 11.076 96.024 11.384 96.024C12.552 96.024 13.422 96.238 13.994 96.666C14.566 97.09 14.852 97.754 14.852 98.658C14.852 99.25 14.712 99.744 14.432 100.14C14.156 100.536 13.748 100.834 13.208 101.034C12.668 101.234 12 101.334 11.204 101.334C10.96 101.334 10.744 101.33 10.556 101.322C10.368 101.31 10.174 101.296 9.974 101.28V105H9.014ZM14.426 105L11.294 100.824H12.38L15.536 105H14.426ZM11.21 100.554C12.162 100.554 12.852 100.4 13.28 100.092C13.708 99.784 13.922 99.31 13.922 98.67C13.922 98.226 13.836 97.868 13.664 97.596C13.492 97.32 13.222 97.12 12.854 96.996C12.49 96.868 12.018 96.804 11.438 96.804C11.138 96.804 10.876 96.816 10.652 96.84C10.428 96.86 10.202 96.89 9.974 96.93V100.494C10.13 100.51 10.27 100.522 10.394 100.53C10.518 100.538 10.644 100.544 10.772 100.548C10.9 100.552 11.046 100.554 11.21 100.554ZM18.3946 105.114C18.0506 105.114 17.6886 105.084 17.3086 105.024C16.9286 104.964 16.5666 104.876 16.2226 104.76V103.926C16.4706 104.006 16.7206 104.074 16.9726 104.13C17.2286 104.182 17.4766 104.222 17.7166 104.25C17.9566 104.274 18.1846 104.286 18.4006 104.286C18.8966 104.286 19.3066 104.224 19.6306 104.1C19.9546 103.976 20.1946 103.794 20.3506 103.554C20.5066 103.31 20.5846 103.01 20.5846 102.654C20.5846 102.202 20.4506 101.858 20.1826 101.622C19.9186 101.382 19.4666 101.178 18.8266 101.01L18.3466 100.884C17.5906 100.692 17.0246 100.402 16.6486 100.014C16.2726 99.622 16.0846 99.106 16.0846 98.466C16.0846 97.702 16.3506 97.102 16.8826 96.666C17.4146 96.226 18.2106 96.006 19.2706 96.006C19.6026 96.006 19.9346 96.03 20.2666 96.078C20.6026 96.122 20.9086 96.186 21.1846 96.27V97.11C20.8806 97.014 20.5686 96.944 20.2486 96.9C19.9286 96.856 19.6126 96.834 19.3006 96.834C18.7846 96.834 18.3606 96.896 18.0286 97.02C17.7006 97.144 17.4586 97.324 17.3026 97.56C17.1466 97.796 17.0686 98.08 17.0686 98.412C17.0686 98.848 17.1906 99.186 17.4346 99.426C17.6786 99.666 18.1006 99.866 18.7006 100.026L19.1866 100.146C19.7306 100.286 20.1786 100.466 20.5306 100.686C20.8826 100.902 21.1446 101.168 21.3166 101.484C21.4886 101.796 21.5746 102.166 21.5746 102.594C21.5746 103.13 21.4506 103.586 21.2026 103.962C20.9546 104.334 20.5926 104.62 20.1166 104.82C19.6446 105.016 19.0706 105.114 18.3946 105.114ZM18.3826 106.44V104.874L19.2826 104.832V106.44H18.3826ZM18.3826 96.21V94.68H19.2826V96.21H18.3826ZM24.3556 105V96.834L24.7096 97.062L22.1656 98.886V97.926L24.7096 96.09H25.3276V105H24.3556ZM30.1424 105.114C29.5224 105.114 28.9824 104.964 28.5224 104.664C28.0664 104.364 27.7124 103.88 27.4604 103.212C27.2124 102.544 27.0884 101.66 27.0884 100.56C27.0884 99.46 27.2124 98.576 27.4604 97.908C27.7084 97.24 28.0604 96.756 28.5164 96.456C28.9724 96.156 29.5144 96.006 30.1424 96.006C30.7744 96.006 31.3184 96.156 31.7744 96.456C32.2304 96.756 32.5824 97.24 32.8304 97.908C33.0784 98.576 33.2024 99.46 33.2024 100.56C33.2024 101.66 33.0764 102.544 32.8244 103.212C32.5764 103.88 32.2224 104.364 31.7624 104.664C31.3064 104.964 30.7664 105.114 30.1424 105.114ZM30.1484 104.274C30.5684 104.274 30.9344 104.164 31.2464 103.944C31.5584 103.724 31.7984 103.346 31.9664 102.81C32.1384 102.27 32.2244 101.526 32.2244 100.578C32.2244 99.618 32.1384 98.868 31.9664 98.328C31.7984 97.784 31.5584 97.402 31.2464 97.182C30.9344 96.958 30.5684 96.846 30.1484 96.846C29.7244 96.846 29.3564 96.956 29.0444 97.176C28.7324 97.396 28.4904 97.776 28.3184 98.316C28.1504 98.852 28.0664 99.594 28.0664 100.542C28.0664 101.502 28.1504 102.254 28.3184 102.798C28.4904 103.338 28.7324 103.72 29.0444 103.944C29.3564 104.164 29.7244 104.274 30.1484 104.274ZM37.6307 105.114C37.0107 105.114 36.4707 104.964 36.0107 104.664C35.5547 104.364 35.2007 103.88 34.9487 103.212C34.7007 102.544 34.5767 101.66 34.5767 100.56C34.5767 99.46 34.7007 98.576 34.9487 97.908C35.1967 97.24 35.5487 96.756 36.0047 96.456C36.4607 96.156 37.0027 96.006 37.6307 96.006C38.2627 96.006 38.8067 96.156 39.2627 96.456C39.7187 96.756 40.0707 97.24 40.3187 97.908C40.5667 98.576 40.6907 99.46 40.6907 100.56C40.6907 101.66 40.5647 102.544 40.3127 103.212C40.0647 103.88 39.7107 104.364 39.2507 104.664C38.7947 104.964 38.2547 105.114 37.6307 105.114ZM37.6367 104.274C38.0567 104.274 38.4227 104.164 38.7347 103.944C39.0467 103.724 39.2867 103.346 39.4547 102.81C39.6267 102.27 39.7127 101.526 39.7127 100.578C39.7127 99.618 39.6267 98.868 39.4547 98.328C39.2867 97.784 39.0467 97.402 38.7347 97.182C38.4227 96.958 38.0567 96.846 37.6367 96.846C37.2127 96.846 36.8447 96.956 36.5327 97.176C36.2207 97.396 35.9787 97.776 35.8067 98.316C35.6387 98.852 35.5547 99.594 35.5547 100.542C35.5547 101.502 35.6387 102.254 35.8067 102.798C35.9787 103.338 36.2207 103.72 36.5327 103.944C36.8447 104.164 37.2127 104.274 37.6367 104.274ZM46.649 105L44.033 101.664L46.469 98.49H47.537L45.035 101.784V101.52L47.735 105H46.649ZM43.121 102.066V101.262H44.447V102.066H43.121ZM42.281 105V95.304H43.241V105H42.281Z" fill="#525256"/>
<path d="M9.014 151V142.264C9.242 142.22 9.478 142.18 9.722 142.144C9.97 142.108 10.232 142.08 10.508 142.06C10.784 142.036 11.076 142.024 11.384 142.024C12.552 142.024 13.422 142.238 13.994 142.666C14.566 143.09 14.852 143.754 14.852 144.658C14.852 145.25 14.712 145.744 14.432 146.14C14.156 146.536 13.748 146.834 13.208 147.034C12.668 147.234 12 147.334 11.204 147.334C10.96 147.334 10.744 147.33 10.556 147.322C10.368 147.31 10.174 147.296 9.974 147.28V151H9.014ZM14.426 151L11.294 146.824H12.38L15.536 151H14.426ZM11.21 146.554C12.162 146.554 12.852 146.4 13.28 146.092C13.708 145.784 13.922 145.31 13.922 144.67C13.922 144.226 13.836 143.868 13.664 143.596C13.492 143.32 13.222 143.12 12.854 142.996C12.49 142.868 12.018 142.804 11.438 142.804C11.138 142.804 10.876 142.816 10.652 142.84C10.428 142.86 10.202 142.89 9.974 142.93V146.494C10.13 146.51 10.27 146.522 10.394 146.53C10.518 146.538 10.644 146.544 10.772 146.548C10.9 146.552 11.046 146.554 11.21 146.554ZM18.3946 151.114C18.0506 151.114 17.6886 151.084 17.3086 151.024C16.9286 150.964 16.5666 150.876 16.2226 150.76V149.926C16.4706 150.006 16.7206 150.074 16.9726 150.13C17.2286 150.182 17.4766 150.222 17.7166 150.25C17.9566 150.274 18.1846 150.286 18.4006 150.286C18.8966 150.286 19.3066 150.224 19.6306 150.1C19.9546 149.976 20.1946 149.794 20.3506 149.554C20.5066 149.31 20.5846 149.01 20.5846 148.654C20.5846 148.202 20.4506 147.858 20.1826 147.622C19.9186 147.382 19.4666 147.178 18.8266 147.01L18.3466 146.884C17.5906 146.692 17.0246 146.402 16.6486 146.014C16.2726 145.622 16.0846 145.106 16.0846 144.466C16.0846 143.702 16.3506 143.102 16.8826 142.666C17.4146 142.226 18.2106 142.006 19.2706 142.006C19.6026 142.006 19.9346 142.03 20.2666 142.078C20.6026 142.122 20.9086 142.186 21.1846 142.27V143.11C20.8806 143.014 20.5686 142.944 20.2486 142.9C19.9286 142.856 19.6126 142.834 19.3006 142.834C18.7846 142.834 18.3606 142.896 18.0286 143.02C17.7006 143.144 17.4586 143.324 17.3026 143.56C17.1466 143.796 17.0686 144.08 17.0686 144.412C17.0686 144.848 17.1906 145.186 17.4346 145.426C17.6786 145.666 18.1006 145.866 18.7006 146.026L19.1866 146.146C19.7306 146.286 20.1786 146.466 20.5306 146.686C20.8826 146.902 21.1446 147.168 21.3166 147.484C21.4886 147.796 21.5746 148.166 21.5746 148.594C21.5746 149.13 21.4506 149.586 21.2026 149.962C20.9546 150.334 20.5926 150.62 20.1166 150.82C19.6446 151.016 19.0706 151.114 18.3946 151.114ZM18.3826 152.44V150.874L19.2826 150.832V152.44H18.3826ZM18.3826 142.21V140.68H19.2826V142.21H18.3826ZM25.7596 151.114C25.1396 151.114 24.5996 150.964 24.1396 150.664C23.6836 150.364 23.3296 149.88 23.0776 149.212C22.8296 148.544 22.7056 147.66 22.7056 146.56C22.7056 145.46 22.8296 144.576 23.0776 143.908C23.3256 143.24 23.6776 142.756 24.1336 142.456C24.5896 142.156 25.1316 142.006 25.7596 142.006C26.3916 142.006 26.9356 142.156 27.3916 142.456C27.8476 142.756 28.1996 143.24 28.4476 143.908C28.6956 144.576 28.8196 145.46 28.8196 146.56C28.8196 147.66 28.6936 148.544 28.4416 149.212C28.1936 149.88 27.8396 150.364 27.3796 150.664C26.9236 150.964 26.3836 151.114 25.7596 151.114ZM25.7656 150.274C26.1856 150.274 26.5516 150.164 26.8636 149.944C27.1756 149.724 27.4156 149.346 27.5836 148.81C27.7556 148.27 27.8416 147.526 27.8416 146.578C27.8416 145.618 27.7556 144.868 27.5836 144.328C27.4156 143.784 27.1756 143.402 26.8636 143.182C26.5516 142.958 26.1856 142.846 25.7656 142.846C25.3416 142.846 24.9736 142.956 24.6616 143.176C24.3496 143.396 24.1076 143.776 23.9356 144.316C23.7676 144.852 23.6836 145.594 23.6836 146.542C23.6836 147.502 23.7676 148.254 23.9356 148.798C24.1076 149.338 24.3496 149.72 24.6616 149.944C24.9736 150.164 25.3416 150.274 25.7656 150.274ZM30.468 151.078C30.26 151.078 30.092 151.018 29.964 150.898C29.84 150.778 29.778 150.616 29.778 150.412C29.778 150.208 29.84 150.046 29.964 149.926C30.088 149.806 30.256 149.746 30.468 149.746C30.676 149.746 30.842 149.808 30.966 149.932C31.094 150.052 31.158 150.212 31.158 150.412C31.158 150.612 31.094 150.774 30.966 150.898C30.838 151.018 30.672 151.078 30.468 151.078ZM35.1698 151.114C34.5498 151.114 34.0098 150.964 33.5498 150.664C33.0938 150.364 32.7398 149.88 32.4878 149.212C32.2398 148.544 32.1158 147.66 32.1158 146.56C32.1158 145.46 32.2398 144.576 32.4878 143.908C32.7358 143.24 33.0878 142.756 33.5438 142.456C33.9998 142.156 34.5418 142.006 35.1698 142.006C35.8018 142.006 36.3458 142.156 36.8018 142.456C37.2578 142.756 37.6098 143.24 37.8578 143.908C38.1058 144.576 38.2298 145.46 38.2298 146.56C38.2298 147.66 38.1038 148.544 37.8518 149.212C37.6038 149.88 37.2498 150.364 36.7898 150.664C36.3338 150.964 35.7938 151.114 35.1698 151.114ZM35.1758 150.274C35.5958 150.274 35.9618 150.164 36.2738 149.944C36.5858 149.724 36.8258 149.346 36.9938 148.81C37.1658 148.27 37.2518 147.526 37.2518 146.578C37.2518 145.618 37.1658 144.868 36.9938 144.328C36.8258 143.784 36.5858 143.402 36.2738 143.182C35.9618 142.958 35.5958 142.846 35.1758 142.846C34.7518 142.846 34.3838 142.956 34.0718 143.176C33.7598 143.396 33.5178 143.776 33.3458 144.316C33.1778 144.852 33.0938 145.594 33.0938 146.542C33.0938 147.502 33.1778 148.254 33.3458 148.798C33.5178 149.338 33.7598 149.72 34.0718 149.944C34.3838 150.164 34.7518 150.274 35.1758 150.274ZM42.6581 151.114C42.0381 151.114 41.4981 150.964 41.0381 150.664C40.5821 150.364 40.2281 149.88 39.9761 149.212C39.7281 148.544 39.6041 147.66 39.6041 146.56C39.6041 145.46 39.7281 144.576 39.9761 143.908C40.2241 143.24 40.5761 142.756 41.0321 142.456C41.4881 142.156 42.0301 142.006 42.6581 142.006C43.2901 142.006 43.8341 142.156 44.2901 142.456C44.7461 142.756 45.0981 143.24 45.3461 143.908C45.5941 144.576 45.7181 145.46 45.7181 146.56C45.7181 147.66 45.5921 148.544 45.3401 149.212C45.0921 149.88 44.7381 150.364 44.2781 150.664C43.8221 150.964 43.2821 151.114 42.6581 151.114ZM42.6641 150.274C43.0841 150.274 43.4501 150.164 43.7621 149.944C44.0741 149.724 44.3141 149.346 44.4821 148.81C44.6541 148.27 44.7401 147.526 44.7401 146.578C44.7401 145.618 44.6541 144.868 44.4821 144.328C44.3141 143.784 44.0741 143.402 43.7621 143.182C43.4501 142.958 43.0841 142.846 42.6641 142.846C42.2401 142.846 41.8721 142.956 41.5601 143.176C41.2481 143.396 41.0061 143.776 40.8341 144.316C40.6661 144.852 40.5821 145.594 40.5821 146.542C40.5821 147.502 40.6661 148.254 40.8341 148.798C41.0061 149.338 41.2481 149.72 41.5601 149.944C41.8721 150.164 42.2401 150.274 42.6641 150.274Z" fill="#525256"/>
<path d="M91.7544 40.5396L86 28V150H742V34.296L736.246 40.3914C730.491 46.4868 718.982 58.6776 707.474 60.8564C695.965 63.0353 684.456 55.2021 672.947 51.5228C661.439 47.8435 649.93 48.3179 638.421 45.131C626.912 41.944 615.404 35.0956 603.895 32.5628C592.386 30.0301 580.877 31.8131 569.368 39.4262C557.86 47.0393 546.351 60.4825 534.842 57.4437C523.333 54.4048 511.825 34.8839 500.316 31.8008C488.807 28.7176 477.298 42.0722 465.789 43.5996C454.281 45.127 442.772 34.8272 431.263 38.2724C419.754 41.7176 408.246 58.9079 396.737 70.0287C385.228 81.1494 373.719 86.2005 362.211 86.7745C350.702 87.3485 339.193 83.4453 327.684 77.2995C316.175 71.1537 304.667 62.7653 293.158 65.7345C281.649 68.7038 270.14 83.0306 258.632 80.7179C247.123 78.4053 235.614 59.4532 224.105 46.1945C212.596 32.9357 201.088 25.3703 189.579 29.7729C178.07 34.1755 166.561 50.546 155.053 64.7847C143.544 79.0234 132.035 91.1304 120.526 84.6443C109.018 78.1582 97.5088 53.0791 91.7544 40.5396Z" fill="url(#paint0_linear_8_2073)" fill-opacity="0.5"/>
<path opacity="0.5" d="M86 95.1C86 95.1 105.952 78.0137 120.463 76.4588C134.973 74.9039 134.973 81.1059 150.693 81.1059C166.413 81.1059 159.158 60.3739 183.947 60.3739C208.735 60.3739 222.037 80.5876 238.361 81.1059C254.686 81.6242 271.01 42.2335 295.799 43.2701C320.588 44.3068 304.693 62.273 342.354 60.3739C373.128 58.822 359.888 75.9231 393.141 75.9231C419.333 75.9231 426.076 85.7018 447.556 89.9172C476.526 95.6025 493.831 80.7924 516.481 75.9231C557.776 67.0456 546.305 82.7226 581.174 77.9963C612.093 73.8053 595.08 58.3008 644.658 58.3008C677.161 58.3008 684.802 82.0896 717.211 81.1061C731.29 80.6788 742 86.3195 742 86.3195" stroke="#656575" stroke-width="1.5" stroke-linecap="round" stroke-dasharray="4 4"/>
<path d="M86 28L91.7544 40.5957C97.5088 53.1914 109.018 78.3828 120.526 84.898C132.035 91.4131 143.544 79.2519 155.053 64.9494C166.561 50.647 178.07 34.2031 189.579 29.7809C201.088 25.3586 212.596 32.9578 224.105 46.2759C235.614 59.5941 247.123 78.631 258.632 80.954C270.14 83.277 281.649 68.886 293.158 65.9035C304.667 62.921 316.175 71.347 327.684 77.5203C339.193 83.6936 350.702 87.6143 362.211 87.0377C373.719 86.4612 385.228 81.3874 396.737 70.2169C408.246 59.0464 419.754 41.7791 431.263 38.3184C442.772 34.8577 454.281 45.2037 465.789 43.6695C477.298 42.1352 488.807 28.7208 500.316 31.8178C511.825 34.9148 523.333 54.5231 534.842 57.5755C546.351 60.628 557.86 47.1245 569.368 39.4774C580.877 31.8302 592.386 30.0392 603.895 32.5833C615.403 35.1273 626.912 42.0064 638.421 45.2077C649.93 48.4089 661.439 47.9323 672.947 51.6281C684.456 55.3239 695.965 63.1922 707.474 61.0036C718.982 58.815 730.491 46.5696 736.246 40.4469L742 34.3242" stroke="#006AFF" stroke-opacity="0.8" stroke-width="1.5" stroke-linecap="round"/>
<rect opacity="0.15" x="126" width="1" height="150" rx="0.5" fill="#656575"/>
<path d="M116.329 180V169.64H117.68L121.425 177.683H121.18L124.876 169.64H126.227V180H125.156V170.627H125.478L121.789 178.565H120.767L117.036 170.627H117.4V180H116.329ZM130.377 180.126C129.663 180.126 129.1 179.942 128.69 179.573C128.284 179.204 128.081 178.698 128.081 178.054C128.081 177.391 128.298 176.876 128.732 176.507C129.17 176.134 129.873 175.9 130.839 175.807L132.876 175.59L132.981 176.332L130.909 176.556C130.307 176.617 129.873 176.764 129.607 176.997C129.345 177.226 129.215 177.543 129.215 177.949C129.215 178.374 129.336 178.698 129.579 178.922C129.821 179.146 130.183 179.258 130.664 179.258C130.995 179.258 131.329 179.188 131.665 179.048C132.001 178.903 132.302 178.663 132.568 178.327V174.974C132.568 174.507 132.495 174.148 132.351 173.896C132.206 173.639 131.989 173.46 131.7 173.357C131.41 173.254 131.046 173.203 130.608 173.203C130.323 173.203 129.999 173.229 129.635 173.28C129.275 173.331 128.916 173.418 128.557 173.539V172.622C128.883 172.515 129.243 172.433 129.635 172.377C130.031 172.316 130.405 172.286 130.755 172.286C131.399 172.286 131.935 172.37 132.365 172.538C132.799 172.706 133.123 172.991 133.338 173.392C133.557 173.789 133.667 174.332 133.667 175.023V180H132.729L132.645 179.153H132.575C132.327 179.466 132.01 179.706 131.623 179.874C131.24 180.042 130.825 180.126 130.377 180.126ZM135.699 180V172.405H136.819V180H135.699ZM136.259 170.753C136.007 170.753 135.813 170.692 135.678 170.571C135.547 170.445 135.482 170.272 135.482 170.053C135.482 169.829 135.547 169.654 135.678 169.528C135.813 169.402 136.007 169.339 136.259 169.339C136.511 169.339 136.702 169.402 136.833 169.528C136.968 169.654 137.036 169.829 137.036 170.053C137.036 170.272 136.968 170.445 136.833 170.571C136.702 170.692 136.511 170.753 136.259 170.753Z" fill="#525256"/>
<rect opacity="0.15" x="244.5" width="1" height="150" rx="0.5" fill="#656575"/>
<path d="M236.006 182.408L235.257 181.897C235.551 181.491 235.789 181.094 235.971 180.707C236.158 180.324 236.293 179.914 236.377 179.475C236.466 179.036 236.51 178.532 236.51 177.963V169.64H237.637V178.11C237.637 178.679 237.581 179.2 237.469 179.671C237.362 180.138 237.187 180.59 236.944 181.029C236.706 181.472 236.394 181.932 236.006 182.408ZM242.236 180.126C241.765 180.126 241.347 180.04 240.983 179.867C240.619 179.694 240.332 179.412 240.122 179.02C239.912 178.628 239.807 178.103 239.807 177.445V172.405H240.927V177.396C240.927 178.045 241.072 178.497 241.361 178.754C241.65 179.006 242.024 179.132 242.481 179.132C242.71 179.132 242.948 179.097 243.195 179.027C243.447 178.957 243.69 178.847 243.923 178.698C244.156 178.549 244.364 178.355 244.546 178.117V172.405H245.666V180H244.721L244.644 179.167H244.574C244.257 179.484 243.897 179.725 243.496 179.888C243.095 180.047 242.675 180.126 242.236 180.126ZM247.78 180V172.405H248.725L248.802 173.259H248.879C249.187 172.946 249.546 172.706 249.957 172.538C250.367 172.37 250.804 172.286 251.266 172.286C251.742 172.286 252.162 172.375 252.526 172.552C252.894 172.725 253.181 173.009 253.387 173.406C253.597 173.798 253.702 174.323 253.702 174.981V180H252.589V175.03C252.589 174.377 252.444 173.924 252.155 173.672C251.87 173.415 251.483 173.287 250.993 173.287C250.769 173.287 250.531 173.32 250.279 173.385C250.027 173.45 249.779 173.558 249.537 173.707C249.299 173.856 249.086 174.055 248.9 174.302V180H247.78Z" fill="#525256"/>
<rect opacity="0.15" x="360.5" width="1" height="150" rx="0.5" fill="#656575"/>
<path d="M354.365 182.408L353.616 181.897C353.91 181.491 354.148 181.094 354.33 180.707C354.516 180.324 354.652 179.914 354.736 179.475C354.824 179.036 354.869 178.532 354.869 177.963V169.64H355.996V178.11C355.996 178.679 355.94 179.2 355.828 179.671C355.72 180.138 355.545 180.59 355.303 181.029C355.065 181.472 354.752 181.932 354.365 182.408ZM360.594 180.126C360.123 180.126 359.705 180.04 359.341 179.867C358.977 179.694 358.69 179.412 358.48 179.02C358.27 178.628 358.165 178.103 358.165 177.445V172.405H359.285V177.396C359.285 178.045 359.43 178.497 359.719 178.754C360.009 179.006 360.382 179.132 360.839 179.132C361.068 179.132 361.306 179.097 361.553 179.027C361.805 178.957 362.048 178.847 362.281 178.698C362.515 178.549 362.722 178.355 362.904 178.117V172.405H364.024V180H363.079L363.002 179.167H362.932C362.615 179.484 362.256 179.725 361.854 179.888C361.453 180.047 361.033 180.126 360.594 180.126ZM366.138 180V168.688H367.258V180H366.138Z" fill="#525256"/>
<rect opacity="0.15" x="476.5" width="1" height="150" rx="0.5" fill="#656575"/>
<path d="M464.652 180L468.369 169.64H469.972L473.689 180H472.534L469.062 170.179H469.258L465.786 180H464.652ZM466.598 176.647L466.864 175.688H471.47L471.736 176.647H466.598ZM477.25 183.22C476.9 183.22 476.524 183.19 476.123 183.129C475.726 183.073 475.355 182.989 475.01 182.877V181.939C475.407 182.06 475.785 182.149 476.144 182.205C476.508 182.266 476.856 182.296 477.187 182.296C478.008 182.296 478.615 182.119 479.007 181.764C479.399 181.414 479.595 180.805 479.595 179.937V179.195H479.532C479.303 179.461 479.009 179.678 478.65 179.846C478.295 180.014 477.889 180.098 477.432 180.098C476.905 180.098 476.422 179.977 475.983 179.734C475.544 179.487 475.192 179.09 474.926 178.544C474.66 177.993 474.527 177.263 474.527 176.353C474.527 174.99 474.851 173.973 475.5 173.301C476.153 172.624 477.112 172.286 478.377 172.286C478.638 172.286 478.904 172.3 479.175 172.328C479.45 172.356 479.719 172.396 479.98 172.447C480.241 172.498 480.486 172.559 480.715 172.629V179.769C480.715 181.001 480.426 181.883 479.847 182.415C479.268 182.952 478.403 183.22 477.25 183.22ZM477.761 179.139C478.102 179.139 478.435 179.067 478.762 178.922C479.093 178.777 479.371 178.556 479.595 178.257V173.357C479.427 173.315 479.229 173.28 479 173.252C478.771 173.219 478.533 173.203 478.286 173.203C477.437 173.203 476.788 173.441 476.34 173.917C475.892 174.388 475.668 175.165 475.668 176.248C475.668 176.999 475.759 177.585 475.941 178.005C476.123 178.425 476.37 178.719 476.683 178.887C477 179.055 477.36 179.139 477.761 179.139ZM485.663 180.133C485.01 180.133 484.441 179.998 483.955 179.727C483.47 179.452 483.094 179.027 482.828 178.453C482.562 177.874 482.429 177.125 482.429 176.206C482.429 175.296 482.56 174.552 482.821 173.973C483.087 173.394 483.463 172.97 483.948 172.699C484.434 172.424 485.005 172.286 485.663 172.286C486.321 172.286 486.893 172.424 487.378 172.699C487.864 172.97 488.237 173.394 488.498 173.973C488.764 174.547 488.897 175.291 488.897 176.206C488.897 177.116 488.762 177.86 488.491 178.439C488.225 179.018 487.85 179.445 487.364 179.72C486.884 179.995 486.317 180.133 485.663 180.133ZM485.663 179.223C486.093 179.223 486.464 179.13 486.776 178.943C487.089 178.756 487.329 178.446 487.497 178.012C487.67 177.573 487.756 176.978 487.756 176.227C487.756 175.462 487.67 174.86 487.497 174.421C487.329 173.978 487.087 173.665 486.769 173.483C486.457 173.296 486.088 173.203 485.663 173.203C485.234 173.203 484.863 173.296 484.55 173.483C484.238 173.665 483.995 173.975 483.822 174.414C483.654 174.848 483.57 175.441 483.57 176.192C483.57 176.953 483.654 177.555 483.822 177.998C483.995 178.437 484.238 178.752 484.55 178.943C484.863 179.13 485.234 179.223 485.663 179.223Z" fill="#525256"/>
<rect opacity="0.15" x="592.5" width="1" height="150" rx="0.5" fill="#656575"/>
<path d="M586.233 180.133C585.822 180.133 585.393 180.098 584.945 180.028C584.502 179.958 584.079 179.853 583.678 179.713V178.733C583.967 178.831 584.259 178.913 584.553 178.978C584.852 179.039 585.143 179.085 585.428 179.118C585.713 179.151 585.986 179.167 586.247 179.167C587.106 179.167 587.74 179.006 588.151 178.684C588.562 178.357 588.767 177.884 588.767 177.263C588.767 176.736 588.611 176.334 588.298 176.059C587.99 175.779 587.463 175.541 586.716 175.345L586.156 175.198C585.274 174.974 584.614 174.636 584.175 174.183C583.736 173.726 583.517 173.124 583.517 172.377C583.517 171.486 583.825 170.786 584.441 170.277C585.062 169.764 585.983 169.507 587.206 169.507C587.607 169.507 588.004 169.535 588.396 169.591C588.788 169.642 589.145 169.719 589.467 169.822V170.802C589.112 170.69 588.746 170.608 588.368 170.557C587.995 170.501 587.617 170.473 587.234 170.473C586.641 170.473 586.156 170.545 585.778 170.69C585.4 170.835 585.12 171.045 584.938 171.32C584.756 171.595 584.665 171.927 584.665 172.314C584.665 172.823 584.807 173.217 585.092 173.497C585.377 173.777 585.869 174.01 586.569 174.197L587.136 174.337C587.771 174.5 588.293 174.71 588.704 174.967C589.115 175.219 589.42 175.529 589.621 175.898C589.822 176.262 589.922 176.694 589.922 177.193C589.922 177.818 589.777 178.35 589.488 178.789C589.199 179.223 588.779 179.557 588.228 179.79C587.677 180.019 587.012 180.133 586.233 180.133ZM594.857 180.133C594.068 180.133 593.405 180 592.869 179.734C592.337 179.463 591.935 179.041 591.665 178.467C591.394 177.888 591.259 177.132 591.259 176.199C591.259 175.308 591.382 174.573 591.63 173.994C591.882 173.415 592.236 172.986 592.694 172.706C593.156 172.426 593.702 172.286 594.332 172.286C594.952 172.286 595.48 172.428 595.914 172.713C596.352 172.993 596.686 173.425 596.915 174.008C597.143 174.587 597.258 175.326 597.258 176.227V176.57H591.868V175.807H596.432L596.187 175.975C596.187 175.266 596.112 174.701 595.963 174.281C595.818 173.861 595.606 173.56 595.326 173.378C595.05 173.191 594.714 173.098 594.318 173.098C593.926 173.098 593.585 173.189 593.296 173.371C593.006 173.553 592.782 173.854 592.624 174.274C592.47 174.694 592.393 175.261 592.393 175.975V176.367C592.393 177.067 592.486 177.627 592.673 178.047C592.864 178.462 593.151 178.763 593.534 178.95C593.916 179.132 594.402 179.223 594.99 179.223C595.279 179.223 595.578 179.197 595.886 179.146C596.198 179.09 596.53 179.013 596.88 178.915V179.832C596.516 179.935 596.168 180.009 595.837 180.056C595.51 180.107 595.183 180.133 594.857 180.133ZM601.72 180.133C600.945 180.133 600.343 179.935 599.914 179.538C599.484 179.137 599.27 178.497 599.27 177.62V172.405L599.452 169.64H600.39V177.438C600.39 178.077 600.52 178.525 600.782 178.782C601.048 179.039 601.442 179.167 601.965 179.167C602.105 179.167 602.249 179.158 602.399 179.139C602.548 179.116 602.711 179.085 602.889 179.048V179.993C602.702 180.04 602.511 180.075 602.315 180.098C602.119 180.121 601.92 180.133 601.72 180.133ZM597.842 173.329V172.405H602.777V173.329H597.842Z" fill="#525256"/>
<rect opacity="0.15" x="708.5" width="1" height="150" rx="0.5" fill="#656575"/>
<path d="M702.419 180.133C701.556 180.133 700.802 179.951 700.158 179.587C699.514 179.218 699.012 178.644 698.653 177.865C698.294 177.081 698.114 176.066 698.114 174.82C698.114 173.574 698.294 172.561 698.653 171.782C699.012 170.998 699.514 170.424 700.158 170.06C700.807 169.691 701.56 169.507 702.419 169.507C703.278 169.507 704.029 169.691 704.673 170.06C705.317 170.424 705.819 170.998 706.178 171.782C706.537 172.561 706.717 173.574 706.717 174.82C706.717 176.066 706.537 177.081 706.178 177.865C705.819 178.644 705.315 179.218 704.666 179.587C704.022 179.951 703.273 180.133 702.419 180.133ZM702.419 179.16C703.044 179.16 703.59 179.022 704.057 178.747C704.528 178.467 704.892 178.012 705.149 177.382C705.41 176.752 705.541 175.91 705.541 174.855C705.541 173.777 705.41 172.918 705.149 172.279C704.892 171.64 704.528 171.18 704.057 170.9C703.59 170.62 703.044 170.48 702.419 170.48C701.789 170.48 701.238 170.618 700.767 170.893C700.3 171.168 699.936 171.621 699.675 172.251C699.418 172.881 699.29 173.726 699.29 174.785C699.29 175.868 699.418 176.729 699.675 177.368C699.936 178.003 700.3 178.46 700.767 178.74C701.238 179.02 701.789 179.16 702.419 179.16ZM710.857 180.126C710.386 180.126 709.968 180.04 709.604 179.867C709.24 179.694 708.953 179.412 708.743 179.02C708.533 178.628 708.428 178.103 708.428 177.445V172.405H709.548V177.396C709.548 178.045 709.693 178.497 709.982 178.754C710.271 179.006 710.645 179.132 711.102 179.132C711.331 179.132 711.569 179.097 711.816 179.027C712.068 178.957 712.311 178.847 712.544 178.698C712.777 178.549 712.985 178.355 713.167 178.117V172.405H714.287V180H713.342L713.265 179.167H713.195C712.878 179.484 712.518 179.725 712.117 179.888C711.716 180.047 711.296 180.126 710.857 180.126ZM719.34 180.133C718.565 180.133 717.963 179.935 717.534 179.538C717.104 179.137 716.89 178.497 716.89 177.62V172.405L717.072 169.64H718.01V177.438C718.01 178.077 718.14 178.525 718.402 178.782C718.668 179.039 719.062 179.167 719.585 179.167C719.725 179.167 719.869 179.158 720.019 179.139C720.168 179.116 720.331 179.085 720.509 179.048V179.993C720.322 180.04 720.131 180.075 719.935 180.098C719.739 180.121 719.54 180.133 719.34 180.133ZM715.462 173.329V172.405H720.397V173.329H715.462Z" fill="#525256"/>
<defs>
<linearGradient id="paint0_linear_8_2073" x1="414" y1="-0.466665" x2="414" y2="161.183" gradientUnits="userSpaceOnUse">
<stop stop-color="#006AFF"/>
<stop offset="1" stop-color="#D9D9D9" stop-opacity="0"/>
</linearGradient>
</defs>
</svg>
