<svg width="16" height="29" viewBox="0 0 16 29" fill="none" xmlns="http://www.w3.org/2000/svg">
<path d="M7.126 25.28C6.12733 25.28 5.11 25.2007 4.074 25.042C3.04733 24.8927 2.1 24.6873 1.232 24.426V20.1C1.81067 20.2867 2.44533 20.4453 3.136 20.576C3.82667 20.6973 4.508 20.7953 5.18 20.87C5.86133 20.9447 6.47733 20.982 7.028 20.982C7.94267 20.982 8.65667 20.9073 9.17 20.758C9.69267 20.5993 10.0613 20.3753 10.276 20.086C10.4907 19.7967 10.598 19.456 10.598 19.064C10.598 18.5693 10.4207 18.1773 10.066 17.888C9.72067 17.5893 9.02533 17.3047 7.98 17.034L6.272 16.6C4.43333 16.1427 3.038 15.4193 2.086 14.43C1.14333 13.4407 0.672 12.1387 0.672 10.524C0.672 8.47067 1.43267 6.87 2.954 5.722C4.47533 4.574 6.79933 4 9.926 4C10.8313 4 11.704 4.05133 12.544 4.154C13.3933 4.25667 14.1493 4.38733 14.812 4.546V8.872C14.168 8.69467 13.4353 8.55467 12.614 8.452C11.7927 8.34933 11.018 8.298 10.29 8.298C9.17 8.298 8.29733 8.382 7.672 8.55C7.056 8.718 6.622 8.95133 6.37 9.25C6.12733 9.53933 6.006 9.866 6.006 10.23C6.006 10.6873 6.15533 11.056 6.454 11.336C6.762 11.6067 7.35933 11.8633 8.246 12.106L9.968 12.54C11.3307 12.876 12.4507 13.3193 13.328 13.87C14.2147 14.4113 14.868 15.0833 15.288 15.886C15.7173 16.6793 15.932 17.6173 15.932 18.7C15.932 20.0533 15.582 21.2247 14.882 22.214C14.1913 23.194 13.188 23.95 11.872 24.482C10.5653 25.014 8.98333 25.28 7.126 25.28ZM5.824 28.36V24.034L10.78 24.02V28.36H5.824ZM5.824 5.008V0.92H10.78V5.008H5.824Z" fill="#0434D0"/>
</svg>
