<svg width="736" height="525" viewBox="0 0 736 525" fill="none" xmlns="http://www.w3.org/2000/svg">
<path d="M0.547418 441.086C0.547418 441.086 -1.05397 460.203 29.4489 474.148C61.489 488.794 218.838 481.18 178.569 498.428C149.93 510.695 195.296 520.359 310.044 523.703C369.046 525.422 626.318 529.752 565.954 496C521.123 470.934 740.504 506.809 735.277 441.086H0.547418Z" fill="#74D9CF"/>
<path d="M129.891 440.705C129.891 440.705 43.2401 241.076 105.597 196.623C147.277 166.911 180.499 231.495 233.229 196.844C280.173 165.996 239.388 82.3179 304.01 68.8706C387.516 51.4935 453.789 220.55 522.871 196.623C606.696 167.59 690.08 226.528 618.021 441.086L129.891 440.705Z" fill="#74D9CF"/>
<path d="M62.0928 421.433C60.6381 417.436 59.199 413.294 57.8152 409.123L61.2256 408.213C62.6003 412.357 64.03 416.472 65.4749 420.443L62.0928 421.433ZM672.171 416.271L668.64 415.88C669.226 411.625 669.783 407.34 670.295 403.144L673.832 403.491C673.318 407.701 672.759 412.002 672.171 416.271ZM53.8877 396.723C52.6424 392.601 51.4349 388.402 50.2981 384.243L53.7537 383.484C54.8835 387.618 56.0839 391.791 57.3219 395.889L53.8877 396.723ZM675.288 390.689L671.746 390.389C672.196 386.117 672.613 381.819 672.985 377.616L676.531 377.868C676.159 382.088 675.74 386.401 675.288 390.689ZM47.0471 371.689C46.0196 367.489 45.0417 363.243 44.1409 359.067L47.6342 358.461C48.5294 362.611 49.501 366.831 50.5221 371.005L47.0471 371.689ZM677.553 365.03L674.002 364.829C674.303 360.56 674.567 356.253 674.787 352.03L678.341 352.178C678.12 356.42 677.855 360.744 677.553 365.03ZM41.5914 346.382C40.8003 342.131 40.0676 337.844 39.4144 333.64L42.9379 333.2C43.587 337.375 44.3147 341.633 45.1005 345.857L41.5914 346.382ZM678.884 339.315L675.328 339.222C675.466 334.935 675.562 330.623 675.612 326.41L679.17 326.443C679.119 330.677 679.024 335.007 678.884 339.315ZM37.629 320.847C37.0986 316.553 36.637 312.234 36.2566 308.01L39.8027 307.754C40.1802 311.946 40.6383 316.232 41.1648 320.495L37.629 320.847ZM675.626 313.596C675.584 309.304 675.494 304.995 675.356 300.787L678.913 300.694C679.051 304.924 679.142 309.255 679.184 313.568L675.626 313.596ZM35.3237 295.141C35.0877 290.821 34.9313 286.485 34.8586 282.251L38.4163 282.202C38.4883 286.4 38.6435 290.701 38.8775 294.984L35.3237 295.141ZM674.784 287.989C674.54 283.703 674.24 279.403 673.892 275.208L677.44 274.971C677.79 279.191 678.092 283.516 678.337 287.826L674.784 287.989ZM38.4498 269.415L34.8927 269.349C34.9918 265.018 35.1829 260.68 35.4607 256.456L39.0125 256.644C38.737 260.828 38.5477 265.124 38.4498 269.415ZM672.658 262.453C672.182 258.168 671.644 253.888 671.058 249.733L674.588 249.333C675.178 253.516 675.72 257.824 676.198 262.137L672.658 262.453ZM40.1406 243.907L36.6006 243.588C37.0839 239.274 37.6731 234.962 38.3519 230.771L41.8728 231.23C41.201 235.374 40.6183 239.639 40.1406 243.907ZM669.066 237.061C668.326 232.803 667.513 228.562 666.651 224.454L670.147 223.864C671.017 228.004 671.836 232.279 672.582 236.57L669.066 237.061ZM248.291 236.611C243.348 235.912 239.772 233.894 234.819 230.409L237.067 227.937C241.407 230.982 244.541 232.809 248.67 233.439L248.291 236.611ZM260.635 229.02L257.467 227.569C259.095 224.709 260.535 220.741 261.746 215.773L265.222 216.454C263.928 221.763 262.428 225.873 260.635 229.02ZM224.377 221.259C221.542 218.428 218.514 215.171 215.117 211.3L217.913 209.327C221.262 213.143 224.242 216.349 227.024 219.127L224.377 221.259ZM44.2488 218.642L40.7562 218.034C41.6778 213.776 42.7206 209.529 43.8558 205.413L47.3096 206.179C46.1889 210.243 45.159 214.436 44.2488 218.642ZM663.776 211.93C662.722 207.716 661.586 203.538 660.398 199.513L663.837 198.697C665.037 202.761 666.184 206.978 667.247 211.232L663.776 211.93ZM267.616 203.614L264.087 203.207C264.633 199.399 265.123 195.228 265.584 190.457L269.129 190.733C268.663 195.548 268.169 199.762 267.616 203.614ZM206.403 201.021C203.511 197.519 200.512 193.816 197.927 190.621L200.807 188.748C203.386 191.937 206.38 195.631 209.262 199.123L206.403 201.021ZM466.879 200.758C464.108 200.758 461.389 200.016 458.799 198.552L460.696 195.853C464.587 198.056 468.416 198.061 472.55 196.304L474.081 199.184C471.636 200.229 469.213 200.758 466.879 200.758ZM51.0942 193.884L47.6918 192.951C49.1056 188.806 50.6561 184.683 52.3016 180.697L55.6382 181.804C54.0165 185.733 52.4877 189.797 51.0942 193.884ZM485.715 190.842L483.101 188.678C485.798 186.058 488.69 182.826 491.941 178.798L494.824 180.669C491.488 184.801 488.509 188.129 485.715 190.842ZM448.683 188.649C446.38 185.464 444.098 181.712 441.707 177.181L444.923 175.816C447.246 180.218 449.452 183.848 451.668 186.913L448.683 188.649ZM656.467 187.236C655.034 183.102 653.505 179.033 651.921 175.141L655.264 174.047C656.866 177.987 658.414 182.106 659.864 186.289L656.467 187.236ZM189.495 180.219C186.24 176.23 183.528 172.955 180.958 169.912L183.795 167.986C186.376 171.043 189.1 174.331 192.367 178.335L189.495 180.219ZM270.199 177.848L266.648 177.642C266.918 173.904 267.193 169.703 267.487 164.798L271.04 164.969C270.745 169.886 270.469 174.098 270.199 177.848ZM60.971 169.994L57.7158 168.706C59.6688 164.739 61.7503 160.844 63.9618 157.035L67.1166 158.51C64.9405 162.258 62.8931 166.09 60.971 169.994ZM502.974 169.993L500.001 168.24C502.53 164.793 505.141 161.141 507.785 157.452L510.778 159.176C508.128 162.875 505.514 166.531 502.974 169.993ZM435.98 165.275C434.369 161.65 432.703 157.695 430.889 153.184L434.236 152.102C436.037 156.579 437.688 160.501 439.285 164.093L435.98 165.275ZM646.687 163.285C644.775 159.289 642.751 155.408 640.673 151.749L643.844 150.301C645.957 154.022 648.013 157.967 649.957 162.026L646.687 163.285ZM172.174 159.803C168.945 156.209 165.941 153.011 162.987 150.025L165.649 147.908C168.64 150.932 171.68 154.168 174.944 157.801L172.174 159.803ZM271.78 152.099L268.227 151.939C268.467 147.676 268.705 143.412 268.959 139.072L272.512 139.239C272.258 143.577 272.02 147.839 271.78 152.099ZM518.578 148.401L515.61 146.642C518.582 142.608 521.241 139.119 523.738 135.975L526.636 137.826C524.163 140.939 521.527 144.398 518.578 148.401ZM74.1725 147.5L71.1737 145.783C73.9696 141.857 76.8522 138.311 79.7416 135.243L82.4596 137.302C79.672 140.261 76.8837 143.693 74.1725 147.5ZM426.139 141.009C424.507 136.722 422.906 132.432 421.556 128.8L424.931 127.791C426.28 131.417 427.878 135.7 429.506 139.979L426.139 141.009ZM153.205 140.786C149.569 137.611 145.993 134.807 142.578 132.45L144.748 129.921C148.272 132.353 151.952 135.239 155.687 138.5L153.205 140.786ZM633.766 140.65C631.217 136.919 628.544 133.391 625.821 130.163L628.659 128.238C631.451 131.549 634.19 135.164 636.799 138.982L633.766 140.65ZM92.439 128.621L90.281 126.085C94.5299 123.178 98.9518 121.082 103.424 119.855L104.465 122.906C100.397 124.022 96.3512 125.945 92.439 128.621ZM535.217 127.646L532.453 125.637C535.79 121.945 538.951 118.768 542.119 115.925L544.636 118.18C541.556 120.944 538.475 124.04 535.217 127.646ZM273.309 126.391L269.757 126.201C270.066 121.564 270.371 117.352 270.693 113.326L274.241 113.554C273.921 117.567 273.616 121.766 273.309 126.391ZM130.815 125.723C126.376 123.742 122.009 122.478 117.836 121.965L118.319 118.804C122.876 119.364 127.614 120.731 132.4 122.867L130.815 125.723ZM616.669 120.566C613.244 117.419 609.697 114.641 606.128 112.31L608.223 109.731C611.953 112.167 615.651 115.062 619.215 118.337L616.669 120.566ZM417.018 116.592C415.248 111.845 413.789 107.974 412.427 104.411L415.793 103.376C417.158 106.948 418.619 110.825 420.392 115.58L417.018 116.592ZM555.283 110.036L553.244 107.422C557.62 104.676 562.039 102.643 566.38 101.379L567.479 104.413C563.473 105.58 559.37 107.472 555.283 110.036ZM594.103 106.127C589.697 104.46 585.237 103.429 580.846 103.061L581.177 99.8844C585.93 100.283 590.744 101.394 595.486 103.187L594.103 106.127ZM275.379 100.745L271.836 100.463C272.279 95.9863 272.761 91.6628 273.269 87.613L276.805 87.9696C276.3 91.9947 275.82 96.2929 275.379 100.745ZM407.694 92.2758C405.974 87.9726 404.354 84.0389 402.741 80.2505L406.064 79.1122C407.687 82.9215 409.315 86.8754 411.043 91.1998L407.694 92.2758ZM278.616 75.2476L275.095 74.7913C275.815 70.3244 276.605 66.0285 277.446 62.0231L280.942 62.6129C280.111 66.5742 279.328 70.825 278.616 75.2476ZM397.455 68.3379C395.543 64.2143 393.617 60.2686 391.727 56.6113L394.956 55.2704C396.864 58.9659 398.811 62.9504 400.741 67.1131L397.455 68.3379ZM283.964 50.1278L280.512 49.3546C281.753 44.8994 283.121 40.7029 284.578 36.8816L287.944 37.9138C286.52 41.6502 285.18 45.7597 283.964 50.1278ZM385.409 45.1611C383.069 41.2089 380.679 37.499 378.304 34.1339L381.311 32.4279C383.733 35.8611 386.169 39.6416 388.552 43.6646L385.409 45.1611ZM293.287 26.2246L290.097 24.8125C292.433 20.5678 295.024 16.8147 297.797 13.6572L300.592 15.6314C297.971 18.6145 295.514 22.1786 293.287 26.2246ZM370.15 23.7859C367.041 20.2912 363.833 17.1951 360.614 14.5845L363 12.2181C366.362 14.9443 369.703 18.1668 372.932 21.7964L370.15 23.7859ZM310.518 7.36189L308.6 4.67478C312.814 2.25579 317.458 0.682919 322.401 -3.05176e-05L322.943 3.15336C318.493 3.76781 314.312 5.18398 310.518 7.36189ZM349.388 7.35983C345.243 5.35626 340.926 3.98624 336.557 3.28859L337.18 0.147261C341.923 0.904885 346.599 2.38662 351.076 4.5513L349.388 7.35983Z" fill="#0434D0"/>
<path d="M696.863 341.086C667.339 336.71 670.012 402.478 627.927 402.478C589.45 402.478 568.86 255.539 526.636 285.425C356.886 405.57 488.962 201.121 374.821 197.125C323.209 195.318 288.818 250.351 276.135 347.788C257.752 435.876 215.117 280.603 171.242 295.04C143.356 304.215 146.55 402.478 108.072 402.478C65.988 402.478 68.7603 347.175 39.2365 351.551C7.44924 356.262 0 442.008 0 442.008H736C736 442.008 728.65 345.798 696.863 341.086Z" fill="#EEF7FF"/>
<path d="M668.573 410.114C641.411 408.245 645.843 425.128 607.127 425.128C571.728 425.128 572.701 387.292 549.013 379.25C505.389 364.442 469.426 439.389 452.513 401.775C420.391 301.968 326.707 251.915 283.487 401.775C266.574 439.389 227.024 372.272 186.987 379.25C162.343 383.546 164.271 425.128 128.873 425.128C90.156 425.128 94.5883 408.245 67.427 410.114C38.1834 412.126 29.4485 442.008 29.4485 442.008H706.551C706.551 442.008 697.816 412.126 668.573 410.114Z" fill="#0434D0"/>
<path d="M181.245 251.262C161.276 228.707 145.716 205.478 133.723 184.069C136.85 185.905 151.055 186.68 151.296 183.632C151.523 180.209 134.32 178.931 132.184 181.294C131.381 179.834 130.594 178.382 129.824 176.941C132.894 178.58 148.037 177.231 147.85 174.023C147.547 170.606 130.36 171.99 128.609 174.652C127.648 172.826 126.715 171.018 125.807 169.228C129.03 170.722 143.707 169.342 143.504 166.205C143.168 162.844 126.621 164.145 124.499 166.625C123.604 164.829 122.729 163.048 121.887 161.294C124.683 162.977 140.793 159.032 140.055 155.737C139.231 152.381 122.129 156.598 121.067 159.569C120.261 157.87 119.474 156.188 118.717 154.534C121.875 155.824 137.032 152.019 136.331 148.825C135.461 145.571 119.431 149.47 117.678 152.24C116.781 150.249 115.918 148.294 115.091 146.376C118.311 147.594 133.277 143.812 132.578 140.643C131.708 137.42 115.962 141.224 114.047 143.941C113.42 142.46 112.818 141.01 112.232 139.579C115.447 140.51 130.145 134.105 128.901 131.028C127.513 128.026 112.873 134.271 111.281 137.239C110.46 135.197 109.698 133.266 108.944 131.293C112.29 132.012 126.54 125.747 125.317 122.722C123.963 119.783 109.82 125.744 107.942 128.65C107.377 127.144 106.831 125.659 106.303 124.199C109.442 124.914 123.195 115.042 121.246 112.249C119.275 109.649 106.585 118.638 105.474 121.881C104.836 120.078 104.226 118.314 103.644 116.591C106.83 117.196 120.426 107.425 118.495 104.638C116.551 102.064 104.061 110.868 102.815 114.108C102.203 112.253 101.624 110.449 101.076 108.7C104.615 108.272 116.377 99.5337 114.583 96.9697C112.992 94.5993 102.018 101.868 99.9373 104.998C99.4193 103.28 98.9336 101.623 98.4788 100.031C101.824 99.5763 112.876 88.2169 110.578 85.8509C108.576 83.7785 98.9301 92.9232 97.4534 96.3644C97.0556 94.9097 96.6869 93.5212 96.3444 92.1994C99.5325 92.3199 110.755 79.3012 108.179 77.044C105.898 75.0762 96.5352 85.4363 95.5245 88.9598C95.0259 86.9427 94.5999 85.1264 94.24 83.5274C97.5104 83.1658 108.186 70.7116 105.685 68.4702C103.612 66.5466 94.7204 76.077 93.3939 79.6076C93.0967 78.1623 92.8897 77.071 92.7607 76.3628C94.5484 73.461 93.219 57.8646 89.9498 58.0451C88.4286 58.1654 87.544 62.6735 87.9741 68.1142C88.3407 74.5406 90.2702 75.5428 90.9879 80.2914C88.7388 77.245 77.8222 70.4817 76.3663 72.8572C74.4268 75.713 88.9475 85.5851 91.8854 84.4247C92.2223 85.9105 92.6142 87.5748 93.0643 89.4008C90.4278 86.7966 77.6614 82.1074 76.6095 84.853C75.39 88.0291 91.054 94.3261 93.9507 92.9047C94.3547 94.4622 94.796 96.1142 95.2758 97.8517C92.3996 95.5003 79.3474 91.9695 78.5489 94.7836C77.642 98.0161 93.3072 102.822 96.2712 101.382C96.7307 102.979 97.2208 104.639 97.7424 106.356C94.7328 104.225 81.1955 101.802 80.6234 104.716C80.0204 108.001 95.8882 111.347 98.7787 109.712C99.2782 111.302 99.8039 112.937 100.355 114.613C97.2782 112.735 82.9201 111.924 82.6655 114.997C82.4905 118.339 98.7217 119.603 101.348 117.586C101.864 119.111 102.4 120.667 102.96 122.253C99.9197 120.586 84.6934 121.932 84.8792 125.151C85.217 128.506 101.693 127.216 103.852 124.755C104.446 126.403 105.062 128.081 105.703 129.787C102.796 128.005 87.2144 129.335 87.3958 132.602C87.711 136 104.681 134.645 106.56 132.042C107.267 133.898 107.983 135.711 108.748 137.623C105.678 135.983 90.5339 137.333 90.7209 140.541C91.0546 143.908 107.662 142.599 109.75 140.101C110.299 141.446 110.866 142.812 111.451 144.201C108.09 143.165 93.5941 146.894 94.2924 149.995C95.1532 153.163 110.429 149.522 112.602 146.902C113.32 148.572 114.058 150.263 114.828 151.988C111.586 150.797 96.689 154.572 97.3878 157.731C98.2575 160.956 114.023 157.146 115.927 154.425C116.72 156.172 117.542 157.945 118.389 159.742C115.369 158.293 99.8218 162.152 100.534 165.391C101.39 168.694 117.902 164.647 119.355 161.781C120.144 163.43 120.96 165.102 121.795 166.789C118.517 165.844 103.852 171.256 104.894 174.357C106.104 177.463 121.313 172.007 122.947 169.105C123.855 170.91 124.796 172.738 125.757 174.58C122.833 173.16 107.146 178.841 108.241 182.044C109.435 185.268 125.738 179.336 126.653 176.295C127.672 178.225 128.726 180.177 129.804 182.142C126.649 181.248 112.093 188.965 113.605 191.971C115.245 194.918 129.871 187.2 130.871 184.084C143.03 205.963 158.903 229.792 179.378 252.918L181.245 251.262Z" fill="#3A72AA"/>
<path d="M187.874 234.748C166.119 227.95 146.958 218.99 130.817 209.814C133.561 209.78 143.064 204.726 142.028 202.658C140.837 200.352 129.195 206.253 128.736 208.618C127.645 207.987 126.567 207.354 125.505 206.722C128.134 206.583 137.414 199.787 136.038 197.782C134.506 195.688 123.916 203.305 123.823 205.714C122.487 204.908 121.175 204.102 119.887 203.297C122.558 203.004 131.525 196.371 130.167 194.418C128.634 192.372 118.426 199.686 118.022 202.122C116.74 201.309 115.476 200.498 114.245 199.691C116.714 199.688 125.605 190.832 123.839 188.987C121.993 187.136 112.565 196.555 113.039 198.895C111.853 198.11 110.685 197.328 109.547 196.553C112.098 196.154 120.426 187.761 118.723 185.967C116.887 184.2 108.03 192.994 107.977 195.474C106.618 194.535 105.294 193.606 104.009 192.688C106.57 192.217 114.785 183.915 113.092 182.135C111.269 180.388 102.557 189.01 102.38 191.518C101.395 190.805 100.438 190.101 99.499 189.403C101.945 188.749 108.96 178.853 106.951 177.346C104.878 175.945 97.8388 185.715 97.9681 188.26C96.6384 187.258 95.3878 186.307 94.1303 185.322C96.5781 184.478 103.356 174.849 101.381 173.368C99.3558 171.994 92.5269 181.385 92.4463 184.002C91.4906 183.246 90.5595 182.5 89.6457 181.76C91.958 180.993 97.0027 169.224 94.6487 168.177C92.3561 167.264 87.6533 178.046 88.2005 180.581C87.083 179.664 85.9979 178.761 84.9477 177.873C87.2473 177.018 92.2311 165.373 89.8906 164.324C87.6248 163.417 82.9791 174.002 83.4386 176.588C82.3165 175.626 81.2366 174.685 80.1979 173.767C89.6307 161.259 82.8703 153.604 78.0124 171.814C77.0057 170.904 76.0423 170.021 75.1256 169.168C77.1142 167.565 79.8293 155.886 77.4159 155.252C75.3094 154.693 72.6382 164.386 73.0268 167.193C72.201 166.407 71.4187 165.652 70.6804 164.93C72.7919 163.76 74.9689 150.941 72.4174 150.487C70.1712 150.104 68.1586 160.474 68.8818 163.152C67.7711 162.042 66.7833 161.031 65.9257 160.137C67.9022 158.623 69.9457 146.383 67.4497 145.909C65.3544 145.474 63.3229 155.124 63.8448 157.929C63.0833 157.106 62.5256 156.483 62.1655 156.075C62.1884 153.496 55.2281 143.915 53.1813 145.311C52.2432 145.984 53.4332 149.249 55.8393 152.605C58.5899 156.624 60.2319 156.518 62.5538 159.313C59.9058 158.22 50.1905 158.108 50.1761 160.216C50.0367 162.824 63.3038 163.54 64.7517 161.639C65.5514 162.47 66.4551 163.393 67.4621 164.401C64.7359 163.745 54.6327 165.7 55.0246 167.891C55.4768 170.425 68.0871 168.377 69.406 166.323C70.2785 167.175 71.2058 168.07 72.1983 169.01C69.4157 168.612 59.5813 171.429 60.1645 173.564C60.841 176.012 72.8692 172.998 74.2245 170.906C75.1471 171.761 76.1135 172.644 77.1236 173.553C74.341 173.349 64.6239 177.074 65.3927 179.186C66.2867 181.549 77.8727 177.51 79.1051 175.321C80.05 176.155 81.032 177.009 82.0445 177.879C79.3171 177.866 69.6991 182.956 70.736 185.046C71.9296 187.279 82.9377 181.749 83.8488 179.416C84.779 180.201 85.7383 181 86.7205 181.808C84.1001 181.915 74.7614 188.743 76.1405 190.757C77.6713 192.798 87.8406 185.517 88.2743 183.078C89.3053 183.915 90.3569 184.76 91.4415 185.616C88.8617 185.597 79.2892 192.553 80.6845 194.598C82.2177 196.677 92.6812 189.16 92.8779 186.74C94.0601 187.667 95.2343 188.561 96.4773 189.5C93.8478 189.638 84.567 196.435 85.9426 198.44C87.4758 200.49 97.72 193.147 98.0957 190.713C98.9774 191.369 99.8782 192.032 100.8 192.703C98.218 193.346 90.2881 201.431 91.953 203.166C93.7496 204.881 102.22 196.548 102.602 194.003C103.72 194.803 104.859 195.61 106.033 196.426C103.467 196.923 95.2948 205.193 96.9833 206.966C98.8075 208.714 107.528 200.081 107.698 197.575C108.894 198.396 110.121 199.223 111.372 200.055C108.85 200.297 100.289 208.877 102.017 210.697C103.863 212.501 112.975 203.423 112.795 200.999C113.951 201.758 115.133 202.522 116.333 203.287C113.841 203.957 106.46 213.198 108.347 214.799C110.345 216.337 118.062 206.856 117.986 204.337C119.279 205.151 120.604 205.967 121.946 206.784C119.497 207.008 111.559 216.822 113.521 218.469C115.555 220.09 123.795 209.872 123.198 207.544C124.612 208.396 126.058 209.248 127.525 210.099C125.131 210.754 118.722 221.445 120.878 222.8C123.092 224.068 129.547 213.349 128.975 210.939C145.408 220.355 165.007 229.581 187.312 236.552L187.874 234.748Z" fill="#FCB4B4"/>
<path d="M621.278 128.593C624.181 135.412 626.199 141.573 626.779 145.041C628.434 141.07 630.041 137.405 631.594 134.027C628.435 131.817 618.727 97.396 622.073 96.2912C625.311 95.8114 633.276 125.051 633.13 130.737C634.918 126.97 636.627 123.59 638.241 120.567C635.236 119.443 632.455 81.0975 636.004 81.0981C637.505 80.9976 639.318 89.7948 640.052 100.748C640.52 107.726 640.436 113.891 639.927 117.476C642.115 113.545 644.104 110.301 645.856 107.649C643.067 106.105 647.693 67.7314 651.17 68.4496C654.294 69.1852 650.617 98.5758 648.373 104C653.644 97.1258 654.69 94.4005 664.462 85.4466C683.433 67.9639 687.202 72.0613 668.146 89.4629C658.926 98.5402 655.156 97.5715 649.386 106.451C653.817 103.595 684.688 96.5937 685.816 99.7677C686.505 103.234 650.687 110.926 647.722 108.907C645.891 111.682 643.79 115.116 641.466 119.325C645.518 116.818 678.463 112.994 679.227 116.36C679.511 119.882 643.204 123.589 640.396 121.29C638.721 124.405 636.942 127.903 635.074 131.829C639.653 129.441 671.433 125.805 672.211 129.104C672.282 132.612 637.691 136.132 633.952 134.217C632.308 137.756 630.602 141.613 628.843 145.822C633.437 143.438 665.182 139.808 665.959 143.105C665.999 146.605 631.749 150.094 627.839 148.252C626.401 151.764 624.93 155.507 623.432 159.491C627.689 157.028 660.195 153.273 660.97 156.615C661.07 160.127 626.205 163.674 622.609 161.699C621.241 165.484 619.717 169.267 618.06 172.782C622.35 170.881 655.7 172.094 655.936 175.546C655.537 179.043 620.213 177.25 617.136 174.708C615.241 178.562 613.178 182.203 610.949 185.615C614.192 183.539 649.721 187.736 649.461 191.251C649.224 194.789 611.239 189.794 610.206 186.739C607.321 191.024 604.153 194.977 600.603 198.63C605.147 197.839 637.265 207.703 636.585 211.104C635.377 214.42 601.038 203.332 599.145 200.09C595.376 203.774 591.326 206.99 587.037 209.701C591.789 209.861 621.319 225.023 620.08 228.246C618.307 231.297 586.466 214.38 585.153 210.854C573.665 217.615 564.663 218.449 564.276 218.482L564.089 216.292C564.179 216.284 572.835 215.464 583.728 209.14C580.181 206.265 566.751 175.325 569.786 173.636C573.105 172.69 585.832 203.131 585.679 207.961C589.268 205.707 593.285 202.692 597.4 198.687C593.931 197.591 576.931 165.345 580.025 163.638C583.27 162.301 599.05 193.351 598.588 197.505C601.778 194.263 605.003 190.415 608.112 185.861C604.57 185.062 585.024 154.262 587.973 152.316C591.111 150.78 609.009 179.923 609.139 184.324C611.184 181.197 613.169 177.755 615.049 173.962C611.826 174.241 591.398 141.941 594.507 140.231C597.63 138.626 615.913 168.412 615.736 172.545C617.316 169.247 618.843 165.616 620.219 161.829C616.369 159.924 597.887 130.808 600.676 128.698C603.696 127.313 619.987 153.572 621.296 158.93C622.795 154.933 624.266 151.178 625.704 147.652C622.339 146.379 607.763 112.822 610.986 111.372C612.369 110.783 616.978 118.493 621.278 128.593Z" fill="#FCB4B4"/>
<path d="M252.802 134.818C252.494 132.193 227.177 132.199 223.862 133.747C225.566 130.853 227.288 127.274 228.716 122.98C231.082 124.543 258.4 120.074 258.038 117.4C257.291 114.851 231.994 119.366 229.188 121.498C230.223 118.103 231.064 114.288 231.575 110.038C233.281 111.796 260.96 101.886 259.86 99.4057C258.803 96.9265 233.13 106.497 231.687 109.044C232.004 106.055 232.161 102.86 232.105 99.4463C235.064 100.11 259.747 88.976 258.778 86.4673C257.391 84.2127 234.336 95.0146 232.06 97.8143C231.967 94.9405 231.681 91.768 231.285 88.6899C234.401 88.7907 256.904 74.1792 255.591 71.8378C253.876 69.8501 233.131 83.7264 231.074 86.9009C230.701 83.6694 230.394 80.6106 230.145 77.721C233.427 77.6225 255.534 63.2632 254.266 60.9101C252.565 58.9535 232.294 72.4787 229.98 75.718C229.706 72.2427 229.519 69.0246 229.401 66.0444C232.592 66.0547 254.919 51.5563 253.628 49.2085C251.926 47.2508 231.633 60.7925 229.33 64.0287C229.229 60.7072 229.218 57.7073 229.269 55.0046C231.966 55.597 255.384 40.3813 253.948 38.0937C252.232 36.0857 231.212 50.1622 229.31 53.2956C229.421 49.6221 229.65 46.5534 229.926 44.0274C232.634 44.3755 254.326 26.6191 252.634 24.5121C250.74 22.7634 232.236 38.2713 230.2 41.7766C231.018 33.737 233.928 33.057 237.023 23.6753C243.901 5.19631 239.912 3.71575 233.116 22.2318C229.595 31.7449 229.844 33.9331 228.655 40.4639C228.296 36.0137 220.516 14.7053 218.143 15.3165C215.531 16.0465 225.781 43.7443 228.218 43.8237C227.953 46.2386 227.733 49.1382 227.618 52.5747C226.698 48.4832 214.561 28.1711 212.249 29.2119C209.839 30.4557 225.113 55.5458 227.551 55.2654C227.509 57.8843 227.528 60.7789 227.627 63.9644C225.759 60.0651 210.099 42.9323 208.082 44.4061C206.206 46.3394 224.798 66.3216 227.731 66.7376C227.855 69.5767 228.042 72.6293 228.303 75.9067C226.367 72.4435 207.694 56.7603 205.809 58.5316C204.138 60.6537 225.736 78.3557 228.484 78.0591C228.737 80.9578 229.048 84.0245 229.424 87.2658C226.686 84.0924 206.397 71.9034 204.849 73.912C203.708 76.3318 226.399 89.648 229.704 89.613C230.091 92.6688 230.32 95.6696 230.398 98.4635C229.095 95.6026 206.226 81.7143 204.681 83.9075C203.171 86.158 228.326 100.979 230.426 99.6677C230.472 102.903 230.324 105.936 230.026 108.776C228.423 105.842 206.036 92.2534 204.458 94.4052C203.147 96.7659 227.162 110.864 229.864 110.18C229.341 114.362 228.491 118.104 227.455 121.422C226.338 118.45 204.73 102.824 203.008 104.878C201.514 107.128 224.304 123.096 227.059 122.641C225.66 126.8 223.981 130.253 222.328 133.039C220.768 129.718 201.444 113.433 199.537 115.25C198.082 117.474 217.978 133.788 221.414 134.521C216.22 142.617 210.627 146.198 210.559 146.241L211.45 147.665C211.702 147.507 217.531 143.797 222.981 135.189C225.087 137.127 252.679 137.513 252.802 134.818Z" fill="#CE4ABF"/>
<path d="M153.351 447.846C138.583 447.846 126.611 435.874 126.611 421.106V140.22C126.611 125.452 138.583 113.48 153.351 113.48H563.4C578.169 113.48 590.141 125.452 590.141 140.22V421.106C590.141 435.874 578.169 447.846 563.4 447.846H153.351Z" fill="#0434D0"/>
<path d="M565.954 136.386H150.798V424.94H565.954V136.386Z" fill="white"/>
<path d="M549.297 153.043H167.455V408.283H549.297V153.043Z" fill="#D7DEFF"/>
<path d="M560.861 286.659V279.997H463.57L392.494 331.224H217.647L216.987 221.232L273.935 278.18L283.358 268.758L229.684 215.084H553.104V208.421H223.593V147.665H210.267V208.421H210.247L210.267 211.746V214.513L210.284 214.529L210.598 266.807H158.475V280.132H210.678L210.984 331.224H158.475V344.55H211.064L211.492 415.786L218.155 415.746L217.727 344.55H387.335V415.766H393.997V344.55H459.776L495.725 361.248L443.328 413.645L452.75 423.068L508.593 367.225L550.297 386.596L555.911 374.511L462.719 331.224H403.889L465.721 286.659H560.861Z" fill="white"/>
<path d="M290.306 408.283H266.987V261.81H442.185V211.753H465.504V285.129H290.306V408.283Z" fill="#8A9EDD"/>
<path d="M468.6 212.728C468.51 232.858 437.903 232.857 437.815 212.727C437.906 192.598 468.513 192.6 468.6 212.728Z" fill="#EB5648"/>
<path d="M461.555 212.728C461.714 223.559 444.701 223.559 444.86 212.727C444.702 201.898 461.715 201.897 461.555 212.728Z" fill="white"/>
<path d="M487.469 127.079C489.884 155.915 453.208 193.242 453.208 193.242C364.465 99.0271 481.599 56.9958 487.469 127.079Z" fill="#EB5648"/>
<path d="M472.162 126.643C471.736 151.558 434.675 151.554 434.254 126.642C434.679 101.727 471.74 101.731 472.162 126.643Z" fill="white"/>
<path d="M278.648 296.012V366.024L232.456 376.018L278.648 296.012Z" fill="#EB5648"/>
<path d="M324.837 376.018L278.648 366.024V296.012L324.837 376.018Z" fill="#D33F37"/>
<path d="M359.951 360.41L348.894 392.947H552.032L527.087 350.679C518.907 336.818 505.1 328.486 490.31 328.486H360.235C357.55 328.486 356.115 331.666 357.907 333.667C360.15 336.17 365.148 339.847 371.745 341.142C366.612 346.307 362.519 352.854 359.951 360.41Z" fill="#EB5648"/>
<path d="M340.73 435.227H325.792V441.293H340.73V435.227Z" fill="#CE3932"/>
<path d="M611.334 419.786C610.928 422.948 608.892 425.814 605.741 427.132L605.297 427.316C605.295 427.317 605.295 427.317 605.295 427.317L598.004 410.351L598.624 410.112C603.323 408.146 608.727 410.362 610.692 415.063C611.339 416.611 611.533 418.235 611.334 419.786Z" fill="#F9B233"/>
<path d="M611.334 419.786C610.928 422.948 608.892 425.814 605.741 427.132L605.297 427.316C605.387 427.211 609.359 422.563 607.479 416.983C605.578 411.34 598.004 410.351 598.004 410.351L598.624 410.112C603.323 408.145 608.727 410.362 610.692 415.063C611.339 416.611 611.533 418.235 611.334 419.786Z" fill="#FFC261"/>
<path d="M326.815 421.556C328.017 424.509 330.719 426.757 334.103 427.223L334.58 427.287C334.582 427.289 334.582 427.289 334.582 427.289L337.282 409.021L336.622 408.949C331.576 408.251 326.92 411.779 326.225 416.826C325.996 418.488 326.225 420.107 326.815 421.556Z" fill="#F9B233"/>
<path d="M326.815 421.556C328.017 424.509 330.719 426.757 334.103 427.223L334.58 427.287C334.465 427.209 329.435 423.734 329.823 417.859C330.215 411.917 337.282 409.021 337.282 409.021L336.622 408.949C331.576 408.251 326.92 411.779 326.225 416.826C325.996 418.488 326.225 420.107 326.815 421.556Z" fill="#FFC261"/>
<path d="M371.607 474.488C384.454 474.488 394.869 464.073 394.869 451.226C394.869 438.378 384.454 427.963 371.607 427.963C358.759 427.963 348.344 438.378 348.344 451.226C348.344 464.073 358.759 474.488 371.607 474.488Z" fill="#245084"/>
<path d="M371.607 462.686C377.936 462.686 383.067 457.555 383.067 451.226C383.067 444.897 377.936 439.766 371.607 439.766C365.277 439.766 360.146 444.897 360.146 451.226C360.146 457.555 365.277 462.686 371.607 462.686Z" fill="#2C6399"/>
<path d="M559.043 474.488C571.89 474.488 582.305 464.073 582.305 451.226C582.305 438.378 571.89 427.963 559.043 427.963C546.195 427.963 535.78 438.378 535.78 451.226C535.78 464.073 546.195 474.488 559.043 474.488Z" fill="#245084"/>
<path d="M559.043 462.686C565.372 462.686 570.503 457.555 570.503 451.226C570.503 444.897 565.372 439.766 559.043 439.766C552.714 439.766 547.583 444.897 547.583 451.226C547.583 457.555 552.714 462.686 559.043 462.686Z" fill="#2C6399"/>
<path d="M610.265 446.79C609.38 449.35 606.944 451.226 604.033 451.226H585.099C585.099 449.714 584.97 448.231 584.723 446.79C582.617 434.514 571.92 425.17 559.043 425.17C546.166 425.17 535.47 434.513 533.365 446.79H533.363C533.117 448.231 532.987 449.713 532.987 451.226H397.661C397.661 449.714 397.532 448.231 397.285 446.79H397.283C395.179 434.514 384.484 425.17 371.605 425.17C364.411 425.17 357.897 428.086 353.181 432.803C348.467 437.517 345.55 444.031 345.55 451.226C343.651 451.226 341.85 450.809 340.231 450.061C335.871 448.048 332.846 443.639 332.846 438.52V423.723C332.846 402.525 350.03 385.342 371.228 385.342H553.516C599.241 385.342 608.647 426.748 610.581 443.91C610.695 444.919 610.575 445.896 610.265 446.79Z" fill="#EB5648"/>
<path d="M369.784 389.856L379.558 360.421L379.58 360.362C381.739 354.525 385.221 349.192 389.648 344.939C393.849 340.903 398.95 337.797 404.399 335.957C405.842 335.468 407.331 335.062 408.819 334.751C411.421 334.2 414.105 333.919 416.787 333.919H489.932C490.068 333.919 490.207 333.919 490.344 333.923C503.565 334.063 515.819 340.934 523.128 352.31L523.173 352.381L544.879 389.856H369.784Z" fill="#CE3932"/>
<path d="M537.365 385.342H376.031L384.056 361.625C386.049 356.34 389.174 351.733 393.089 348.042C396.864 344.484 401.371 341.78 406.303 340.145C407.592 339.716 408.911 339.361 410.253 339.087C412.572 338.605 414.96 338.355 417.391 338.355H489.447C489.558 338.355 489.672 338.355 489.784 338.358C501.615 338.47 512.63 344.524 519.181 354.531L537.365 385.342Z" fill="#C3DCFC"/>
<path d="M424.577 385.342H408.172L393.089 348.042C396.863 344.484 401.37 341.78 406.303 340.145L424.577 385.342Z" fill="#DCEDFF"/>
<path d="M437.078 385.342H428.956L410.253 339.087C412.572 338.605 414.96 338.355 417.391 338.355H418.079L437.078 385.342Z" fill="#DCEDFF"/>
<path d="M496.282 385.342H479.874L460.875 338.355H477.282L496.282 385.342Z" fill="#DCEDFF"/>
<path d="M508.781 385.342H500.659L481.662 338.355H489.447C489.559 338.355 489.672 338.355 489.784 338.358L508.781 385.342Z" fill="#DCEDFF"/>
<path d="M464.122 398.217H453.258V403.613H464.122V398.217Z" fill="#CE3932"/>
<path d="M426.641 398.217H415.776V403.613H426.641V398.217Z" fill="#CE3932"/>
<path d="M590.126 446.79C585.57 411.48 532.509 411.501 527.959 446.79H437.261V424.458C437.261 411.171 442 398.277 450.606 388.153L451.248 387.398V334.417H445.852V385.427C436.825 396.405 431.864 410.226 431.864 424.458V446.79H402.69C399.615 423.882 376.978 416.161 359.829 422.458C360.065 411.69 362.649 402.735 367.34 396.489C371.011 391.602 374.734 390.036 374.771 390.02L374.751 390.028L372.785 385.003C372.586 385.081 367.873 386.972 363.305 392.882C359.248 398.129 354.413 408.662 354.413 424.95L354.617 424.918C346.531 429.673 340.597 438.106 340.231 450.061C341.85 450.809 343.651 451.226 345.55 451.226C346.476 416.729 396.87 417.012 397.661 451.226H431.864H437.261H532.988C533.518 416.998 584.575 417.009 585.099 451.226H604.033C606.944 451.226 609.38 449.35 610.265 446.789L590.126 446.79Z" fill="#CE3932"/>
<path d="M579.283 402.453H550.13C549.318 402.453 548.66 401.794 548.66 400.982C548.66 400.17 549.318 399.512 550.13 399.512H579.283C580.095 399.512 580.753 400.17 580.753 400.982C580.753 401.794 580.095 402.453 579.283 402.453Z" fill="#CE3932"/>
<path d="M579.283 407.772H550.13C549.318 407.772 548.66 407.113 548.66 406.301C548.66 405.489 549.318 404.831 550.13 404.831H579.283C580.095 404.831 580.753 405.489 580.753 406.301C580.753 407.113 580.095 407.772 579.283 407.772Z" fill="#CE3932"/>
<path d="M579.283 413.091H550.13C549.318 413.091 548.66 412.432 548.66 411.62C548.66 410.808 549.318 410.15 550.13 410.15H579.283C580.095 410.15 580.753 410.808 580.753 411.62C580.753 412.432 580.095 413.091 579.283 413.091Z" fill="#CE3932"/>
<path d="M68.1612 473.254L67.8713 473.103C67.8713 473.305 67.6203 474.01 67.4174 474.01L58.8425 474.187C58.6396 474.187 58.5147 473.805 58.5147 473.602L57.7832 473.393C57.7832 472.109 57.8887 471.643 58.4562 470.65C60.5409 467.879 58.0522 455.486 58.1242 452.249C57.61 451.364 67.1543 452.058 67.2875 451.849C67.5018 451.849 67.6708 452.032 67.6538 452.246L66.5304 466.406C66.0262 469.094 68.0895 470.719 68.1612 473.254Z" fill="#F99370"/>
<path d="M110.574 474.488H93.4938C92.0027 474.428 92.0141 472.907 92.289 471.728C93.2295 467.477 91.567 457.717 91.2589 453.346C91.1768 452.545 91.8051 451.849 92.6098 451.849C105.213 451.721 101.101 450.712 100.125 464.308C99.3793 469.057 105.044 469.962 108.274 470.487C110.4 470.641 113.956 473.543 110.574 474.488Z" fill="#F99370"/>
<path d="M91.6387 472.716C91.6849 473.554 92.1 474.509 93.0702 474.488H110.787C114.966 472.938 108.705 467.394 100.525 467.427C94.7086 469.023 91.4418 464.489 91.6387 472.716Z" fill="#103663"/>
<path d="M59.1414 474.488H66.7138C70.4044 473.984 67.7455 466.904 62.9287 467.416C58.0983 466.804 55.4538 473.991 59.1414 474.488Z" fill="#103663"/>
<path d="M106.564 472.09C106.713 472.09 106.854 472.002 106.913 471.855C107.594 470.175 108.822 469.661 108.874 469.64C109.831 468.129 107.049 469.205 106.215 471.572C106.112 471.813 106.304 472.095 106.564 472.09Z" fill="#E8C0A6"/>
<path d="M103.638 471.737C103.799 471.737 103.948 471.634 103.998 471.472C104.6 469.526 106.294 468.627 106.311 468.618C107.18 466.862 103.945 468.742 103.279 471.25C103.201 471.486 103.39 471.741 103.638 471.737Z" fill="#E8C0A6"/>
<path d="M100.309 471.328C100.465 471.328 100.61 471.231 100.665 471.075C101.368 469.055 102.991 467.954 103.007 467.943C103.968 465.349 98.6664 470.634 100.309 471.328Z" fill="#E8C0A6"/>
<path d="M60.2128 469.667C62.3163 468.391 65.5429 469.541 65.5553 469.634C67.7517 469.16 62.5577 467.306 60.0223 468.966C59.6918 469.144 59.8435 469.681 60.2128 469.667Z" fill="#E8C0A6"/>
<path d="M112.027 472.716H91.6388C91.7138 473.338 91.8858 473.943 92.198 474.488H110.788C111.703 474.489 112.352 473.572 112.027 472.716Z" fill="#0F2E54"/>
<path d="M59.1414 474.488H66.7138C67.6772 474.489 68.4525 473.677 68.3931 472.716H57.4621C57.4036 473.677 58.178 474.489 59.1414 474.488Z" fill="#0F2E54"/>
<path d="M101.455 301.217C101.455 301.217 103.311 296.013 98.8954 293.483L95.5453 295.216L101.455 301.217Z" fill="#C92828"/>
<path d="M98.3841 343.211C115.058 355.938 135.931 353.095 147.761 344.241L148.378 338.191C121.093 340.306 114.464 327.221 96.9036 319.28C96.9036 319.28 98.198 342.803 98.3841 343.211Z" fill="#3A72AA"/>
<path d="M56.4746 457.741C56.5031 458.929 56.5354 460.127 56.5748 461.343C56.5748 461.343 62.9983 465.581 69.3321 462.62C71.8105 449.127 77.0951 420.224 82.4293 385.371C82.4975 384.346 92.0967 432.101 88.7834 463.725C88.7834 463.725 95.9078 465.563 102.335 463.153C106.851 447.018 107.007 417.74 103.781 356.483C103.781 356.483 84.4858 355.396 70.4514 348.436C58.3561 362.465 55.014 434.324 56.4746 457.741Z" fill="#9358E0"/>
<path d="M95.2373 318.654C96.0372 314.424 97.9791 306.815 94.798 304.939C92.5578 303.712 89.3997 305.264 89.6799 308.069C89.9186 307.97 89.3206 315.732 88.4863 317.774C81.8899 318.6 99.7307 327.976 95.2373 318.654Z" fill="#F99370"/>
<path d="M89.6746 307.711C89.6714 307.83 89.6722 307.951 89.6802 308.069C89.853 307.993 89.5776 312.284 89.0654 315.347C91.722 317.14 95.0265 317.105 95.6339 317.083C96.1166 312.579 97.8429 307.007 94.7974 304.939C92.7136 303.601 89.6916 305.196 89.6746 307.711Z" fill="#E57D61"/>
<path d="M85.6288 304.129C85.6083 307.209 86.0501 310.758 88.0834 313.14H88.0869C88.1699 313.237 88.2528 313.326 88.3424 313.416C88.3424 313.419 88.3459 313.419 88.3459 313.423C91.4223 316.34 96.2979 316.857 100.195 314.617H100.198C103.333 312.542 104.766 309.28 103.782 306.414C103.109 304.709 101.621 303.058 101.455 301.215C100.451 290.034 85.6973 292.214 85.6288 304.129Z" fill="#F99370"/>
<path d="M97.3801 304.208C97.7423 303.733 96.9882 303.176 96.6404 303.661C96.2782 304.136 97.032 304.694 97.3801 304.208Z" fill="#C16256"/>
<path d="M101.303 304.21C101.665 303.735 100.911 303.178 100.563 303.663C100.201 304.137 100.955 304.695 101.303 304.21Z" fill="#C16256"/>
<path d="M85.6288 304.129C85.6083 307.209 86.0501 310.758 88.0834 313.14H88.0869C88.1699 313.237 88.2528 313.326 88.3424 313.416C85.9299 308.586 86.5782 307.59 87.6656 304.229C91.2203 301.7 91.0951 298.248 94.4231 298.262C97.7514 298.273 100.467 297.821 100.467 297.821C96.7354 289.874 85.5806 294.472 85.6288 304.129Z" fill="#E57D61"/>
<path d="M99.5763 307.944C100.334 307.924 101.307 307.576 100.488 306.786C99.7092 306.177 99.3781 304.294 99.3746 304.275C98.5985 303.554 99.3876 306.381 100.273 307.06C100.876 307.585 99.4075 307.748 98.8637 307.447C98.0778 307.572 99.2397 308.044 99.5763 307.944Z" fill="#C16256"/>
<path d="M63.5202 369.291C72.8616 376.359 95.0217 378.198 104.349 374.821C107.493 373.49 107.933 362.9 107.569 352.499C107.009 338.635 103.63 328.613 97.2325 319.348C97.1538 319.316 95.9378 318.776 95.2404 318.658C95.2713 319.924 94.982 323.585 88.488 317.775C88.4592 317.8 86.5491 317.543 85.9523 317.8C85.3299 318.272 78.2984 322.846 78.1197 323.59C77.5902 325.815 75.2156 331.319 72.619 337.735C69.6173 345.239 66.5404 352.926 65.2192 359.953C64.7041 362.874 61.6677 366.537 63.5202 369.291Z" fill="#23659B"/>
<path d="M85.0983 299.975C86.1443 291.165 91.5926 291.431 91.5926 291.431V291.432C96.2812 285.187 106.735 288.317 102.383 295.336C99.9136 299.659 93.598 294.839 89.8695 300.378C88.371 302.604 87.4444 303.977 84.8455 305.118C84.8449 305.118 84.5038 302.359 85.0983 299.975Z" fill="#C92828"/>
<path d="M83.4698 305.323C83.5753 308.828 87.9961 308.644 87.8118 305.143C87.7063 301.639 83.2852 301.822 83.4698 305.323Z" fill="#F99370"/>
<path d="M99.4655 310.446C100.091 310.506 100.655 310.186 100.085 310.033C100.013 310.052 98.3112 310.487 96.5273 308.833C96.457 308.768 96.3465 308.772 96.2812 308.843C96.8074 310.169 98.9545 310.437 99.4655 310.446Z" fill="#C16256"/>
<path d="M86.0478 317.844C88.1857 321.49 97.6241 327.17 97.2349 319.351C97.1552 319.314 95.9428 318.777 95.2407 318.658C95.2551 318.863 95.627 324.24 88.4868 317.773C88.4947 317.827 86.5826 317.483 86.0478 317.844Z" fill="#3A72AA"/>
<path d="M98.31 460.665C105.795 423.826 97.894 376.344 96.6957 375.992C96.0815 376.278 102.965 424.001 98.2133 460.677C95.4474 461.019 92.0365 460.965 89.1591 459.479C89.0448 460.903 88.9195 462.319 88.7837 463.725C88.7837 463.725 95.9081 465.563 102.335 463.153C102.335 463.153 102.757 461.922 103.422 459.479C103.422 459.479 101.24 460.29 98.31 460.665Z" fill="#7640CC"/>
<path d="M63.5857 459.945C69.8949 419.903 76.7517 374.581 75.8733 373.894C74.961 374.022 67.9572 420.163 63.4731 459.933C61.342 459.723 58.8954 459.122 56.4746 457.741C56.5031 458.929 56.5355 460.127 56.5749 461.343C56.5749 461.343 62.9984 465.581 69.3322 462.62C69.3322 462.62 69.5397 461.511 69.9116 459.479C69.9116 459.479 67.2233 460.281 63.5857 459.945Z" fill="#7640CC"/>
<path d="M73.7989 321.443C73.7989 321.443 64.3217 328.938 62.1696 341.247C58.8202 360.404 67.9287 370.865 87.4294 376.165C87.4294 376.165 88.0397 373.755 90.6624 372.986C90.6624 372.986 81.3266 365.778 78.9761 357.156C76.6257 348.534 77.7619 336.096 82.2474 331.208C82.2474 331.208 78.7292 323.148 73.7989 321.443Z" fill="#3A72AA"/>
<path d="M80.3361 318.772C82.4405 316.499 86.2198 316.338 86.8774 318.489C88.9557 325.285 91.9771 331.437 92.9996 333.435C93.3062 333.234 93.7263 333.142 94.0806 333.128C98.9348 326.194 97.8464 319.741 97.8464 319.741C100.862 319.535 102.838 320.7 103.91 322.537C109.148 324.459 108.517 328.594 103.726 331.703C102.608 334.167 100.715 336.37 98.1907 337.556C100.022 341.753 102.236 348.387 99.7182 349.659C98.5831 350.732 95.7772 351.217 95.7073 348.086C95.6494 345.496 95.5088 341.554 95.1934 339.111C94.9353 339.147 94.6451 339.13 94.3182 339.043C94.3208 339.044 93.9457 347.704 95.3745 353.121C96.8021 358.536 90.0976 357.507 87.897 355.732C86.1704 354.339 87.6824 343.329 90.1969 337.376C88.6776 336.547 87.127 335.313 85.6797 333.871L85.6806 333.874C82.9488 331.108 64.0687 320.472 80.3361 318.772Z" fill="#1D3F70"/>
<path d="M159.184 328.707L67.8793 395.427L71.9533 401.002L163.258 334.282L159.184 328.707Z" fill="#EB5648"/>
<path d="M115.67 360.503L67.8787 395.426L71.9527 401.001L119.744 366.078L115.67 360.503Z" fill="#CE3932"/>
<path opacity="0.4" d="M224.285 336.646C240.495 320.436 240.495 294.154 224.285 277.943C208.075 261.733 181.793 261.733 165.582 277.943C149.372 294.154 149.372 320.436 165.582 336.646C181.793 352.856 208.075 352.856 224.285 336.646Z" fill="white"/>
<path opacity="0.4" d="M237.275 322.385C235.818 326.495 233.757 330.414 231.116 333.995L228.65 331.529L226.168 329.047L173.188 276.067L168.239 271.117C168.396 271.002 168.556 270.887 168.715 270.771C172.216 268.257 175.96 266.319 179.832 264.941L182.553 267.665L185.352 270.464H185.354L231.755 316.864L234.561 319.671L237.275 322.385Z" fill="white"/>
<path opacity="0.4" d="M226.976 338.847C225.211 340.638 223.269 342.305 221.159 343.82C217.553 346.409 213.687 348.387 209.691 349.773L206.956 347.037L204.14 344.221L158.009 298.088L155.204 295.286L152.455 292.537C154.712 285.995 158.435 280.106 163.383 275.252L168.267 280.137L222.091 333.962L224.536 336.407L226.976 338.847Z" fill="white"/>
<path d="M231.46 281.073C208.541 248.537 156.364 261.242 150.57 300.011C144.089 332.57 179.254 361.569 209.692 349.771C237.321 340.75 249.225 304.957 231.46 281.073ZM231.754 316.864C228.552 330.034 217.283 341.152 204.14 344.221C167.131 353.573 140.702 307.132 168.268 280.136C195.489 253.3 241.51 279.958 231.754 316.864Z" fill="#CE3932"/>
<path d="M151.677 343.802C153.431 345.22 154.983 342.775 152.53 342.501L152.561 342.525C151.599 341.773 150.759 343.12 151.677 343.802Z" fill="#F99370"/>
<path d="M152.909 342.912C155.185 344.138 155.84 341.06 153.634 341.471C153.683 341.474 153.424 341.419 153.47 341.425C152.366 340.874 151.928 342.455 152.909 342.912Z" fill="#F99370"/>
<path d="M154.23 342.021L155.076 342.184C156.266 342.368 156.107 340.635 155.112 340.51L154.266 340.348C153.077 340.163 153.235 341.897 154.23 342.021Z" fill="#F99370"/>
<path d="M155.256 341.068L156.102 341.23C157.291 341.415 157.133 339.681 156.138 339.557L155.292 339.394C154.103 339.21 154.261 340.944 155.256 341.068Z" fill="#F99370"/>
<path d="M97.5383 374.127L95.8784 375.323C95.8858 375.334 95.8931 375.345 95.9005 375.357C96.6158 376.451 97.5836 377.356 98.7143 378.011C99.8091 378.645 100.883 379.272 102.089 379.762C103.67 382.131 97.1973 379.266 96.3917 379.099C96.3847 379.114 96.3856 379.112 96.3782 379.127C97.8638 380.428 99.4284 381.642 101.092 382.706C102.159 385.538 95.9114 380.773 95.1655 380.348C95.1611 380.355 95.1617 380.354 95.157 380.361C96.3309 381.837 97.6977 383.161 99.1965 384.307C100.02 387.272 94.0721 381.917 93.495 381.263C93.4877 381.265 93.4806 381.268 93.4733 381.272C94.2188 382.58 95.1399 383.787 96.1192 384.932C96.5102 387.847 92.0397 382.4 91.5943 381.745C91.1228 381.484 88.8111 379.303 87.429 376.165C86.9763 375.137 89.7419 372.411 90.6621 372.985C91.3527 373.416 93.5865 373.417 94.0715 373.558C95.202 373.717 96.3706 373.685 97.5383 374.127Z" fill="#F99370"/>
<path d="M95.3422 303.017C95.3004 303.017 95.2584 303.002 95.2255 302.971C95.1552 302.907 95.1505 302.798 95.2152 302.728C96.2577 301.593 97.7303 301.669 97.7914 301.673C97.8867 301.679 97.9587 301.761 97.9531 301.856C97.9473 301.951 97.8614 302.022 97.7706 302.018C97.7579 302.017 96.3973 301.951 95.4695 302.961C95.4354 302.998 95.3889 303.017 95.3422 303.017Z" fill="#C16256"/>
<path d="M101.399 302.517C101.361 302.517 101.324 302.505 101.292 302.48C101.284 302.473 100.48 301.852 99.514 302.014C99.4202 302.03 99.3311 301.967 99.3149 301.872C99.2991 301.778 99.3626 301.689 99.4566 301.673C100.577 301.485 101.469 302.179 101.506 302.209C101.581 302.268 101.593 302.376 101.535 302.451C101.5 302.494 101.45 302.517 101.399 302.517Z" fill="#C16256"/>
<path d="M86.5979 304.116C86.719 303.759 85.6124 303.31 84.8139 303.716C84.4061 303.899 83.8599 305.381 84.4608 306.212C84.5649 306.212 84.6481 306.119 84.6337 306.015C84.5387 305.285 84.5725 304.734 84.7242 304.377C84.7384 304.384 84.7519 304.393 84.768 304.396C84.8151 304.407 85.9211 304.67 86.2024 306.246C86.2189 306.339 86.3001 306.404 86.3915 306.404C86.4027 306.404 86.4141 306.403 86.4256 306.401C86.5303 306.382 86.5996 306.283 86.5811 306.178C86.3018 304.613 85.2884 304.159 84.9559 304.051C84.9724 304.037 84.9868 304.02 85.0044 304.009C85.7615 303.578 86.3224 304.422 86.5979 304.116Z" fill="#C16256"/>
<path d="M341.823 29.8733C341.823 29.8733 344.378 24.9363 352.168 26.3939C359.958 27.8515 361.797 37.7362 364.44 42.2355C370.041 51.7665 371.719 61.8938 368.809 66.7588C365.578 72.1621 358.442 70.0492 348.021 69.0805C336.901 68.0465 332.242 58.3946 339.16 45.1234L341.823 29.8733Z" fill="#C92828"/>
<path d="M345.055 52.8214C342.009 57.2878 340.063 79.0666 340 80.7588C336.416 80.4939 327.807 79.8577 324.136 79.5864C323.099 71.6138 333.669 55.2639 343.311 53.3271C343.311 53.3244 343.311 53.3244 343.311 53.3244C344.396 52.9558 345.055 52.8214 345.055 52.8214Z" fill="#3A72AA"/>
<path d="M299.88 172.887L315.37 172.717C315.33 170.242 314.67 165.243 315.162 162.418L308.476 163.281C308.661 164.638 309.073 167.581 306.82 168.285C303.902 169.198 300.725 168.917 298.904 171.163C298.431 171.917 298.99 172.897 299.88 172.887Z" fill="#F99370"/>
<path d="M315.824 171.221C315.767 171.745 315.628 172.256 315.37 172.717L299.73 172.889C298.969 172.897 298.411 172.155 298.655 171.435C299.23 169.752 301.265 167.296 308.47 166.84C308.47 166.84 310.931 167.543 314.955 166.768C314.955 166.768 316.06 169.094 315.824 171.221Z" fill="#1D3F70"/>
<path d="M303.253 170.832C303.129 170.832 303.012 170.759 302.961 170.637C302.372 169.23 301.334 168.808 301.29 168.791C300.46 167.529 302.827 168.408 303.545 170.393C303.636 170.596 303.473 170.836 303.253 170.832Z" fill="#E8C0A6"/>
<path d="M305.712 170.508C305.578 170.508 305.454 170.422 305.41 170.288C304.886 168.656 303.451 167.915 303.437 167.907C302.68 166.438 305.434 167.989 306.013 170.094C306.082 170.294 305.922 170.511 305.712 170.508Z" fill="#E8C0A6"/>
<path d="M308.51 170.133C308.38 170.133 308.259 170.052 308.212 169.923C307.602 168.229 306.225 167.318 306.211 167.309C305.624 165.766 308.13 167.617 308.808 169.708C308.885 169.909 308.724 170.136 308.51 170.133Z" fill="#E8C0A6"/>
<path d="M298.664 171.409L315.824 171.221C315.767 171.745 315.628 172.256 315.37 172.717L299.73 172.889C298.959 172.899 298.398 172.133 298.664 171.409Z" fill="#395B96"/>
<path d="M348.951 113.752C341.327 113.431 328.047 109.232 322.318 118.931C316.047 129.524 317.582 151.996 318.216 162.856C309.846 165.551 305.347 162.856 305.347 162.856C301.782 140.626 290.039 89.9885 329.305 97.0144C329.304 97.0129 355.637 97.0129 355.637 97.0129C360.042 105.991 356.104 113.602 348.951 113.752Z" fill="#3A72AA"/>
<path d="M318.455 172.886L333.944 172.717C333.904 170.241 333.245 165.242 333.736 162.417C333.736 162.417 327.05 163.281 327.05 163.281C327.236 164.638 327.7 167.581 325.395 168.284C322.47 169.177 319.299 168.916 317.478 171.162C317.005 171.916 317.564 172.896 318.455 172.886Z" fill="#F99370"/>
<path d="M334.399 171.22C334.341 171.744 334.202 172.255 333.944 172.717L318.304 172.888C317.544 172.896 316.985 172.154 317.229 171.434C317.805 169.751 319.84 167.295 327.045 166.839C327.045 166.839 329.505 167.542 333.53 166.768C333.53 166.768 334.635 169.094 334.399 171.22Z" fill="#1D3F70"/>
<path d="M321.827 170.831C321.704 170.831 321.586 170.758 321.535 170.637C320.947 169.229 319.908 168.808 319.864 168.79C319.034 167.528 321.401 168.407 322.12 170.392C322.21 170.595 322.048 170.835 321.827 170.831Z" fill="#E8C0A6"/>
<path d="M324.286 170.507C324.152 170.507 324.028 170.421 323.985 170.287C323.46 168.655 322.026 167.914 322.011 167.907C321.254 166.437 324.009 167.989 324.588 170.093C324.656 170.293 324.497 170.51 324.286 170.507Z" fill="#E8C0A6"/>
<path d="M327.085 170.132C326.955 170.132 326.833 170.051 326.787 169.922C326.176 168.228 324.8 167.317 324.786 167.308C324.199 165.766 326.705 167.616 327.383 169.708C327.46 169.909 327.299 170.136 327.085 170.132Z" fill="#E8C0A6"/>
<path d="M317.238 171.408L334.399 171.22C334.341 171.744 334.202 172.255 333.944 172.717L318.304 172.888C317.533 172.898 316.972 172.132 317.238 171.408Z" fill="#395B96"/>
<path d="M331.448 97.0129L329.196 113.43C319.35 117.308 318.688 127.943 317.789 139.605C313.23 121.587 313.579 103.099 331.448 97.0129Z" fill="#23659B"/>
<path d="M358.873 114.513C350.895 119.424 342.927 114.065 337.315 125.393C332.787 135.311 335.326 154.264 336.57 162.856C328.2 165.551 323.701 162.856 323.701 162.856C318.738 143.679 307.389 99.1129 339.46 97.0138C348.242 96.7342 359.782 96.811 367.544 96.3435C367.544 96.3435 369.699 107.849 358.873 114.513Z" fill="#3A72AA"/>
<path d="M367.699 91.8072C368.379 96.6643 367.393 102.311 367.393 102.311C357.025 99.0153 347.6 98.7105 331.851 96.5108C341.797 66.7194 318.76 87.5645 345.055 52.8211C345.118 52.8264 351.506 53.4047 351.564 53.4085C358.957 58.9691 363.72 66.3411 367.699 91.8072Z" fill="#3A72AA"/>
<path d="M331.619 74.0728C331.466 74.0737 331.343 73.9399 331.357 73.787C331.881 69.4356 336.491 63.7947 337.097 64.0958C337.51 64.6276 332.194 69.3001 331.882 73.832C331.87 73.9693 331.755 74.0728 331.619 74.0728Z" fill="#23659B"/>
<path d="M304.058 98.7166H338.91L331.971 73.1702H297.33L304.058 98.7166Z" fill="#163260"/>
<path d="M338.911 98.5902H304.058V100.325H338.911V98.5902Z" fill="#234270"/>
<path d="M331.447 73.1702H332.694L339.491 98.5902H356.03V100.325H338.33V98.7733L331.447 73.1702Z" fill="#0B274F"/>
<path d="M363.024 58.3561C371.058 64.3777 375.35 75.2144 373.227 85.0688C372.414 90.6044 368.922 95.869 363.458 97.436C360.761 98.5146 348.177 100.25 348.763 95.7831C348.963 94.7115 349.913 94.317 350.834 94.0306C352.351 93.4958 353.914 92.9046 355.361 92.2472C357.951 90.9028 361.282 89.643 361.845 86.7345C363.046 79.9436 360.264 73.3043 355.189 68.8711C355.198 68.8764 355.165 68.8509 355.24 68.9052C348.364 63.783 356.106 53.2983 363.024 58.3561Z" fill="#F99370"/>
<path d="M367.84 96.2227C363.749 98.049 359.875 98.6096 356.897 98.7175C356.897 98.7175 357.584 94.2735 354.373 92.4425C372.464 78.6935 346.625 72.9071 351.588 52.7044C370.986 53.0504 391.014 82.4531 367.84 96.2227Z" fill="#3A72AA"/>
<path d="M341.087 98.5902C341.087 98.5902 342.639 93.163 351.905 93.7884L353.846 98.5902H341.087Z" fill="#F99370"/>
<path d="M359.046 98.5673C357.721 98.7149 356.896 98.7175 356.896 98.7175C356.896 98.7175 357.584 94.2735 354.373 92.4425C354.373 92.4425 355.163 91.9289 356.196 91.0172C356.196 91.0172 359.715 93.6014 359.046 98.5673Z" fill="#23659B"/>
<path d="M356.03 91.7766C355.797 91.7819 355.671 91.4656 355.858 91.3136C363.892 84.1551 359.957 76.5777 355.178 71.6694C354.943 71.4286 355.335 71.0526 355.565 71.311C360.646 76.391 364.502 84.7851 356.03 91.7766Z" fill="#23659B"/>
<path d="M358.873 98.5949C357.371 97.72 363.092 98.1563 367.444 96.0995C367.578 96.0445 367.732 96.1083 367.788 96.2429C367.843 96.3776 367.778 96.5316 367.644 96.5869C363.147 98.4309 358.932 98.5937 358.873 98.5949Z" fill="#23659B"/>
<path d="M353.38 60.8339C353.195 62.2228 351.867 62.6555 351.535 62.582C346.869 60.5882 350.188 66.8852 348.268 67.5264C346.654 68.0656 346.462 65.9603 345.055 65.8451C343.011 65.6778 342.596 66.7906 341.878 66.1141C340.879 65.1724 343.298 63.5281 342.988 61.8432C342.77 60.6602 340.418 61.8494 340.449 59.4139C340.486 57.022 343.224 53.4382 343.311 53.3277C343.311 53.325 343.311 53.325 343.311 53.325C345.034 52.3637 348.785 52.8011 350.488 52.822C350.514 52.6509 351.587 52.705 351.587 52.705C351.587 52.705 352.338 52.5392 353.061 52.8132C353.417 54.7574 353.75 58.7486 353.38 60.8339Z" fill="#F4D4BE"/>
<path d="M345.212 50.5068L345.054 52.8211C345.054 52.8211 344.838 55.0472 344.838 59.1858C344.838 65.0039 346.275 64.3266 348.268 60.2621C349.364 58.0289 351.588 52.8869 351.588 52.8869C351.588 52.8869 351.578 51.3649 351.699 50.4318L345.212 50.5068Z" fill="#F99370"/>
<path d="M352.965 43.8819C352.939 43.9919 352.908 44.103 352.871 44.2097C352.732 44.0965 351.938 47.9476 351.649 50.8837C348.866 52.5142 345.645 52.2975 345.093 52.1273C345.242 47.7832 345.607 41.2827 348.952 40.0717C351.194 39.3594 353.572 41.5711 352.965 43.8819Z" fill="#E57D61"/>
<path d="M344.531 29.5714C336.126 28.563 334.792 41.8316 340.504 46.7134L344.531 29.5714Z" fill="#C92828"/>
<path d="M354.44 38.9207C354.846 41.8181 354.872 45.2163 353.254 47.7138L353.251 47.715C348.828 54.9479 334.195 50.2851 338.204 41.7084C338.793 40.6139 339.125 39.2829 339.169 38.1543C339.302 26.3101 353.27 28.7959 354.44 38.9207Z" fill="#F99370"/>
<path d="M343.381 40.4633C342.981 40.0614 343.622 39.442 344.01 39.8554C344.41 40.2572 343.77 40.877 343.381 40.4633Z" fill="#C16256"/>
<path d="M339.687 40.9549C339.286 40.553 339.927 39.9333 340.315 40.3469C340.715 40.7488 340.075 41.3686 339.687 40.9549Z" fill="#C16256"/>
<path d="M341.888 44.2394C341.149 44.3573 340.077 44.1653 340.776 43.2789C341.434 42.6086 341.51 40.7932 341.511 40.775C341.515 40.5624 341.853 40.5718 341.842 40.7873C341.839 40.867 341.76 42.7489 341.013 43.5103C340.928 43.5968 340.84 43.7155 340.902 43.789C341.078 43.9972 341.91 44.0316 342.388 43.6988C342.462 43.6467 342.566 43.665 342.619 43.7399C342.742 44.086 342.145 44.1603 341.888 44.2394Z" fill="#C16256"/>
<path d="M354.44 38.9208C354.846 41.8181 354.872 45.2164 353.254 47.7138L353.251 47.715C353.997 45.8426 353.717 42.2541 353.717 42.2541L352.686 40.937C342.149 40.7959 340.599 32.8454 340.599 32.8454C345.23 26.6244 353.89 32.2424 354.44 38.9208Z" fill="#E57D61"/>
<path d="M341.407 31.8469C341.407 31.8469 342.974 39.6748 352.511 40.1488L355.066 37.5013C356.254 30.6868 348.154 23.7098 341.407 31.8469Z" fill="#C92828"/>
<path d="M356.623 39.7754C356.961 43.0896 352.774 43.4697 352.511 40.1485C352.173 36.8343 356.359 36.4544 356.623 39.7754Z" fill="#F99370"/>
<path d="M355.637 38.9175C355.21 37.6036 352.682 39.0066 353.758 39.0563C353.762 38.9981 354.882 38.3272 355.231 38.9096C354.127 39.4305 353.76 41.4885 354.398 40.8232C354.4 40.8108 354.533 39.6387 355.401 39.1959C355.832 42.1891 356.224 40.1126 355.637 38.9175Z" fill="#C16256"/>
<path d="M355.341 41.7552C355.49 42.2142 354.766 42.4373 354.63 41.9742C354.482 41.515 355.206 41.2918 355.341 41.7552Z" fill="#F4D4BE"/>
<path d="M344.838 69.0487C344.852 70.0086 343.345 70.0086 343.359 69.0487C343.345 68.0888 344.852 68.0888 344.838 69.0487Z" fill="#23659B"/>
<path d="M343.385 74.2589C343.399 75.2188 341.891 75.2188 341.905 74.2589C341.891 73.299 343.399 73.299 343.385 74.2589Z" fill="#23659B"/>
<path d="M343.385 78.9475C343.399 79.9074 341.891 79.9074 341.905 78.9475C341.891 77.9877 343.399 77.9877 343.385 78.9475Z" fill="#23659B"/>
<path d="M317.955 159.126C318.092 161.452 318.216 162.856 318.216 162.856C309.847 165.551 305.347 162.856 305.347 162.856C305.347 162.856 305.113 161.689 304.752 159.677C304.852 159.726 310.115 162.314 317.955 159.126Z" fill="#23659B"/>
<path d="M336.57 162.856C328.2 165.551 323.701 162.856 323.701 162.856C323.701 162.856 323.395 161.779 322.921 159.919C322.921 159.919 327.56 162.319 336.132 159.919C336.385 161.758 336.57 162.856 336.57 162.856Z" fill="#23659B"/>
<path d="M341.593 98.5355C339.946 98.5861 345.941 94.4737 347.729 95.4795C347.743 95.6247 347.638 95.7541 347.493 95.7685C344.12 96.121 341.877 98.5252 341.593 98.5355Z" fill="#E57D61"/>
<path d="M344.132 98.6284C342.882 98.0951 346.764 97.1811 348.686 96.6607C348.827 96.6307 348.968 96.7227 348.997 96.8653C349.027 97.0079 348.935 97.147 348.793 97.1767C346.745 97.5985 344.338 98.6064 344.132 98.6284Z" fill="#E57D61"/>
<path d="M344.754 39.1207C344.713 39.1207 344.673 39.1077 344.639 39.081C343.587 38.2578 342.63 38.5253 342.59 38.5374C342.49 38.5668 342.386 38.51 342.357 38.411C342.328 38.3122 342.383 38.2081 342.482 38.1781C342.529 38.1634 343.658 37.8374 344.869 38.7855C344.951 38.8493 344.965 38.9672 344.902 39.0486C344.865 39.096 344.81 39.1207 344.754 39.1207Z" fill="#C16256"/>
<path d="M339.25 39.5728C339.214 39.5728 339.177 39.5625 339.145 39.5408C339.059 39.4829 339.037 39.3661 339.095 39.2806C339.119 39.2441 339.703 38.3921 340.677 38.4298C340.781 38.4339 340.861 38.5209 340.857 38.6244C340.853 38.7279 340.767 38.8105 340.662 38.8043C339.897 38.7796 339.41 39.4832 339.405 39.4902C339.369 39.544 339.31 39.5728 339.25 39.5728Z" fill="#C16256"/>
<path d="M343.299 46.0098C343.053 46.0098 342.839 45.9228 342.702 45.7464C342.412 45.3701 342.604 44.7506 343.14 44.3364C343.676 43.9222 344.324 43.8919 344.615 44.2682C344.905 44.6445 344.713 45.264 344.177 45.6782C343.892 45.8981 343.576 46.0098 343.299 46.0098ZM344.016 44.3817C343.83 44.3817 343.594 44.459 343.369 44.6328C342.981 44.9332 342.862 45.3401 342.999 45.5171C343.136 45.6941 343.559 45.682 343.948 45.3816C344.336 45.0811 344.455 44.6745 344.318 44.4972C344.26 44.4228 344.152 44.3817 344.016 44.3817Z" fill="#C16256"/>
<path d="M643.355 340.211C643.045 340.371 647.197 340.339 646.93 340.649C638.188 348.21 625.146 350.603 615.467 343.239V343.228C612.587 341.121 609.678 337.731 607.655 334.185L610.031 330.333C628.899 341.972 636.369 322.109 651.713 320.562L648.642 325.046L643.355 340.211Z" fill="#1D3F70"/>
<path d="M664.306 473.263L664.594 473.113C664.594 473.314 664.843 474.014 665.044 474.014L673.558 474.189C673.76 474.189 673.884 473.81 673.884 473.608L674.61 473.4C674.61 472.125 674.505 471.663 673.942 470.677C671.872 467.925 674.343 455.621 674.271 452.407C674.782 451.528 665.306 452.218 665.173 452.01C664.961 452.011 664.793 452.192 664.81 452.404L665.925 466.463C666.426 469.133 664.377 470.746 664.306 473.263Z" fill="#F99370"/>
<path d="M627.399 474.488H644.358C645.838 474.428 645.827 472.918 645.554 471.748C644.621 467.527 646.271 457.836 646.577 453.496C646.658 452.701 646.035 452.011 645.236 452.011H637.751C636.94 452.011 636.313 452.722 636.414 453.527L637.775 464.38C638.514 469.096 632.89 469.994 629.683 470.516C627.572 470.668 624.041 473.55 627.399 474.488Z" fill="#F99370"/>
<path d="M646.2 472.729C646.154 473.56 645.742 474.509 644.779 474.488H627.188C623.039 472.949 629.256 467.444 637.377 467.477C643.152 469.062 646.395 464.561 646.2 472.729Z" fill="#3A72AA"/>
<path d="M673.261 474.488H665.743C662.079 473.988 664.719 466.958 669.501 467.466C674.297 466.859 676.923 473.994 673.261 474.488Z" fill="#3A72AA"/>
<path d="M625.957 472.729H646.2C646.125 473.347 645.954 473.947 645.644 474.488H627.187C626.278 474.489 625.634 473.578 625.957 472.729Z" fill="#23659B"/>
<path d="M673.261 474.488H665.743C664.786 474.489 664.017 473.683 664.076 472.728H674.929C674.987 473.683 674.218 474.489 673.261 474.488Z" fill="#23659B"/>
<path d="M649.356 301.211C649.356 301.211 649.268 295.715 654.236 294.739L656.841 297.441L649.356 301.211Z" fill="#1D3F70"/>
<path d="M675.458 464.894C675.458 464.894 667.439 466.841 663.308 464.748C661.158 451.264 655.189 413.719 653.11 387.991C653.03 389.491 648.663 449.995 647.832 464.748C644.98 465.703 639.244 466.854 636.035 464.542C634.593 449.011 629.964 397.876 636.937 356.114C636.937 356.114 656.047 358.24 670.97 353.73C675.078 366.978 676.166 448.997 675.458 464.894Z" fill="#CE4ABF"/>
<path d="M675.372 461.838C673.08 462.351 670.958 462.53 669.135 462.54C668.298 416.937 661.549 373.94 660.525 373.776C659.758 374.35 666.384 416.855 669.105 462.54C665.323 462.555 662.839 461.838 662.839 461.838C663.137 463.705 663.308 464.748 663.308 464.748C667.439 466.841 675.458 464.894 675.458 464.894C675.432 464.743 675.403 463.658 675.372 461.838Z" fill="#A523A2"/>
<path d="M647.832 464.748C647.765 463.452 653.11 387.991 653.11 387.991C653.11 387.991 650.585 389.339 649.985 397.352C649.463 404.318 646.35 450.614 645.545 462.585C643.052 463.142 640.808 463.038 639.099 462.759C637.194 418.334 641.654 380.225 640.982 379.769C639.807 379.864 635.317 418.31 639.078 462.756C637.037 462.421 635.766 461.837 635.766 461.837C635.932 463.591 636.034 464.542 636.034 464.542C638.664 466.436 642.987 466.006 646.033 465.264C646.803 465.084 647.393 464.894 647.665 464.803C647.721 464.785 647.778 464.766 647.832 464.748Z" fill="#A523A2"/>
<path d="M651.574 320.411C651.157 316.774 651.726 311.527 652.233 309.369C653.147 305.112 659.899 306.759 658.777 310.944C658.559 310.807 657.862 318.522 658.343 320.664C664.679 322.564 645.624 328.814 651.574 320.411Z" fill="#F99370"/>
<path d="M658.841 310.593C658.825 310.71 658.804 310.829 658.777 310.944C658.62 310.84 658.18 315.097 658.176 318.186C655.273 319.506 652.037 318.925 651.444 318.804C651.381 314.891 651.74 311.325 652.315 309.087C653.492 305.298 659.442 306.679 658.841 310.593Z" fill="#E57D61"/>
<path d="M663.343 309.005C662.382 311.914 660.833 315.118 658.157 316.714L658.153 316.713C657.066 317.355 655.834 317.668 654.561 317.713C647.412 318.678 640.371 308.945 646.804 304.102C647.864 303.347 648.792 302.251 649.356 301.211C655.088 290.16 666.841 298.833 663.343 309.005Z" fill="#F99370"/>
<path d="M648.421 310.154L652.659 308.783C652.681 311.181 649.852 312.337 648.421 310.154Z" fill="#F9F8F3"/>
<path d="M639.171 335.791L636.228 346.589C629.925 348.526 623.205 348.087 617.276 344.449C623.793 348.13 632.75 346.054 634.163 343.892C635.65 341.602 638.968 336.123 639.171 335.791Z" fill="#103663"/>
<path d="M673.751 371.761C673.068 372.591 672.341 373.423 671.57 374.259C671.57 374.259 667.816 374.965 664.875 371.054C676.866 345.635 653.716 343.263 658.343 320.663C673.81 322.489 695.326 345.573 673.751 371.761Z" fill="#1D3F70"/>
<path d="M652.243 305.331C652.053 304.768 652.942 304.483 653.115 305.051C653.305 305.614 652.416 305.899 652.243 305.331Z" fill="#C16256"/>
<path d="M648.545 304.081C648.355 303.518 649.244 303.233 649.417 303.801C649.607 304.364 648.718 304.649 648.545 304.081Z" fill="#C16256"/>
<path d="M663.343 309.005C662.382 311.914 660.833 315.118 658.157 316.714L658.153 316.713C657.931 316.844 657.702 316.962 657.466 317.066C659.548 315.572 661.202 311.919 661.202 311.919L661.3 308.614C658.875 305.213 660.653 302.111 660.653 302.111C655.589 302.692 654.437 299.439 654.437 299.439C652.873 299.391 651.386 298.359 651.386 298.359C658.353 291.375 666.363 301.352 663.343 309.005Z" fill="#E57D61"/>
<path d="M648.421 310.327C648.517 310.218 653.041 309.063 652.824 308.729C652.911 308.307 648.454 310.05 648.368 309.989C648.183 310.043 648.231 310.333 648.421 310.327Z" fill="#C16256"/>
<path d="M649.647 308.268C649.945 308.361 650.199 307.944 649.812 307.91C649.202 308.025 647.872 307.397 648.607 307.096C649.66 306.736 651.302 304.326 650.342 304.757C650.333 304.774 649.42 306.444 648.492 306.769C647.221 307.399 648.767 308.27 649.647 308.268Z" fill="#C16256"/>
<path d="M673.751 371.762C673.068 372.591 672.341 373.423 671.57 374.259C671.57 374.259 667.746 374.794 664.806 370.883C665.238 369.833 665.716 369.152 666.084 368.109C666.084 368.109 668.355 370.651 673.751 371.762Z" fill="#103663"/>
<path d="M671.84 374.761C672.649 375.004 673.501 374.046 672.401 373.768C666.451 374.028 664.866 370.1 664.801 369.932C662.221 368.48 665.391 375.119 671.84 374.761Z" fill="#A523A2"/>
<path d="M634.158 374.067C634.158 374.067 635.326 379.074 644.666 381.544C647.342 382.251 648.888 381.902 649.28 380.047C649.477 379.115 649.986 377.494 650.921 376.893C650.921 376.893 653.011 377.796 653.799 379.077C655.528 381.884 658.133 379.333 659.401 376.395C660.97 372.761 664.944 369.682 665.813 366.633L634.158 374.067Z" fill="#F4D4BE"/>
<path d="M672.221 367.878C671.917 368.416 671.736 368.33 671.425 368.018C663.034 361.752 660.029 375.444 650.988 375.69C641.784 376.601 636.664 377.12 634.158 374.066C629.781 367.283 636.742 336.959 642.373 329.616C644.839 325.798 649.215 322.395 651.57 320.414C651.522 320.613 650.268 325.828 658.344 320.663C658.75 320.835 661.31 323.332 661.149 324.669C661.558 330.808 676.125 360.981 672.221 367.878Z" fill="#1D3F70"/>
<path d="M648.919 293.378C648.919 293.378 651.287 292.725 653.713 293.679C653.991 292.758 654.558 291.909 655.48 291.236C655.875 292.355 656.438 293.429 657.078 294.43C657.298 292.327 658.594 290.621 658.594 290.621C658.94 292.636 661.725 294.085 663.039 296.266L663.11 296.165C663.11 296.165 670.466 298.813 665.164 305.333C664.946 307.746 663.768 310.187 663.768 310.187C659.87 306.626 660.709 302.348 662.481 301.235C659.304 302.361 656.474 301.026 654.876 298.918C652.513 298.526 649.624 297.239 648.919 293.378Z" fill="#1D3F70"/>
<path d="M667.365 369.806L665.524 369.423C672.88 352.865 664.229 345.865 659.654 336.536C670.264 348.814 671.87 355.546 667.365 369.806Z" fill="#103663"/>
<path d="M664.998 310.818C663.781 314.087 659.672 312.505 660.963 309.264C662.181 305.995 666.289 307.577 664.998 310.818Z" fill="#F99370"/>
<path d="M663.835 311.349C664.586 310.563 664.586 309.242 664.243 308.875C663.62 308.235 662.437 308.311 662.435 308.682C662.594 309.057 663.397 308.444 663.971 309.09C664.591 309.577 663.352 311.15 663.835 311.349Z" fill="#C16256"/>
<path d="M662.277 310.853C662.542 310.834 662.972 309.634 664.281 309.712C664.376 309.723 664.46 309.651 664.47 309.556C663.616 308.692 661.504 310.87 662.277 310.853Z" fill="#C16256"/>
<path d="M660.827 321.107C660.871 324.187 652.967 326.907 652.52 326.911L651.572 324.108C650.356 324.408 649.285 326.111 649.285 326.111C645.779 322.771 649.076 319.859 651.572 320.41C651.572 320.41 651.572 320.412 651.57 320.414C651.521 320.613 650.97 325.184 658.313 320.505C659.259 320.067 660.827 321.107 660.827 321.107Z" fill="#F4D4BE"/>
<path d="M612.117 331.425C612.107 333.886 608.757 335.962 608.757 335.962C608.383 335.395 608.008 334.796 607.655 334.186L610.031 330.333C610.748 330.729 611.443 331.093 612.117 331.425Z" fill="#103663"/>
<path d="M606.542 323.406C605.622 323.997 607.13 325.818 607.016 326.808C605.491 326.113 604.155 324.972 604.144 324.974C602.837 323.362 601.619 321.682 600.477 319.946C597.66 318.656 602.127 325.035 602.464 325.82C602.457 325.827 602.449 325.835 602.442 325.842C600.751 324.476 599.131 323.015 597.645 321.428C594.476 320.766 600.865 326.596 601.446 327.29C601.444 327.295 601.442 327.3 601.44 327.304C599.631 326.289 597.946 325.052 596.414 323.652C593.164 323.269 600.106 328.692 600.878 329.178C600.876 329.186 600.875 329.194 600.873 329.202C599.497 329.019 596.667 326.475 595.758 327.091C594.897 328.486 604.192 333.492 607.449 334.121C608.621 334.443 610.313 331.495 610.026 330.336C609.757 329.25 609.008 327.92 608.75 327.433C608.344 326.299 607.89 323.496 606.542 323.406Z" fill="#F99370"/>
<path d="M615.456 343.207C615.553 343.282 615.65 343.357 615.746 343.443C615.65 343.368 615.564 343.304 615.467 343.239V343.229C615.456 343.218 615.456 343.207 615.456 343.207Z" fill="#395B96"/>
<path d="M654.72 305.214C654.631 305.214 654.551 305.154 654.528 305.064C654.514 305.012 654.179 303.803 652.335 303.175C652.231 303.139 652.176 303.026 652.211 302.923C652.246 302.819 652.359 302.763 652.463 302.799C654.525 303.502 654.898 304.907 654.913 304.967C654.939 305.073 654.874 305.181 654.768 305.208C654.752 305.211 654.736 305.214 654.72 305.214Z" fill="#C16256"/>
<path d="M648.748 302.644C648.691 302.644 648.636 302.62 648.596 302.574C648.525 302.491 648.535 302.366 648.619 302.294C649.61 301.452 650.966 302.127 651.024 302.156C651.121 302.206 651.16 302.325 651.111 302.423C651.061 302.52 650.942 302.56 650.844 302.51C650.832 302.504 649.663 301.926 648.876 302.597C648.839 302.629 648.793 302.644 648.748 302.644Z" fill="#C16256"/>
</svg>
